<svg id="eKia0LDYJtM1" xmlns="http://www.w3.org/2000/svg" xmlns:xlink="http://www.w3.org/1999/xlink" viewBox="0 0 47 47" shape-rendering="geometricPrecision" text-rendering="geometricPrecision"><style><![CDATA[#eKia0LDYJtM2_tr {animation: eKia0LDYJtM2_tr__tr 3000ms linear 1 normal forwards}@keyframes eKia0LDYJtM2_tr__tr { 0% {transform: translate(23.5px,23.5px) rotate(0deg)} 16.666667% {transform: translate(23.5px,23.5px) rotate(0deg)} 50% {transform: translate(23.5px,23.5px) rotate(360deg)} 100% {transform: translate(23.5px,23.5px) rotate(360deg)}}]]></style><g id="eKia0LDYJtM2_tr" transform="translate(23.5,23.5) rotate(0)"><path d="M42.8804,19.4904c-1.8781,0-3.5089,1.3391-3.9031,3.0653h-5.1398c-.8424-1.2385-2.2259-2.028-3.8026-2.0745-.1005-.5418-.2937-1.0914-.5411-1.579l5.7272-5.7357c.5951.3483,1.3371.596,2.0714.596c2.2259,0,4.05-1.8267,4.05-4.05598s-1.8241-4.05599-4.05-4.05599-4.05,1.82674-4.05,4.05599c0,.78948.2473,1.48618.5951,2.07448l-5.4798,5.5886c-.9893-1.0373-2.3187-1.7803-3.8027-1.9816v-7.42308c1.7777-.44895,3.0607-2.028,3.0607-3.90893C27.6157,1.82675,25.7916,0,23.5657,0s-4.05,1.7803-4.05,4.00955c0,1.88093,1.3371,3.51416,3.0607,3.90893v7.42312c-1.484.2012-2.767.8901-3.7563,1.9273l-5.5803-5.5421c.3941-.596.5951-1.3391.5951-2.07446c0-2.22925-1.824-4.056-4.05-4.056s-4.04999,1.82675-4.04999,4.056s1.82404,4.05596,4.04999,4.05596c.7884,0,1.484-.2477,2.0714-.596l5.7813,5.7899c-.1005.2477-.2474.4954-.3478.7431-1.8782.1006-3.4549,1.1842-4.2974,2.771h-5.03927c-.44828-1.7803-2.02499-3.0652-3.90314-3.0652C1.82404,19.3511,0,21.1779,0,23.4071s1.82404,4.0096,4.04999,4.0096c1.87815,0,3.50896-1.3391,3.90314-3.0653h4.49827c0,.2013-.0464.3484-.0464.5419c0,2.175,1.3371,4.056,3.2617,4.8455l-3.9495,3.9554c-.5952-.3484-1.3372-.596-2.07142-.596-2.22595,0-4.04999,1.8267-4.04999,4.0559c0,2.2293,1.82404,4.056,4.04999,4.056s4.05002-1.8267,4.05002-4.056c0-.7895-.2474-1.4861-.5952-2.0744L17.9931,30.18h4.3978v8.8551c-1.7777.4489-3.0607,2.028-3.0607,3.9089c0,2.2293,1.824,4.056,4.05,4.056s4.05-1.8267,4.05-4.056c0-1.8809-1.3371-3.5142-3.0607-3.9089v-8.9015h4.2973l5.0393,5.0467c-.3478.596-.5951,1.3391-.5951,2.0745c0,2.2292,1.824,4.056,4.05,4.056c2.2259,0,4.05-1.8268,4.05-4.056c0-2.2293-1.8241-4.056-4.05-4.056-.742,0-1.484.2477-2.0714.596l-3.849-3.8547c2.025-.5419,3.5089-2.4228,3.5089-4.6521c0-.2941-.0463-.5418-.0463-.7895h4.3437c.4482,1.7803,2.025,3.0652,3.9031,3.0652c2.226,0,4.05-1.8267,4.05-4.056s-1.8781-4.0095-4.0964-4.0095l-.0232-.0078ZM37.2537,7.6166c1.1826,0,2.1255.93659,2.1255,2.12862s-.9352,2.12858-2.1255,2.12858-2.1254-.9365-2.1254-2.12858.9893-2.12862,2.1254-2.12862ZM9.79263,11.7732c-1.18253,0-2.12547-.9366-2.12547-2.1286s.93521-2.12863,2.12547-2.12863s2.12547.9366,2.12547,2.12863-.9352,2.1286-2.12547,2.1286ZM4.06545,25.4738c-1.18254,0-2.12547-.9366-2.12547-2.1286s.9352-2.1286,2.12547-2.1286s2.12547.9366,2.12547,2.1286c0,1.1843-.93521,2.1286-2.12547,2.1286Zm5.62671,13.747c-1.18254,0-2.12548-.9365-2.12548-2.1286c0-1.192.93521-2.1286,2.12548-2.1286s2.12544.9366,2.12544,2.1286c0,1.1921-.9893,2.1286-2.12544,2.1286ZM25.4979,42.8821c0,1.1843-.9352,2.1286-2.1254,2.1286s-2.1255-.9366-2.1255-2.1286.9352-2.1286,2.1255-2.1286s2.1254.9366,2.1254,2.1286Zm11.609-7.7637c1.1825,0,2.1255.9366,2.1255,2.1286c0,1.1921-.9352,2.1287-2.1255,2.1287s-2.1255-.9366-2.1255-2.1287c0-1.192.9893-2.1286,2.1255-2.1286ZM21.448,4.00955c0-1.18429.9352-2.12862,2.1254-2.12862s2.1255.93659,2.1255,2.12862-.9352,2.12862-2.1255,2.12862-2.1254-.99077-2.1254-2.12862v0ZM29.8957,28.1985h-12.1963c-1.8241,0-3.308-1.4862-3.308-3.313s1.4839-3.3129,3.308-3.3129h.2937c.4946.0465.9352-.2477,1.0357-.7431.4946-2.1286,2.3728-3.607,4.5446-3.607c2.4733,0,4.4983,1.9274,4.6915,4.4043c0,.2941.1469.5418.3478.6889s.4947.2477.742.2013c.201-.0465.3942-.0465.541-.0465c1.5768,0,2.8675,1.2849,2.8675,2.8717s-1.283,2.8717-2.8675,2.8717v-.0154Zm12.9925-2.5234c-1.1826,0-2.1255-.9366-2.1255-2.1287s.9352-2.1286,2.1255-2.1286s2.1254.9366,2.1254,2.1286c0,1.1843-.9352,2.1287-2.1254,2.1287Z" transform="translate(-23.5,-23.5)" fill="#f7941d"/></g></svg>