<svg id="e3xALOcq2YM1" xmlns="http://www.w3.org/2000/svg" xmlns:xlink="http://www.w3.org/1999/xlink" viewBox="0 0 30 30" shape-rendering="geometricPrecision" text-rendering="geometricPrecision"><style><![CDATA[#e3xALOcq2YM4_ts {animation: e3xALOcq2YM4_ts__ts 5000ms linear infinite normal backwards}@keyframes e3xALOcq2YM4_ts__ts { 0% {transform: translate(293.318341px,18.286399px) scale(1,1)} 24% {transform: translate(293.318341px,18.286399px) scale(0.5,0.5)} 52% {transform: translate(293.318341px,18.286399px) scale(1,1)} 76% {transform: translate(293.318341px,18.286399px) scale(0.5,0.5)} 100% {transform: translate(293.318341px,18.286399px) scale(1,1)}} #e3xALOcq2YM4 {animation: e3xALOcq2YM4_f_p 5000ms linear infinite normal backwards}@keyframes e3xALOcq2YM4_f_p { 0% {fill: #ada7f8;animation-timing-function: cubic-bezier(0.42,0,0.58,1)} 10% {fill: #ada7f8} 100% {fill: #ada7f8}} #e3xALOcq2YM5_ts {animation: e3xALOcq2YM5_ts__ts 5000ms linear infinite normal backwards}@keyframes e3xALOcq2YM5_ts__ts { 0% {transform: translate(309.988656px,40.220472px) scale(0.882044,0.882044)} 24% {transform: translate(309.988656px,40.220472px) scale(1.243543,1.243543)} 52% {transform: translate(309.988656px,40.220472px) scale(0.882044,0.882044)} 76% {transform: translate(309.988656px,40.220472px) scale(1.243543,1.243543)} 100% {transform: translate(309.988656px,40.220472px) scale(0.882044,0.882044)}} #e3xALOcq2YM5 {animation: e3xALOcq2YM5_f_p 5000ms linear infinite normal backwards}@keyframes e3xALOcq2YM5_f_p { 0% {fill: #ada7f8;animation-timing-function: cubic-bezier(0.42,0,0.58,1)} 10% {fill: #ada7f8} 100% {fill: #ada7f8}} #e3xALOcq2YM6 {animation-name: e3xALOcq2YM6_c_o, e3xALOcq2YM6_f_p;animation-duration: 5000ms;animation-fill-mode: backwards;animation-timing-function: linear;animation-direction: normal;animation-iteration-count: infinite;}@keyframes e3xALOcq2YM6_c_o { 0% {opacity: 1} 10% {opacity: 1} 24% {opacity: 0} 46% {opacity: 1} 68% {opacity: 0} 100% {opacity: 1}}@keyframes e3xALOcq2YM6_f_p { 0% {fill: #ada7f8} 10% {fill: #ada7f8} 100% {fill: #ada7f8}}]]></style><g transform="matrix(.640492 0 0 0.640244-178.827826-2.574683)"><g id="e3xALOcq2YM4_ts" transform="translate(293.318341,18.286399) scale(1,1)"><path id="e3xALOcq2YM4" d="M285.45,12.71c-1.943414-1.696137-4.421095-2.655353-7-2.71c2.578905-.054647,5.056586-1.013863,7-2.71c2-2,2.29-5.57,2.31-7.29c0,1.72.29,5.29,2.3,7.29c1.943414,1.696137,4.421095,2.655353,7,2.71-2.578905.054647-5.056586,1.013863-7,2.71-2,2-2.29,5.57-2.3,7.29c0-1.71-.3-5.28-2.3-7.28Z" transform="translate(-287.755005,-10)" fill="#ada7f8"/></g><g id="e3xALOcq2YM5_ts" transform="translate(309.988656,40.220472) scale(0.882044,0.882044)"><path id="e3xALOcq2YM5" d="M299.21,52.9c-1.225822-1.058644-2.780827-1.659441-4.4-1.7c1.620498-.033879,3.177688-.635521,4.4-1.7c1.25-1.26,1.43-3.5,1.44-4.58c0,1.08.19,3.32,1.45,4.58c1.218352,1.064515,2.772458,1.666333,4.39,1.7-1.615712.042854-3.166813.643508-4.39,1.7-1.26,1.26-1.44,3.5-1.45,4.58c0-1.07-.19-3.32-1.44-4.57Z" transform="translate(-300.650009,-51.200001)" fill="#ada7f8"/></g><path id="e3xALOcq2YM6" d="M310,18.93c1.296793.065469,2.301792,1.158256,2.258686,2.455984s-1.118407,2.321416-2.416686,2.300685-2.340348-1.078226-2.342-2.376669c-.016146-.656437.246635-1.288971.723171-1.740727s1.122188-.680417,1.776829-.629273Z" transform="translate(3.568637-1.38552)" fill="#ada7f8"/></g></svg>