<svg width="374" height="313" viewBox="0 0 374 313" fill="none" xmlns="http://www.w3.org/2000/svg">
<path d="M173.876 312.991C269.905 312.991 347.751 308.454 347.751 302.858C347.751 297.262 269.905 292.726 173.876 292.726C77.8468 292.726 0 297.262 0 302.858C0 308.454 77.8468 312.991 173.876 312.991Z" fill="#F5F5F5"/>
<path d="M100.887 0H251.483C256.63 0 260.809 4.17119 260.809 9.30908V294.552C260.809 299.69 256.63 303.861 251.483 303.861H100.887C95.7397 303.861 91.5607 299.69 91.5607 294.552V9.30908C91.5607 4.17119 95.7397 0 100.887 0Z" fill="#2E353A"/>
<path d="M255.159 10.1863V293.147C255.159 295.474 253.285 297.282 250.954 297.282H101.084C98.9412 297.282 97.327 295.626 97.327 293.487V9.84617C97.327 7.99331 98.6901 6.37317 100.546 6.37317H138.014C139.072 6.37317 140.031 7.0624 140.426 8.05596L141.977 11.8691C142.372 12.8537 143.332 13.534 144.39 13.534H208.177C209.236 13.534 210.195 12.8806 210.59 11.896L212.141 8.06492C212.536 7.07135 213.495 6.37317 214.553 6.37317H251.483C253.527 6.37317 255.159 8.14548 255.159 10.1863Z" fill="#255EEA"/>
<path opacity="0.6" d="M115.128 17.7768H117.074V15.181H115.128V17.7768Z" fill="white"/>
<path opacity="0.6" d="M111.953 17.7678H113.899V14.3038H111.953V17.7678Z" fill="white"/>
<path opacity="0.6" d="M108.77 17.7678H110.716V13.4445H108.77V17.7678Z" fill="white"/>
<path opacity="0.6" d="M105.595 17.7678H107.541V12.5762H105.595V17.7678Z" fill="white"/>
<path opacity="0.6" d="M237.699 14.2321H236.542V16.8279H237.699V14.2321Z" fill="white"/>
<path opacity="0.6" d="M238.488 17.7678H247.698V13.2834H238.488V17.7678Z" fill="white"/>
<path opacity="0.6" d="M172.665 8.90628C173.864 8.90628 174.835 7.93646 174.835 6.74013C174.835 5.54379 173.864 4.57397 172.665 4.57397C171.466 4.57397 170.495 5.54379 170.495 6.74013C170.495 7.93646 171.466 8.90628 172.665 8.90628Z" fill="white"/>
<path opacity="0.6" d="M179.212 6.74013C179.212 7.50097 178.593 8.12754 177.822 8.12754C177.05 8.12754 176.432 7.50992 176.432 6.74013C176.432 5.97034 177.05 5.35272 177.822 5.35272C178.593 5.35272 179.212 5.97034 179.212 6.74013Z" fill="white"/>
<path opacity="0.2" d="M255.159 243.576V293.147C255.159 295.474 253.285 297.282 250.954 297.282H101.084C98.9412 297.282 97.327 295.626 97.327 293.487V243.576H255.159Z" fill="white"/>
<path opacity="0.2" d="M255 25V44.383C255 45.293 253.124 46 250.79 46H100.761C98.6159 46 97 45.3525 97 44.516V25H255Z" fill="white"/>
<path d="M114.662 148.883L176.18 97.2799L237.708 148.883L189.471 213.455L146.147 212.596L114.662 148.883Z" fill="#407BFF"/>
<path d="M114.662 148.883L176.18 97.2799L237.708 148.883L189.471 213.455L146.147 212.596L114.662 148.883Z" fill="#0E3595"/>
<path d="M217.925 80.2729H134.445C133.33 80.2729 132.427 81.1746 132.427 82.2869V205.972C132.427 207.085 133.33 207.986 134.445 207.986H217.925C219.04 207.986 219.943 207.085 219.943 205.972V82.2869C219.943 81.1746 219.04 80.2729 217.925 80.2729Z" fill="white"/>
<path opacity="0.2" d="M209.989 91.8019H142.39C142.033 91.8019 141.744 92.0904 141.744 92.4464V93.7532C141.744 94.1091 142.033 94.3977 142.39 94.3977H209.989C210.345 94.3977 210.635 94.1091 210.635 93.7532V92.4464C210.635 92.0904 210.345 91.8019 209.989 91.8019Z" fill="#B1B1B1"/>
<path opacity="0.2" d="M209.989 100.458H142.39C142.033 100.458 141.744 100.746 141.744 101.102V102.409C141.744 102.765 142.033 103.053 142.39 103.053H209.989C210.345 103.053 210.635 102.765 210.635 102.409V101.102C210.635 100.746 210.345 100.458 209.989 100.458Z" fill="#B1B1B1"/>
<path opacity="0.2" d="M209.989 109.113H142.39C142.033 109.113 141.744 109.402 141.744 109.758V111.065C141.744 111.42 142.033 111.709 142.39 111.709H209.989C210.345 111.709 210.635 111.42 210.635 111.065V109.758C210.635 109.402 210.345 109.113 209.989 109.113Z" fill="#B1B1B1"/>
<path opacity="0.2" d="M209.989 117.769H142.39C142.033 117.769 141.744 118.057 141.744 118.413V119.72C141.744 120.076 142.033 120.365 142.39 120.365H209.989C210.345 120.365 210.635 120.076 210.635 119.72V118.413C210.635 118.057 210.345 117.769 209.989 117.769Z" fill="#B1B1B1"/>
<path opacity="0.2" d="M209.989 126.416H142.39C142.033 126.416 141.744 126.704 141.744 127.06V128.367C141.744 128.723 142.033 129.011 142.39 129.011H209.989C210.345 129.011 210.635 128.723 210.635 128.367V127.06C210.635 126.704 210.345 126.416 209.989 126.416Z" fill="#B1B1B1"/>
<path opacity="0.2" d="M209.989 135.071H142.39C142.033 135.071 141.744 135.36 141.744 135.716V137.023C141.744 137.378 142.033 137.667 142.39 137.667H209.989C210.345 137.667 210.635 137.378 210.635 137.023V135.716C210.635 135.36 210.345 135.071 209.989 135.071Z" fill="#B1B1B1"/>
<path opacity="0.2" d="M209.989 143.727H142.39C142.033 143.727 141.744 144.015 141.744 144.371V145.678C141.744 146.034 142.033 146.323 142.39 146.323H209.989C210.345 146.323 210.635 146.034 210.635 145.678V144.371C210.635 144.015 210.345 143.727 209.989 143.727Z" fill="#B1B1B1"/>
<path opacity="0.2" d="M209.989 152.383H142.39C142.033 152.383 141.744 152.671 141.744 153.027V154.334C141.744 154.69 142.033 154.978 142.39 154.978H209.989C210.345 154.978 210.635 154.69 210.635 154.334V153.027C210.635 152.671 210.345 152.383 209.989 152.383Z" fill="#B1B1B1"/>
<path opacity="0.2" d="M209.989 161.038H142.39C142.033 161.038 141.744 161.327 141.744 161.683V162.99C141.744 163.345 142.033 163.634 142.39 163.634H209.989C210.345 163.634 210.635 163.345 210.635 162.99V161.683C210.635 161.327 210.345 161.038 209.989 161.038Z" fill="#B1B1B1"/>
<path d="M179.472 193.889L179.131 193.701C177.884 193.011 176.378 193.02 175.14 193.718L173.481 194.658L114.357 148.883V224.412C114.357 226.64 116.177 228.359 118.41 228.359H233.951C236.175 228.359 237.215 226.649 237.215 224.412V148.883L179.472 193.889Z" fill="#407BFF"/>
<path d="M179.115 194.006L178.774 193.818C177.528 193.129 176.021 193.138 174.783 193.836L173.124 194.776L114 149V224.529C114 226.758 115.82 228.476 118.053 228.476H233.594C235.818 228.476 236.858 226.767 236.858 224.529V149L179.115 194.006Z" fill="#7CA0FA"/>
<path opacity="0.2" d="M170.818 192.591L173.49 194.658L131.709 218.334L170.818 192.591Z" fill="black"/>
<path opacity="0.2" d="M225.117 219.229L179.418 193.933L181.525 192.286L225.117 219.229Z" fill="black"/>
<path d="M131.709 251.032H108.689V272.81H131.709V251.032Z" fill="#255EEA"/>
<path d="M159.707 251.032H136.686V272.81H159.707V251.032Z" fill="#255EEA"/>
<path d="M187.713 251.032H164.693V272.81H187.713V251.032Z" fill="#255EEA"/>
<path d="M215.71 251.032H192.69V272.81H215.71V251.032Z" fill="#255EEA"/>
<path d="M243.717 251.032H220.696V272.81H243.717V251.032Z" fill="#255EEA"/>
<path d="M244.093 288.179H221.073C219.423 288.179 218.087 286.845 218.087 285.198C218.087 283.551 219.423 282.217 221.073 282.217H244.093C245.743 282.217 247.079 283.551 247.079 285.198C247.079 286.845 245.743 288.179 244.093 288.179Z" fill="#255EEA"/>
<path d="M202.698 30.2366H152.775C152.364 30.2366 152.03 30.5692 152.03 30.9795V34.2645C152.03 34.6749 152.364 35.0075 152.775 35.0075H202.698C203.109 35.0075 203.442 34.6749 203.442 34.2645V30.9795C203.442 30.5692 203.109 30.2366 202.698 30.2366Z" fill="#255EEA"/>
<path d="M175 149C187.703 149 198 138.703 198 126C198 113.297 187.703 103 175 103C162.297 103 152 113.297 152 126C152 138.703 162.297 149 175 149Z" fill="#255EEA"/>
<path d="M162.31 128.397L168.481 133.931L186.897 118.069" stroke="white" stroke-width="7" stroke-linecap="round" stroke-linejoin="round"/>
</svg>
