<?xml version="1.0" encoding="UTF-8"?><svg xmlns="http://www.w3.org/2000/svg" xmlns:xlink="http://www.w3.org/1999/xlink" viewBox="0 0 1440 426.61"><defs><style>.cls-1{fill:url(#_ÂÁ_Ï_ÌÌ_È_____ËÂÌÚ_177);}.cls-1,.cls-2,.cls-3,.cls-4,.cls-5,.cls-6,.cls-7,.cls-8,.cls-9,.cls-10,.cls-11,.cls-12,.cls-13,.cls-14,.cls-15,.cls-16,.cls-17,.cls-18,.cls-19,.cls-20,.cls-21,.cls-22,.cls-23,.cls-24,.cls-25,.cls-26,.cls-27,.cls-28,.cls-29,.cls-30,.cls-31{fill-rule:evenodd;}.cls-2{fill:url(#_ÂÁ_Ï_ÌÌ_È_____ËÂÌÚ_150);}.cls-3{fill:url(#_ÂÁ_Ï_ÌÌ_È_____ËÂÌÚ_114);}.cls-4{fill:#ffa490;}.cls-4,.cls-5,.cls-26,.cls-27,.cls-28,.cls-29,.cls-30{mix-blend-mode:soft-light;}.cls-5{fill:#ecaba4;}.cls-6,.cls-7,.cls-9{fill:#1d0c27;}.cls-6,.cls-32,.cls-22,.cls-27,.cls-28{opacity:.2;}.cls-7{opacity:.37;}.cls-8{fill:#42183f;}.cls-8,.cls-9,.cls-19,.cls-20,.cls-21{opacity:.5;}.cls-33{opacity:.7;}.cls-32{fill:url(#_ÂÁ_Ï_ÌÌ_È_____ËÂÌÚ_39);mix-blend-mode:screen;}.cls-10{opacity:.36;}.cls-10,.cls-19,.cls-20,.cls-21,.cls-22,.cls-23,.cls-24,.cls-25{mix-blend-mode:multiply;}.cls-10,.cls-20,.cls-22{fill:#ae9aff;}.cls-11{fill:#291732;}.cls-12{fill:#4d254a;}.cls-13{fill:#9b364f;}.cls-14{fill:#55244f;}.cls-15{fill:#a45754;}.cls-16{fill:#ac5461;}.cls-17{fill:#a9576a;}.cls-18{fill:#66294f;}.cls-19,.cls-23{fill:#a693d6;}.cls-21{fill:#d6b0e2;}.cls-23,.cls-24{opacity:.3;}.cls-24{fill:#9a314f;}.cls-34{isolation:isolate;}.cls-25{fill:url(#radial-gradient);opacity:.4;}.cls-26{fill:#ececd6;}.cls-26,.cls-29{opacity:.32;}.cls-27{fill:#ecc7ab;}.cls-28{fill:#ecdedd;}.cls-29,.cls-30{fill:#c99395;}.cls-30{opacity:.48;}.cls-31{fill:url(#_ÂÁ_Ï_ÌÌ_È_____ËÂÌÚ_84);}</style><linearGradient id="_ÂÁ_Ï_ÌÌ_È_____ËÂÌÚ_39" x1="1155.86" y1="171.52" x2="1159.76" y2="171.52" gradientTransform="matrix(1, 0, 0, 1, 0, 0)" gradientUnits="userSpaceOnUse"><stop offset="0" stop-color="#070019"/><stop offset="1" stop-color="#1d6dae"/></linearGradient><linearGradient id="_ÂÁ_Ï_ÌÌ_È_____ËÂÌÚ_150" x1="720.39" y1="216.47" x2="720.39" y2="-3.77" gradientTransform="matrix(1, 0, 0, 1, 0, 0)" gradientUnits="userSpaceOnUse"><stop offset="0" stop-color="#ff726a"/><stop offset=".63" stop-color="#9f2754"/></linearGradient><radialGradient id="radial-gradient" cx="644.54" cy="175.57" fx="-66.39" fy="222.46" r="854.75" gradientTransform="matrix(1, 0, 0, 1, 0, 0)" gradientUnits="userSpaceOnUse"><stop offset=".24" stop-color="#fff"/><stop offset=".33" stop-color="#fcfbfa"/><stop offset=".42" stop-color="#f4f0ed"/><stop offset=".52" stop-color="#e7ddd7"/><stop offset=".62" stop-color="#d4c4b8"/><stop offset=".72" stop-color="#bda291"/><stop offset=".83" stop-color="#a07a61"/><stop offset=".93" stop-color="#7e4b28"/><stop offset="1" stop-color="#662900"/></radialGradient><linearGradient id="_ÂÁ_Ï_ÌÌ_È_____ËÂÌÚ_177" x1="720.39" y1="426.61" x2="720.39" y2="187.93" gradientTransform="matrix(1, 0, 0, 1, 0, 0)" gradientUnits="userSpaceOnUse"><stop offset="0" stop-color="#4f1d4f"/><stop offset=".38" stop-color="#652e4d"/><stop offset="1" stop-color="#7c3559"/></linearGradient><linearGradient id="_ÂÁ_Ï_ÌÌ_È_____ËÂÌÚ_84" x1="837.74" y1="249.31" x2="837.74" y2="174.91" gradientTransform="matrix(1, 0, 0, 1, 0, 0)" gradientUnits="userSpaceOnUse"><stop offset="0" stop-color="#5c214a"/><stop offset="1" stop-color="#4f1d4f"/></linearGradient><linearGradient id="_ÂÁ_Ï_ÌÌ_È_____ËÂÌÚ_114" x1="1266.15" y1="213.83" x2="1266.15" y2="150.01" gradientTransform="matrix(1, 0, 0, 1, 0, 0)" gradientUnits="userSpaceOnUse"><stop offset="0" stop-color="#733152"/><stop offset="1" stop-color="#4f1d4f"/></linearGradient></defs><g class="cls-34"><g id="Layer_1"><g class="cls-33"><path class="cls-32" d="M1155.86,171.52h3.89c-2.51,.03-3.89,0-3.89,0Z"/><g><polygon class="cls-2" points="1437.88 1.62 1343.6 29.61 1337.75 59.39 1337.75 31.97 1316.07 26.89 1277.19 56.7 1267.83 71.29 1264.46 73.86 1246.88 90.38 1202.73 85.14 1179.16 87.01 1158.21 100.85 1154.47 100.85 1128.65 115.82 1136.47 100.13 1132.86 94.39 1112.93 95.79 1068.6 119.47 1008.98 172.61 934.84 161.36 916.51 165.1 916.51 160.24 898.55 145.27 873.11 150.51 869.74 148.64 851.59 162.3 849.68 161.98 859.64 151.45 856.74 136.2 854.49 133.4 801.74 167.91 798.37 160.61 741.69 146.58 733.83 152.76 722.33 168.75 722.33 161.46 717.27 159.21 711.74 164.26 680.23 197.09 636.46 175.77 626.36 180.82 593.81 185.87 565.18 197.09 519.91 187.93 432.59 143.78 416.65 143.03 411.04 146.02 324.97 119.62 299.86 119.62 299.86 124.7 327.79 200.46 318.25 200.46 308.71 194.29 235.19 174.65 177.38 125.26 168.4 124.7 159.42 153.88 159.42 165.67 102.22 163.46 102.22 171.96 95.81 174.18 67.14 61.65 59.03 53.85 4.42 29.94 -1.41 39.11 -1.41 215.69 119.34 212.25 1304.14 200.46 1442.19 198.09 1442.19 0 1437.88 1.62"/><polygon class="cls-4" points="1183.65 197.6 1223.12 157.06 1222 163.25 1201.23 194.94 1183.65 197.6"/><polygon class="cls-4" points="1154.47 100.85 1108.07 159.76 1094.53 189.77 1158.21 100.85 1154.47 100.85"/><polygon class="cls-4" points="1136.47 100.13 1128.65 115.82 1103.83 159.68 1054.29 198.97 1026 198.97 1112.93 95.79 1132.86 94.39 1136.47 100.13"/><polygon class="cls-4" points="1092.36 197.6 1113.78 168.28 1144.07 133.49 1127.9 183.63 1103.83 198.03 1092.36 197.6"/><polygon class="cls-4" points="1008.98 172.61 995.61 188.61 938.29 188.61 924.74 180.95 934.84 161.36 1008.98 172.61"/><polygon class="cls-4" points="916.51 160.24 906.13 166.23 832.18 194.94 823.64 192.04 898.55 145.27 916.51 160.24"/><polygon class="cls-4" points="873.11 150.51 851.58 165.59 826.33 178.27 851.59 162.3 869.74 148.64 873.11 150.51"/><polygon class="cls-4" points="854.49 133.4 846.47 142.13 817.03 171.72 829.35 162.77 798.63 190.92 792.62 200.87 859.64 151.45 856.74 136.2 854.49 133.4"/><polygon class="cls-4" points="816.23 202.71 855.4 188.96 887.89 189.77 959.89 202.44 816.23 202.71"/><polygon class="cls-4" points="798.37 160.61 798.37 166.23 724.93 198.03 711.71 198.97 729.38 180.63 727.66 174.99 711.71 190.92 733.83 152.76 741.69 146.58 798.37 160.61"/><polygon class="cls-4" points="717.27 159.21 682.2 200.46 683.42 206.64 695.67 206.51 722.33 161.46 717.27 159.21"/><path class="cls-4" d="M636.46,175.77l-3.18,7.42s21.89,18.99,21.98,19.26c.09,.26,16.6,0,16.6,0l8.37-5.35-43.78-21.33Z"/><polygon class="cls-4" points="626.36 180.82 624.3 182.92 636.78 191.35 593.81 185.87 626.36 180.82"/><polygon class="cls-4" points="432.59 143.78 519.91 187.93 552.58 200.87 525.89 193.33 542.28 202.71 509.81 205.33 416.65 143.03 432.59 143.78"/><polygon class="cls-4" points="505.36 208.41 421.02 152.99 463.88 208.41 505.36 208.41"/><polygon class="cls-4" points="324.97 119.62 411.04 146.02 456.45 208.41 399.46 208.41 353.22 163.98 382.01 209.63 299.86 119.62 324.97 119.62"/><polygon class="cls-4" points="177.38 125.26 235.19 174.65 263.67 205.33 240.24 186.06 257.92 210.87 213.86 213.04 168.4 124.7 177.38 125.26"/><polygon class="cls-4" points="174.29 146.23 197.3 194.29 179.34 173.62 174.29 146.23"/><polygon class="cls-4" points="235.19 174.65 285.42 197.37 308.71 194.29 235.19 174.65"/><polygon class="cls-4" points="159.42 165.67 185.8 202.71 133.74 208.41 102.22 163.46 159.42 165.67"/><polygon class="cls-4" points="1316.07 26.89 1279.71 57.4 1240.13 142.69 1247.59 134.11 1225.18 178.27 1232.58 178.27 1325.72 87.69 1337.75 31.97 1316.07 26.89"/><polygon class="cls-4" points="1343.6 29.61 1352.86 55.14 1314.09 112.47 1259.11 159.8 1221.82 201.87 1307.63 184.68 1325.72 156.58 1437.88 1.62 1343.6 29.61"/><polygon class="cls-4" points="1442.19 103.66 1395 142.69 1442.19 85.19 1442.19 0 1437.88 1.62 1372.22 100.85 1347.52 157.06 1369.6 186.46 1442.19 196.53 1442.19 103.66"/><polygon class="cls-4" points="1347.02 167.47 1307.63 184.68 1240.13 201.1 1370.34 199.33 1347.02 167.47"/><polygon class="cls-4" points="105.94 212.63 67.14 61.65 59.03 53.85 4.42 29.94 -1.41 39.11 -1.41 53.64 16.59 193.77 59.03 213.04 45.77 136.31 52.23 138.85 76.3 197.92 79.17 193.77 62.89 124.82 97.57 212.63 105.94 212.63"/><polygon class="cls-4" points="-1.41 69.28 -1.41 85.64 11.11 175.24 -1.41 69.28"/><polygon class="cls-4" points="8.17 197.37 -1.41 197.68 -1.41 202.01 10.83 208.41 51.49 213.04 8.17 197.37"/><polygon class="cls-4" points="1202.73 85.14 1179.16 87.01 1178.67 136.88 1178.6 157.39 1166.84 192.6 1193.24 183.63 1227.42 149.95 1246.88 90.38 1202.73 85.14"/><polygon class="cls-24" points="1267.83 71.29 1227.42 149.95 1246.88 90.38 1267.83 71.29"/><polygon class="cls-24" points="1225.18 178.27 1202.81 201.47 1201.23 194.94 1222 163.25 1223.12 157.06 1227.42 149.95 1240.13 142.69 1247.59 134.11 1225.18 178.27"/><polygon class="cls-24" points="1166.84 192.6 1162.6 201.87 1114.11 201.87 1127.9 183.63 1144.07 133.49 1127.25 152.58 1124.18 148.36 1158.21 100.85 1179.16 87.01 1178.93 109.94 1147.62 150.73 1178.6 114.78 1178.6 157.39 1166.84 192.6"/><polygon class="cls-24" points="1352.86 55.14 1330.1 88.8 1337.75 59.39 1343.6 29.61 1352.86 55.14"/><polygon class="cls-24" points="1347.52 157.06 1341.02 170.09 1308.97 182.59 1341.48 134.11 1372.22 100.85 1347.52 157.06"/><polygon class="cls-24" points="1383.69 83.52 1368.44 97.55 1404.13 48.25 1412.72 39.64 1383.69 83.52"/><polygon class="cls-24" points="1369.6 186.46 1370.34 199.33 1354.93 178.27 1357.31 170.09 1369.6 186.46"/><polygon class="cls-24" points="1442.19 98.66 1427.05 103.64 1395 142.69 1442.19 103.66 1442.19 98.66"/><polygon class="cls-24" points="1103.83 159.68 1108.07 159.76 1094.53 189.77 1105.94 173.84 1112.75 170.09 1092.36 197.6 1090.6 201.87 1054.52 202.94 1054.29 198.97 1103.83 159.68"/><polygon class="cls-24" points="1026 198.97 1009.8 203.39 980.9 203.68 995.61 188.61 1008.98 172.61 1068.6 119.47 1046.95 143.98 1112.93 95.79 1026 198.97"/><polygon class="cls-24" points="924.74 180.95 903.03 191.33 887.89 189.77 855.4 188.96 916.51 165.1 934.84 161.36 924.74 180.95"/><polygon class="cls-24" points="873.11 150.51 851.58 165.59 787.69 205.6 806.14 205.42 823.64 192.04 898.55 145.27 873.11 150.51"/><polygon class="cls-24" points="932.03 197.54 938.29 188.61 944.53 188.39 938.28 198.64 932.03 197.54"/><polygon class="cls-24" points="801.74 167.91 734.25 206.13 784.59 205.6 798.63 190.92 829.35 162.77 817.03 171.72 854.49 133.4 801.74 167.91"/><polygon class="cls-24" points="711.71 190.92 701.41 206.46 695.67 206.51 722.33 168.75 733.83 152.76 711.71 190.92"/><polygon class="cls-24" points="711.71 198.97 707.49 206.13 702.26 206.64 729.38 180.63 711.71 198.97"/><polygon class="cls-24" points="633.28 183.18 628.85 185.99 624.3 182.92 626.36 180.82 636.46 175.77 633.28 183.18"/><polygon class="cls-24" points="636.78 191.35 643.38 206.64 653.12 206.94 655.26 202.44 638.33 187.57 634.25 189.64 636.78 191.35"/><polygon class="cls-24" points="593.81 185.87 565.18 197.09 556.68 200.87 580.9 207.66 603.77 207.66 607.16 187.57 593.81 185.87"/><polygon class="cls-24" points="509.81 205.33 512.85 208.41 505.36 208.41 421.02 152.99 418.23 154.65 411.04 146.02 416.65 143.03 509.81 205.33"/><polygon class="cls-24" points="299.86 119.62 382.01 209.63 352.7 210.5 325.84 183.74 334.67 210.5 330.02 210.5 327.79 200.46 299.86 124.7 299.86 119.62"/><polygon class="cls-24" points="371.19 180.7 368.91 189.64 382.01 209.63 384.12 195.17 371.19 180.7"/><polygon class="cls-24" points="440.89 187.03 442.99 181.39 463.88 208.41 456.45 208.41 440.89 187.03"/><polygon class="cls-24" points="179.34 173.62 179.34 193.64 159.42 165.67 159.42 153.88 168.4 124.7 183.63 154.29 180.91 160.05 174.29 146.23 179.34 173.62"/><polygon class="cls-24" points="263.67 205.33 273.41 210.71 285.42 197.37 235.19 174.65 263.67 205.33"/><polygon class="cls-24" points="185.8 202.71 186.22 211.58 200.74 211.44 197.3 194.29 185.8 202.71"/><polygon class="cls-24" points="133.74 208.41 126.38 212.18 113.21 212.18 102.22 171.96 102.22 163.46 133.74 208.41"/><polygon class="cls-24" points="79.17 193.77 79.17 212.18 97.57 212.63 62.89 124.82 79.17 193.77"/><polygon class="cls-24" points="11.11 175.24 -1.41 85.64 -1.41 160.04 -.14 168.87 -1.41 176.48 -1.41 197.68 8.17 197.37 16.59 199.93 16.59 193.77 11.11 175.24"/><polygon class="cls-24" points="-1.41 202.01 -1.41 215.85 8.45 215.41 10.83 208.41 -1.41 202.01"/><polygon class="cls-28" points="1314.09 112.47 1358.98 110.62 1399.58 54.53 1352.86 55.14 1314.09 112.47"/><polygon class="cls-28" points="1322.32 89.86 1261.37 98.92 1246.49 127.61 1296.28 115.49 1322.32 89.86"/></g><polygon class="cls-25" points="1437.88 1.62 1343.6 29.61 1337.75 59.39 1337.75 31.97 1316.07 26.89 1277.19 56.7 1267.83 71.29 1264.46 73.86 1246.88 90.38 1202.73 85.14 1179.16 87.01 1158.21 100.85 1154.47 100.85 1128.65 115.82 1136.47 100.13 1132.86 94.39 1112.93 95.79 1068.6 119.47 1008.98 172.61 934.84 161.36 916.51 165.1 916.51 160.24 898.55 145.27 873.11 150.51 869.74 148.64 851.59 162.3 849.68 161.98 859.64 151.45 856.74 136.2 854.49 133.4 801.74 167.91 798.37 160.61 741.69 146.58 733.83 152.76 722.33 168.75 722.33 161.46 717.27 159.21 711.74 164.26 680.23 197.09 636.46 175.77 626.36 180.82 593.81 185.87 565.18 197.09 519.91 187.93 432.59 143.78 416.65 143.03 411.04 146.02 324.97 119.62 299.86 119.62 299.86 124.7 327.79 200.46 318.25 200.46 308.71 194.29 235.19 174.65 177.38 125.26 168.4 124.7 159.42 153.88 159.42 165.67 102.22 163.46 102.22 171.96 96.04 174.1 67.14 61.65 59.03 53.85 4.42 29.94 -1.41 39.11 -1.41 215.85 8.45 215.41 119.34 212.25 126.36 212.18 126.38 212.18 126.38 212.18 186.22 211.58 200.74 211.44 212.97 211.32 213.86 213.04 257.92 210.87 329.94 210.15 330.02 210.5 334.67 210.5 334.54 210.11 352.12 209.93 352.7 210.5 382.01 209.63 382.01 209.63 505.34 208.41 512.85 208.41 512.78 208.33 580.9 207.66 580.9 207.66 603.77 207.66 603.81 207.43 653.12 206.94 653.12 206.94 653.12 206.94 683.42 206.64 683.42 206.64 695.67 206.51 701.41 206.46 701.41 206.46 702.46 206.45 702.26 206.64 704.42 206.43 734.25 206.13 734.25 206.13 734.42 206.13 804.04 205.44 806.14 205.42 980.9 203.68 980.9 203.68 1002.61 203.46 1054.52 202.94 1054.52 202.94 1162.59 201.87 1162.6 201.87 1162.6 201.87 1202.81 201.47 1222.35 201.27 1221.82 201.87 1224.92 201.25 1240.13 201.1 1240.14 201.1 1304.14 200.46 1370.32 199.33 1370.34 199.33 1370.34 199.33 1442.19 198.09 1442.19 0 1437.88 1.62"/><g><polygon class="cls-16" points="-1.41 210.52 -1.41 306.7 1442.19 251.2 1442.19 198.01 -1.41 210.52"/><g><polygon class="cls-21" points="-1.41 233.27 641.78 237.91 -1.41 229.08 -1.41 233.27"/><polygon class="cls-21" points="1117.42 214.83 -1.41 219.85 -1.41 227.34 26.94 222.63 1117.42 214.83"/><polygon class="cls-21" points="-1.41 279.41 -1.41 284.22 686.94 242.03 -1.41 279.41"/></g><polygon class="cls-13" points="159.42 270.98 171.52 263.96 177.97 263.44 182.08 268.96 188.04 266.43 189.17 260.68 219.66 251.38 223.77 262.23 227.89 260.82 229.57 263.96 248.95 263.96 250.47 257.6 254.45 257.6 254.45 265.51 159.42 270.98"/><polygon class="cls-13" points="39.89 229.65 42.87 227.16 58.4 226.37 59.06 228.01 66.45 229.38 73.73 214.83 80.23 216.47 77.67 226.37 80.23 226.37 83.53 214.83 91.56 213.04 89.83 227.16 91.56 228.37 93.95 226.37 121.82 230.77 39.89 229.65"/><polygon class="cls-16" points="1207.59 205.17 1225.18 190.52 1246.49 187.96 1249.3 196.36 1256.48 196 1261.13 192.6 1276.84 192.17 1284.4 197.6 1294.4 165.32 1301.22 161.36 1297.39 194.94 1301.22 195.06 1307.87 191.98 1327.13 199.74 1207.59 205.17"/></g><polygon class="cls-1" points="-1.41 291.21 -1.41 422.25 1442.19 426.61 1442.19 191.47 -1.41 291.21"/><g><polygon class="cls-29" points="1442.19 254.95 1404.58 254.56 1440.2 264.06 1442.19 264.06 1442.19 254.95"/><polygon class="cls-29" points="963.46 261.63 1220.02 264.7 1230.32 261.63 1109.39 258.34 1114.18 256.07 1203.7 257.77 1219.38 252.5 916.83 249.08 855.56 252.5 1083.73 256.63 1079.5 257.53 973.49 256.63 963.46 261.63"/><polygon class="cls-19" points="1050.38 262.67 1033.31 272.49 1243.87 272.8 1257.1 267.21 1050.38 262.67"/><polygon class="cls-29" points="615.04 265.95 841.3 264.7 836.86 267.21 696.94 267.21 676.33 271.63 542.88 272.16 615.04 265.95"/><polygon class="cls-19" points="720.07 272.8 728.22 268.43 975.68 270.62 957.05 272.8 720.07 272.8"/><polygon class="cls-19" points="761.24 260.52 794.95 255.8 960.12 256.92 936.53 262.48 761.24 260.52"/><polygon class="cls-30" points="963.46 261.63 1351.02 267.21 1431.06 261.63 973.49 256.63 963.46 261.63"/><polygon class="cls-12" points="1431.13 219.25 1442.19 220.66 1442.19 213.6 1351.08 215.82 1341.86 216.9 1045.27 224.59 1253.08 222.33 1431.13 219.25"/><polygon class="cls-12" points="1442.19 226.13 765.52 259.93 951.33 252.07 1107.3 252.07 1183.32 262.6 700.27 289.21 -1.41 305.65 -1.41 305.98 724.55 293.12 1442.19 282.16 1442.19 276.41 978.25 286.39 873.46 283.26 1210.34 266.56 1121.19 243.48 1442.19 235.33 1442.19 226.13"/><polygon class="cls-12" points="1442.19 243.68 1281.7 239.4 1274.59 239.58 1442.19 244.77 1442.19 243.68"/><polygon class="cls-12" points="1442.19 267.7 1206.02 266.56 1209.3 267.34 1442.19 268.09 1442.19 267.7"/><polygon class="cls-8" points="1442.19 276.41 1363.71 278.1 1363.71 283.36 1442.19 282.16 1442.19 276.41"/><polygon class="cls-27" points="1442.19 244.77 1274.59 239.58 1121.19 243.48 1151.27 251.27 1400.56 248.2 1409.3 249.08 1194.93 256.01 1206.02 263.89 1442.19 258.09 1442.19 244.77"/><polygon class="cls-7" points="873.46 283.26 870.29 290.89 836.35 290.89 842.47 281.63 927.73 276.68 924.14 280.75 873.46 283.26"/><polygon class="cls-7" points="796.89 292.01 796.89 283.89 781.59 284.73 783.41 292.22 796.89 292.01"/><polygon class="cls-7" points="1442.19 213.6 1360.65 215.58 1358.48 220.51 1431.13 219.25 1442.19 220.66 1442.19 213.6"/><polygon class="cls-7" points="1121.18 243.48 1118.01 253.56 1107.3 252.07 1079.08 252.07 1077.11 244.37 1172.23 239.61 1172.23 242.18 1121.18 243.48"/><polygon class="cls-7" points="1183.32 262.6 1183.32 267.9 1195.9 267.25 1195.9 262.83 1165.59 254.98 1163.62 259.87 1183.32 262.6"/></g><polygon class="cls-26" points="1442.19 285.91 1120.22 292.39 1123.9 301.76 1270.03 317.97 1129.93 317.13 1006.12 317.13 1303.99 326.65 1442.19 326.64 1442.19 285.91"/><polygon class="cls-26" points="1442.19 333.21 548.63 321.18 270.26 352.63 1442.19 352.62 1442.19 333.21"/><path class="cls-26" d="M370.87,319.85l191.58-10.24s145.51,5.23,146.62,5.44c1.12,.21-166.55,4.81-166.55,4.81l-167.85,6.53-3.8-6.53Z"/><polygon class="cls-9" points="609.07 311.3 612.21 305.49 672.71 303.46 669.17 313.21 609.07 311.3"/><polygon class="cls-9" points="682.02 313.39 689.3 302.9 702.03 302.11 692.76 314.38 682.02 313.39"/><polygon class="cls-9" points="709.07 315.05 709.07 323.77 715.13 323.77 725.63 301.68 702.03 302.11 697.12 313.39 709.07 315.05"/><polygon class="cls-9" points="763.29 300.42 746.86 323.77 753.12 323.77 768.55 300.42 763.29 300.42"/><polygon class="cls-26" points="764.52 323.77 796.34 317.13 941.11 317.13 1069.96 323.77 764.52 323.77"/><polygon class="cls-9" points="1069.96 323.77 1072.85 328.24 1080.99 328.35 1075.89 319.36 1031.66 317.95 1031.66 321.8 1069.96 323.77"/><polygon class="cls-9" points="1088.48 319.76 1089.27 328.46 1104.81 328.67 1103.24 320.45 1088.48 319.76"/><polygon class="cls-9" points="548.63 321.18 542.52 319.85 593.6 318.44 592.45 321.89 548.63 321.18"/><polygon class="cls-9" points="1145.42 317.13 1149.33 304.58 1198.62 310.05 1193.67 317.13 1145.42 317.13"/><polygon class="cls-9" points="1198.62 317.54 1204.73 310.86 1218.52 312.26 1215.12 317.64 1198.62 317.54"/><polygon class="cls-26" points="-1.41 342.61 -1.41 353.74 201.55 353.73 386.31 336.56 -1.41 342.61"/><polygon class="cls-9" points="387.7 339.36 386.31 335.46 310.08 335.46 374.67 326.38 454.61 323.48 448.94 332.58 387.7 339.36"/><polygon class="cls-9" points="464.31 330.71 467.58 322.5 486.49 321.89 482.5 328.65 464.31 330.71"/><polygon class="cls-29" points="1442.19 321.18 1331.94 321.18 1325.34 320.45 1442.19 317.69 1442.19 314.49 1266.15 317.95 1227.05 317.95 1303.99 326.65 1442.19 326.64 1442.19 321.18"/><polygon class="cls-23" points="1442.19 318.09 1405.47 318.55 1411.11 321.18 1442.19 321.18 1442.19 318.09"/><polygon class="cls-23" points="1442.19 310.06 1336.98 309.11 1335.82 307 1442.19 306.19 1442.19 304.71 1298.73 305.92 1324.03 316.81 1442.19 314.83 1442.19 310.06"/><polygon class="cls-29" points="1135.78 329.09 1171.4 341.56 1358.48 341.56 1331.35 331.72 1135.78 329.09"/><polygon class="cls-23" points="1442.19 338.98 1295.06 341.56 1306.52 345.7 1442.19 345.7 1442.19 338.98"/><polygon class="cls-19" points="1030.99 352.63 1174.21 342.03 1199.71 341.92 1299.21 341.49 1177.6 344.63 1194.2 349.7 1375.91 349.15 1395.39 352.41 1030.99 352.63"/><polygon class="cls-29" points="694.66 338.36 951.23 342.41 961.52 338.36 840.59 334.05 845.38 331.07 934.9 333.3 950.58 326.38 648.03 321.89 586.76 326.38 814.94 331.8 810.71 332.98 704.69 331.8 694.66 338.36"/><polygon class="cls-19" points="781.59 339.73 764.52 352.63 975.07 353.04 988.31 345.7 781.59 339.73"/><polygon class="cls-29" points="992.92 326.65 988.31 335.96 1129.09 335.32 1124.67 329.09 992.92 326.65"/><polygon class="cls-29" points="346.25 344.05 572.5 342.41 568.06 345.7 428.14 345.7 407.53 351.5 274.08 352.2 346.25 344.05"/><polygon class="cls-19" points="451.27 353.04 459.42 347.3 706.88 350.17 688.25 353.04 451.27 353.04"/><polygon class="cls-19" points="404.29 394.86 412.84 389.12 672.71 391.99 653.14 394.86 404.29 394.86"/><polygon class="cls-26" points="43.6 399.89 75.43 393.25 220.19 393.25 349.05 399.89 43.6 399.89"/><polygon class="cls-19" points="783.76 404.41 796.8 398.68 1192.86 401.54 1163.04 404.41 783.76 404.41"/><polygon class="cls-19" points="492.44 336.91 526.15 330.71 691.32 332.18 667.73 339.48 492.44 336.91"/><polygon class="cls-29" points="9.51 350.17 -1.41 351.42 -1.41 352.65 204.79 353.04 279.16 345.42 9.51 350.17"/><polygon class="cls-29" points="41.08 404.64 30.16 405.89 30.16 407.12 236.36 407.51 310.73 399.89 41.08 404.64"/><polygon class="cls-30" points="1442.19 320.86 1026.21 317.13 1231.45 324.21 1442.19 326.29 1442.19 320.86"/><polygon class="cls-30" points="1442.19 391.14 1026.21 387.41 1231.45 394.49 1442.19 396.57 1442.19 391.14"/><polygon class="cls-30" points="694.66 338.36 1082.23 345.7 1162.26 338.36 704.69 331.8 694.66 338.36"/><polygon class="cls-15" points="703.78 347.3 706.88 346.39 727.45 346.85 703.78 347.3"/><polygon class="cls-15" points="161.13 346.09 164.24 345.17 184.81 345.63 161.13 346.09"/><polygon class="cls-15" points="722.99 348 723.76 347.3 728.01 347.65 728.34 348 722.99 348"/><polygon class="cls-15" points="724.37 331.12 724.89 329.66 728.82 329.66 724.37 331.12"/><polygon class="cls-15" points="683.04 338.75 677.95 339.73 678.46 339.24 681.85 338.42 683.04 338.75"/><polygon class="cls-15" points="220.68 347.33 215.59 348.31 216.1 347.82 219.49 347 220.68 347.33"/><polygon class="cls-15" points="542.52 338.65 544.92 338.65 543.72 339.48 542.52 338.65"/><polygon class="cls-15" points="579.78 345.29 590.91 345.97 585.35 345.97 579.78 345.29"/><polygon class="cls-15" points="1227.05 343.35 1241.16 342.99 1236.75 344.41 1227.05 343.35"/><polygon class="cls-15" points="1219.43 345.7 1213.19 345.7 1209.68 346.58 1219.43 345.7"/><polygon class="cls-15" points="1374.14 336.91 1381.86 335.32 1398.3 336.11 1374.14 336.91"/><polygon class="cls-15" points="1365.85 341.49 1369.49 341.56 1373.27 342.99 1365.85 341.49"/><polygon class="cls-15" points="1021.92 339.53 1026.87 337.97 1040.07 337.97 1021.92 339.53"/><polygon class="cls-15" points="1413.25 323.39 1415.19 322.67 1420.47 323.03 1413.25 323.39"/><g><polygon class="cls-31" points="866.46 244.16 863.26 230.33 841.13 218.94 836.19 221.38 823.09 244.16 819.88 246.6 824.54 193.72 819.88 191.55 821.73 179.43 819.88 174.91 804.94 176.27 783.6 249.31 891.88 249.31 880.82 243.53 866.46 244.16"/><polygon class="cls-5" points="819.88 174.91 816.97 195.75 819.88 191.55 821.73 179.43 819.88 174.91"/><polygon class="cls-5" points="824.54 193.72 815.81 201.58 800.24 249.31 819.35 249.31 824.54 193.72"/><polygon class="cls-17" points="836.19 221.38 836.19 229.79 854.52 238.11 863.26 230.33 841.13 218.94 836.19 221.38"/><polygon class="cls-17" points="819.88 191.55 816.97 195.75 815.81 201.58 824.54 193.72 819.88 191.55"/><polygon class="cls-5" points="854.52 238.11 854.52 249.31 857.43 249.31 866.46 244.16 863.26 230.33 854.52 238.11"/><polygon class="cls-10" points="819.88 174.91 815.81 201.58 809.43 221.12 805.91 221.51 812.9 190.91 809.99 189.79 795.43 230.96 787.88 234.67 804.94 176.27 819.88 174.91"/><polygon class="cls-10" points="854.52 238.11 854.52 244.43 849.72 244.43 849.72 238.11 842.88 236.39 832.3 246.16 824.54 246.16 836.19 229.79 854.52 238.11"/></g><g><polygon class="cls-3" points="1295.06 213.83 1261.68 152.54 1245.77 150.01 1240.72 152.54 1250.04 204.88 1240.72 210.3 1237.23 213.83 1295.06 213.83"/><polygon class="cls-5" points="1245.77 150.01 1257.8 185.74 1263.62 186.57 1254.7 161.07 1256.93 161.07 1273.96 211.39 1295.06 212.2 1261.68 152.54 1245.77 150.01"/><polygon class="cls-5" points="1250.04 204.88 1266.15 212.2 1241.86 209.64 1250.04 204.88"/><polygon class="cls-22" points="1257.8 185.74 1252.24 205.88 1257.8 207.77 1263.62 186.57 1257.8 185.74"/><polygon class="cls-22" points="1245.77 150.01 1254 174.46 1247.17 188.76 1240.72 152.54 1245.77 150.01"/></g><polygon class="cls-11" points="514.96 308.75 615.09 295.47 533.32 308.13 514.96 308.75"/><g><polygon class="cls-18" points="-1.41 294.49 103.56 287.23 99.67 286.58 76.83 284.36 60.57 282.99 57.44 286.58 57.44 241.46 40.98 237.04 37.78 239.97 36.04 269.11 33 267.85 36.04 223.5 30.51 220.58 10.71 224.93 -1.22 290.31 -1.41 290.24 -1.41 294.49"/><polygon class="cls-5" points="30.51 220.58 24.21 270.74 21.68 287.64 24.21 291.11 30.51 292.28 36.04 223.5 30.51 220.58"/><polygon class="cls-5" points="40.98 237.04 37.11 292.28 57.44 290.42 57.44 241.46 40.98 237.04"/><polygon class="cls-5" points="60.57 282.99 61.85 289.72 103.56 287.23 60.57 282.99"/></g><g><polygon class="cls-14" points="1442.19 211.8 1422.61 205.36 1408.78 207.36 1399.47 209.4 1386.95 183.68 1342.47 172.07 1322.67 180.74 1324.75 201.28 1320.58 202.53 1322.93 217.07 1442.19 213.71 1442.19 211.8"/><polygon class="cls-5" points="1324.75 201.28 1327.47 214.16 1324.75 215.64 1320.58 202.53 1324.75 201.28"/><polygon class="cls-5" points="1346.59 214.16 1342.47 172.07 1386.95 183.68 1402.28 215.19 1378.99 215.73 1368.61 190.81 1367.06 189.96 1373.08 215.73 1346.59 214.16"/><polygon class="cls-5" points="1442.19 211.8 1422.61 205.36 1428.48 212.74 1442.19 213.33 1442.19 211.8"/><polygon class="cls-20" points="1342.47 172.07 1346.13 209.46 1338.05 206.64 1331.06 183.05 1328.62 181.92 1331.06 212.2 1328.62 213.56 1322.67 180.74 1342.47 172.07"/></g><polygon class="cls-6" points="512.19 270.43 783.6 249.31 891.88 249.31 512.19 270.43"/></g></g></g></svg>