<svg cache-id="73b33fbc2fee4c13a2cbd6a6759ab884" id="eLdtJHzNj5K1" xmlns="http://www.w3.org/2000/svg" xmlns:xlink="http://www.w3.org/1999/xlink" viewBox="0 0 54 40" shape-rendering="geometricPrecision" text-rendering="geometricPrecision"><style><![CDATA[#eLdtJHzNj5K2_ts {animation: eLdtJHzNj5K2_ts__ts 3000ms linear 1 normal forwards}@keyframes eLdtJHzNj5K2_ts__ts { 0% {transform: translate(4.618721px,27.1592px) scale(0,0)} 46.666667% {transform: translate(4.618721px,27.1592px) scale(0,0)} 63.333333% {transform: translate(4.618721px,27.1592px) scale(0,0)} 80% {transform: translate(4.618721px,27.1592px) scale(1,1)} 100% {transform: translate(4.618721px,27.1592px) scale(1,1)}} #eLdtJHzNj5K5_ts {animation: eLdtJHzNj5K5_ts__ts 3000ms linear 1 normal forwards}@keyframes eLdtJHzNj5K5_ts__ts { 0% {transform: translate(49.5356px,27.1592px) scale(0,0)} 46.666667% {transform: translate(49.5356px,27.1592px) scale(0,0)} 63.333333% {transform: translate(49.5356px,27.1592px) scale(0,0)} 80% {transform: translate(49.5356px,27.1592px) scale(1,1)} 100% {transform: translate(49.5356px,27.1592px) scale(1,1)}} #eLdtJHzNj5K8_ts {animation: eLdtJHzNj5K8_ts__ts 3000ms linear 1 normal forwards}@keyframes eLdtJHzNj5K8_ts__ts { 0% {transform: translate(16.361336px,33.557805px) scale(0,0)} 13.333333% {transform: translate(16.361336px,33.557805px) scale(0,0)} 30% {transform: translate(16.361336px,33.557805px) scale(0,0)} 46.666667% {transform: translate(16.361336px,33.557805px) scale(1,1)} 100% {transform: translate(16.361336px,33.557805px) scale(1,1)}} #eLdtJHzNj5K11_ts {animation: eLdtJHzNj5K11_ts__ts 3000ms linear 1 normal forwards}@keyframes eLdtJHzNj5K11_ts__ts { 0% {transform: translate(38.730851px,33.724201px) scale(0,0)} 13.333333% {transform: translate(38.730851px,33.724201px) scale(0,0)} 30% {transform: translate(38.730851px,33.724201px) scale(0,0)} 46.666667% {transform: translate(38.730851px,33.724201px) scale(1,1)} 100% {transform: translate(38.730851px,33.724201px) scale(1,1)}}]]></style><g id="eLdtJHzNj5K2_ts" transform="translate(4.618721,27.1592) scale(0,0)"><g transform="translate(-4.618718,-27.1592)"><path d="M8.26384,3.65293c0,2.0206-1.63061,3.65293-3.64908,3.65293s-3.641158-1.64025-3.641158-3.65293s1.630608-3.65293,3.641158-3.65293s3.64908,1.63233,3.64908,3.65293" fill="#378f0d"/><path d="M6.26913,8.328h-3.24538C1.36939,8.328,0,9.69884,0,11.3549v4.8495c0,.7448.514512,1.4263,1.25066,1.6006l.28496.0555c.34037.1109.56992.3962.56992.7448v7.187c0,.7449.62533,1.3709,1.36939,1.3709h2.27969c.74406,0,1.36939-.626,1.36939-1.3709v-7.1315c0-.3407.22955-.6814.56992-.7448l.28496-.0555c.05541,0,.11082-.0555.17414-.0555v-2.4564c0-1.1965.39578-2.2821,1.02903-3.1933v-.7449C9.29288,9.69884,7.9314,8.328,6.27704,8.328h-.00791Z" fill="#378f0d"/></g></g><g id="eLdtJHzNj5K5_ts" transform="translate(49.5356,27.1592) scale(0,0)"><g transform="translate(-49.535592,-27.1592)"><path d="M53.1847,3.65293c0,2.0206-1.6306,3.65293-3.6491,3.65293s-3.6491-1.63233-3.6491-3.65293s1.6306-3.65293,3.6491-3.65293s3.6491,1.63233,3.6491,3.65293Z" fill="#378f0d"/><path d="M51.1346,8.328h-3.3087c-1.6544,0-3.0238,1.37084-3.0238,3.0269v.7449c.6808.9112,1.0291,1.9968,1.0291,3.1933v2.4565c.0554,0,.1108.0554.1741.0554l.285.0555c.3403.1109.5699.3962.5699.7448v7.187c0,.7449.6253,1.3709,1.3694,1.3709h2.2797c.744,0,1.3693-.626,1.3693-1.3709v-7.1315c0-.3407.2296-.6814.57-.7448l.2849-.0555c.7441-.1743,1.2507-.8558,1.2507-1.6006v-4.8495c.1741-1.71156-1.1953-3.0824-2.8496-3.0824v0Z" fill="#378f0d"/></g></g><g id="eLdtJHzNj5K8_ts" transform="translate(16.361336,33.557805) scale(0,0)"><g transform="translate(-15.42745,-33.7322)"><path d="M17.3905,11.8146h-3.8153c-1.9393,0-3.4749,1.5372-3.4749,3.4786v5.5943c0,.8558.5699,1.6561,1.4248,1.8859l.3403.0554c.3958.111.6808.4596.6808.9113v8.3914c0,.8558.744,1.6007,1.5989,1.6007h2.6755c.8548,0,1.5989-.7449,1.5989-1.6007v-8.3914c0-.3962.285-.8003.6807-.9113l.285-.0554v-4.5642c0-1.4263.5145-2.6783,1.3694-3.7084-.3404-1.5373-1.7098-2.6862-3.3641-2.6862v0Z" fill="#378f0d"/><path d="M19.7256,6.33124c0,2.32964-1.8918,4.22346-4.219,4.22346s-4.219-1.89382-4.219-4.22346s1.8918-4.22345,4.219-4.22345s4.219,1.89382,4.219,4.22345Z" fill="#378f0d"/></g></g><g id="eLdtJHzNj5K11_ts" transform="translate(38.730851,33.724201) scale(0,0)"><g transform="translate(-38.73085,-33.7242)"><path d="M40.5831,11.8146h-3.8153c-1.6544,0-3.0237,1.141-3.3641,2.6783.8549.9667,1.3694,2.282,1.3694,3.7084v4.5641l.2849.0555c.3958.1109.6808.4596.6808.9113v8.3914c0,.8558.744,1.6006,1.5989,1.6006h2.6755c.8549,0,1.5989-.7448,1.5989-1.6006v-8.3914c0-.3962.285-.8004.6808-.9113l.3403-.0555c.8549-.2298,1.4248-.9667,1.4248-1.8859v-5.5943c0-1.9413-1.5989-3.4786-3.4749-3.4786v.008Z" fill="#378f0d"/><path d="M42.8628,6.33124c0,2.32964-1.8918,4.22346-4.219,4.22346s-4.219-1.89382-4.219-4.22346s1.8918-4.22345,4.219-4.22345s4.219,1.89382,4.219,4.22345Z" transform="translate(.08705 0)" fill="#378f0d"/></g></g><path d="M29.0739,14.3264h-3.9895c-2.1055,0-3.8153,1.7116-3.8153,3.8194v5.9904c0,.9668.6254,1.7671,1.5357,2.0523l.3403.111c.4591.1109.7441.515.7441.9667v11.0143c0,.9667.7995,1.7115,1.7097,1.7115h2.8497c.9657,0,1.7097-.8003,1.7097-1.7115v-11.0143c0-.4596.285-.8558.7441-.9667l.3404-.111c.9102-.2298,1.5356-1.0855,1.5356-2.0523v-5.9904c.1108-2.0523-1.599-3.8194-3.7045-3.8194v0Z" fill="#378f0d"/><path d="M31.6385,8.50242c0,2.51978-2.0422,4.56418-4.5594,4.56418s-4.5593-2.0444-4.5593-4.56418s2.0422-4.56419,4.5593-4.56419s4.5594,2.04438,4.5594,4.56419" fill="#378f0d"/></svg>