<?xml version="1.0" encoding="UTF-8"?><svg xmlns="http://www.w3.org/2000/svg" xmlns:xlink="http://www.w3.org/1999/xlink" viewBox="0 0 491.45 450.82"><defs><style>.cls-1{fill:url(#linear-gradient);}.cls-2{fill:#f97f7c;}.cls-3,.cls-4{fill:#f9aea4;}.cls-5{fill:#b83138;}.cls-6{fill:#cf6854;}.cls-7{fill:#c19be0;}.cls-8{fill:#d57a68;}.cls-9{fill:#fff;opacity:.45;}.cls-9,.cls-4{mix-blend-mode:soft-light;}.cls-10{fill:#00104a;}.cls-10,.cls-11,.cls-12,.cls-13,.cls-14,.cls-15,.cls-16{mix-blend-mode:multiply;}.cls-10,.cls-11,.cls-12,.cls-17{opacity:.2;}.cls-11{fill:#470024;}.cls-12{fill:#190078;}.cls-13{fill:#3a66eb;}.cls-14{fill:#cbcccf;}.cls-15{fill:#dddee1;}.cls-18{fill:url(#Degradado_sin_nombre_1263-12);}.cls-19{fill:url(#Degradado_sin_nombre_1263-10);}.cls-20{fill:url(#Degradado_sin_nombre_1263-11);}.cls-21{fill:url(#_ÂÁ_Ï_ÌÌ_È_____ËÂÌÚ_295);}.cls-21,.cls-22{mix-blend-mode:screen;}.cls-23{fill:url(#linear-gradient-8);}.cls-24{fill:url(#linear-gradient-9);}.cls-25{fill:url(#linear-gradient-3);}.cls-26{fill:url(#linear-gradient-4);}.cls-27{fill:url(#linear-gradient-2);}.cls-28{fill:url(#linear-gradient-6);}.cls-29{fill:url(#linear-gradient-7);}.cls-30{fill:url(#linear-gradient-5);}.cls-31{fill:url(#Degradado_sin_nombre_31);}.cls-22{opacity:.5;}.cls-32{opacity:.7;}.cls-33{fill:url(#linear-gradient-14);}.cls-34{fill:url(#linear-gradient-18);}.cls-35{fill:url(#linear-gradient-20);}.cls-36{fill:url(#linear-gradient-15);}.cls-37{fill:url(#linear-gradient-19);}.cls-38{fill:url(#linear-gradient-16);}.cls-39{fill:url(#linear-gradient-17);}.cls-40{fill:url(#linear-gradient-13);}.cls-41{fill:url(#linear-gradient-12);}.cls-42{fill:url(#linear-gradient-10);}.cls-43{fill:url(#linear-gradient-11);}.cls-44{isolation:isolate;}.cls-45{fill:#fcf;mix-blend-mode:overlay;opacity:.15;}.cls-46{fill:url(#Degradado_sin_nombre_31-4);}.cls-47{fill:url(#Degradado_sin_nombre_31-3);}.cls-48{fill:url(#Degradado_sin_nombre_31-5);}.cls-49{fill:url(#Degradado_sin_nombre_31-6);}.cls-50{fill:url(#Degradado_sin_nombre_31-8);}.cls-51{fill:url(#Degradado_sin_nombre_31-7);}.cls-52{fill:url(#Degradado_sin_nombre_31-2);}.cls-53{fill:url(#Degradado_sin_nombre_31-9);}.cls-54{fill:url(#Degradado_sin_nombre_1263);}.cls-55{fill:url(#_ÂÁ_Ï_ÌÌ_È_____ËÂÌÚ_425);}.cls-56{fill:url(#_ÂÁ_Ï_ÌÌ_È_____ËÂÌÚ_426);}.cls-57{fill:url(#_ÂÁ_Ï_ÌÌ_È_____ËÂÌÚ_427);}.cls-58{fill:url(#_ÂÁ_Ï_ÌÌ_È_____ËÂÌÚ_261);}.cls-59{fill:url(#_ÂÁ_Ï_ÌÌ_È_____ËÂÌÚ_266);}.cls-60{fill:url(#_ÂÁ_Ï_ÌÌ_È_____ËÂÌÚ_519);}.cls-61{fill:url(#_ÂÁ_Ï_ÌÌ_È_____ËÂÌÚ_244);}.cls-62{fill:url(#_ÂÁ_Ï_ÌÌ_È_____ËÂÌÚ_391);}.cls-63{fill:url(#_ÂÁ_Ï_ÌÌ_È_____ËÂÌÚ_524);}.cls-64{fill:url(#Degradado_sin_nombre_1263-7);}.cls-65{fill:url(#Degradado_sin_nombre_1263-9);}.cls-66{fill:url(#Degradado_sin_nombre_1263-2);}.cls-67{fill:url(#Degradado_sin_nombre_1263-8);}.cls-68{fill:url(#Degradado_sin_nombre_1263-4);}.cls-69{fill:url(#Degradado_sin_nombre_1263-3);}.cls-70{fill:url(#Degradado_sin_nombre_1263-6);}.cls-71{fill:url(#Degradado_sin_nombre_1263-5);}</style><linearGradient id="linear-gradient" x1="1642.06" y1="5088.73" x2="1940.72" y2="5088.73" gradientTransform="translate(2577.25 -4624.88) rotate(45)" gradientUnits="userSpaceOnUse"><stop offset="0" stop-color="#5b03f6"/><stop offset=".02" stop-color="#5b03f6" stop-opacity=".89"/><stop offset=".06" stop-color="#5b03f6" stop-opacity=".72"/><stop offset=".1" stop-color="#5b03f6" stop-opacity=".56"/><stop offset=".14" stop-color="#5b03f6" stop-opacity=".44"/><stop offset=".19" stop-color="#5b03f6" stop-opacity=".33"/><stop offset=".24" stop-color="#5b03f6" stop-opacity=".25"/><stop offset=".3" stop-color="#5b03f6" stop-opacity=".19"/><stop offset=".37" stop-color="#5b03f6" stop-opacity=".16"/><stop offset=".5" stop-color="#5b03f6" stop-opacity=".15"/></linearGradient><linearGradient id="linear-gradient-2" x1="1667.17" y1="5088.73" x2="1915.61" y2="5088.73" gradientTransform="translate(2577.25 -4624.88) rotate(45)" gradientUnits="userSpaceOnUse"><stop offset="0" stop-color="#5b03f6"/><stop offset=".02" stop-color="#5b03f6" stop-opacity=".89"/><stop offset=".06" stop-color="#5b03f6" stop-opacity=".72"/><stop offset=".1" stop-color="#5b03f6" stop-opacity=".56"/><stop offset=".14" stop-color="#5b03f6" stop-opacity=".44"/><stop offset=".19" stop-color="#5b03f6" stop-opacity=".33"/><stop offset=".24" stop-color="#5b03f6" stop-opacity=".25"/><stop offset=".3" stop-color="#5b03f6" stop-opacity=".19"/><stop offset=".37" stop-color="#5b03f6" stop-opacity=".16"/><stop offset=".5" stop-color="#5b03f6" stop-opacity=".15"/></linearGradient><linearGradient id="linear-gradient-3" x1="1678.71" y1="5088.73" x2="1904.07" y2="5088.73" gradientTransform="translate(2577.25 -4624.88) rotate(45)" gradientUnits="userSpaceOnUse"><stop offset="0" stop-color="#5b03f6"/><stop offset=".02" stop-color="#5b03f6" stop-opacity=".89"/><stop offset=".06" stop-color="#5b03f6" stop-opacity=".72"/><stop offset=".1" stop-color="#5b03f6" stop-opacity=".56"/><stop offset=".14" stop-color="#5b03f6" stop-opacity=".44"/><stop offset=".19" stop-color="#5b03f6" stop-opacity=".33"/><stop offset=".24" stop-color="#5b03f6" stop-opacity=".25"/><stop offset=".3" stop-color="#5b03f6" stop-opacity=".19"/><stop offset=".37" stop-color="#5b03f6" stop-opacity=".16"/><stop offset=".5" stop-color="#5b03f6" stop-opacity=".15"/></linearGradient><linearGradient id="linear-gradient-4" x1="142.82" y1="240.05" x2="348.58" y2="240.05" gradientTransform="translate(455.99 -31.55) rotate(83.42)" gradientUnits="userSpaceOnUse"><stop offset="0" stop-color="#5b03f6"/><stop offset=".15" stop-color="#4608cc"/><stop offset=".36" stop-color="#2f0f9c"/><stop offset=".55" stop-color="#1d1476"/><stop offset=".72" stop-color="#10175c"/><stop offset=".88" stop-color="#081a4b"/><stop offset="1" stop-color="#061b46"/></linearGradient><linearGradient id="linear-gradient-5" x1="405.04" y1="48.61" x2="334.67" y2="103.19" gradientTransform="matrix(1, 0, 0, 1, 0, 0)" gradientUnits="userSpaceOnUse"><stop offset="0" stop-color="#c19be0" stop-opacity=".5"/><stop offset="1" stop-color="#fff" stop-opacity="0"/></linearGradient><linearGradient id="linear-gradient-6" x1="195.3" y1="336.15" x2="98.95" y2="410.89" gradientTransform="matrix(1, 0, 0, 1, 0, 0)" gradientUnits="userSpaceOnUse"><stop offset="0" stop-color="#f7941d" stop-opacity=".5"/><stop offset="1" stop-color="#fff" stop-opacity="0"/></linearGradient><linearGradient id="linear-gradient-7" x1="167.86" y1="66.76" x2="97.48" y2="121.34" gradientTransform="matrix(1, 0, 0, 1, 0, 0)" gradientUnits="userSpaceOnUse"><stop offset="0" stop-color="#db525c" stop-opacity=".5"/><stop offset="1" stop-color="#fff" stop-opacity="0"/></linearGradient><linearGradient id="linear-gradient-8" x1="427.36" y1="246.15" x2="376.99" y2="285.22" gradientTransform="matrix(1, 0, 0, 1, 0, 0)" gradientUnits="userSpaceOnUse"><stop offset="0" stop-color="#0e4c62" stop-opacity=".5"/><stop offset="1" stop-color="#fff" stop-opacity="0"/></linearGradient><radialGradient id="_ÂÁ_Ï_ÌÌ_È_____ËÂÌÚ_295" cx="297.49" cy="321.92" fx="297.49" fy="321.92" r="23.29" gradientTransform="matrix(1, 0, 0, 1, 0, 0)" gradientUnits="userSpaceOnUse"><stop offset=".66" stop-color="#ffac56"/><stop offset="1" stop-color="#000"/></radialGradient><radialGradient id="_ÂÁ_Ï_ÌÌ_È_____ËÂÌÚ_244" cx="302.25" cy="310.12" fx="302.25" fy="310.12" r="25.07" gradientTransform="matrix(1, 0, 0, 1, 0, 0)" gradientUnits="userSpaceOnUse"><stop offset=".28" stop-color="#e95059"/><stop offset=".41" stop-color="#e44d59"/><stop offset=".56" stop-color="#d6455a"/><stop offset=".73" stop-color="#be385b"/><stop offset=".89" stop-color="#9e265e"/><stop offset="1" stop-color="#861960"/></radialGradient><radialGradient id="_ÂÁ_Ï_ÌÌ_È_____ËÂÌÚ_261" cx="313.87" cy="305.6" fx="313.87" fy="305.6" r="17.4" gradientTransform="matrix(1, 0, 0, 1, 0, 0)" gradientUnits="userSpaceOnUse"><stop offset="0" stop-color="#ff953d"/><stop offset=".21" stop-color="#f9863e"/><stop offset=".61" stop-color="#eb6244"/><stop offset="1" stop-color="#db384a"/></radialGradient><radialGradient id="_ÂÁ_Ï_ÌÌ_È_____ËÂÌÚ_266" cx="312.92" cy="305.08" fx="312.92" fy="305.08" r="21.11" gradientTransform="matrix(1, 0, 0, 1, 0, 0)" gradientUnits="userSpaceOnUse"><stop offset="0" stop-color="#ffcc7a"/><stop offset=".14" stop-color="#fbbd75"/><stop offset=".42" stop-color="#f29869"/><stop offset=".79" stop-color="#e45d56"/><stop offset="1" stop-color="#db384a"/></radialGradient><radialGradient id="_ÂÁ_Ï_ÌÌ_È_____ËÂÌÚ_427" cx="113.3" cy="177.47" fx="113.3" fy="177.47" r="20.01" gradientTransform="matrix(1, 0, 0, 1, 0, 0)" gradientUnits="userSpaceOnUse"><stop offset="0" stop-color="#2bccb7"/><stop offset=".15" stop-color="#28bdb0"/><stop offset=".44" stop-color="#2198a1"/><stop offset=".82" stop-color="#175d87"/><stop offset="1" stop-color="#12407b"/></radialGradient><radialGradient id="_ÂÁ_Ï_ÌÌ_È_____ËÂÌÚ_426" cx="133.15" cy="182.7" fx="133.15" fy="182.7" r="19.24" gradientTransform="translate(-22.34 -7.9) scale(1.01)" gradientUnits="userSpaceOnUse"><stop offset="0" stop-color="#1e7699"/><stop offset=".25" stop-color="#196d8a"/><stop offset=".73" stop-color="#0e5766"/><stop offset="1" stop-color="#07494e"/></radialGradient><radialGradient id="_ÂÁ_Ï_ÌÌ_È_____ËÂÌÚ_425" cx="76.74" cy="176.51" fx="76.74" fy="176.51" r="18.88" gradientTransform="translate(37.12 5) scale(.98 .99)" gradientUnits="userSpaceOnUse"><stop offset=".28" stop-color="#0e4c62"/><stop offset=".51" stop-color="#0c4761"/><stop offset=".78" stop-color="#08395f"/><stop offset="1" stop-color="#04285d"/></radialGradient><radialGradient id="_ÂÁ_Ï_ÌÌ_È_____ËÂÌÚ_391" cx="251.15" cy="68.37" fx="251.15" fy="68.37" r="43.56" gradientTransform="matrix(1, 0, 0, 1, 0, 0)" gradientUnits="userSpaceOnUse"><stop offset="0" stop-color="#c0d6fa"/><stop offset=".17" stop-color="#b5c7f0"/><stop offset=".49" stop-color="#98a2d8"/><stop offset=".92" stop-color="#6967b1"/><stop offset="1" stop-color="#605ba9"/></radialGradient><radialGradient id="_ÂÁ_Ï_ÌÌ_È_____ËÂÌÚ_524" cx="268.37" cy="76.18" fx="268.37" fy="76.18" r="41.87" gradientTransform="translate(-22.34 -7.9) scale(1.01)" gradientUnits="userSpaceOnUse"><stop offset="0" stop-color="#2395c7"/><stop offset=".22" stop-color="#2486bb"/><stop offset=".63" stop-color="#26629c"/><stop offset="1" stop-color="#2a3b7c"/></radialGradient><radialGradient id="_ÂÁ_Ï_ÌÌ_È_____ËÂÌÚ_519" cx="216.45" cy="68.4" fx="216.45" fy="68.4" r="41.09" gradientTransform="translate(37.12 5) scale(.98 .99)" gradientUnits="userSpaceOnUse"><stop offset=".28" stop-color="#1b5190"/><stop offset=".43" stop-color="#1a4c8c"/><stop offset=".61" stop-color="#183e82"/><stop offset=".79" stop-color="#142671"/><stop offset=".99" stop-color="#0f065a"/><stop offset="1" stop-color="#0f0459"/></radialGradient><linearGradient id="linear-gradient-9" x1="267.67" y1="644.52" x2="267.67" y2="754.67" gradientTransform="translate(754.9 -506.25) rotate(52.04) scale(1 1.35)" gradientUnits="userSpaceOnUse"><stop offset="0" stop-color="#f2d200"/><stop offset="1" stop-color="#f27900"/></linearGradient><linearGradient id="linear-gradient-10" x1="267.67" y1="638.78" x2="267.67" y2="708.71" xlink:href="#linear-gradient-9"/><linearGradient id="linear-gradient-11" x1="267.67" y1="632.92" x2="267.67" y2="674.94" xlink:href="#linear-gradient-9"/><linearGradient id="linear-gradient-12" x1="242.86" y1="184.35" x2="370.63" y2="184.35" gradientTransform="matrix(1, 0, 0, 1, 0, 0)" gradientUnits="userSpaceOnUse"><stop offset="0" stop-color="#fff"/><stop offset="1" stop-color="#d8a0ff"/></linearGradient><linearGradient id="Degradado_sin_nombre_31" x1="1009.34" y1="134.3" x2="1009.34" y2="160.23" gradientTransform="translate(-204.95 -700.96) rotate(51.3)" gradientUnits="userSpaceOnUse"><stop offset="0" stop-color="#fff"/><stop offset=".07" stop-color="#fff" stop-opacity=".85"/><stop offset=".21" stop-color="#fff" stop-opacity=".6"/><stop offset=".35" stop-color="#fff" stop-opacity=".38"/><stop offset=".47" stop-color="#fff" stop-opacity=".22"/><stop offset=".58" stop-color="#fff" stop-opacity=".1"/><stop offset=".68" stop-color="#fff" stop-opacity=".03"/><stop offset=".74" stop-color="#fff" stop-opacity="0"/></linearGradient><linearGradient id="Degradado_sin_nombre_31-2" x1="1010.15" y1="113.29" x2="1010.15" y2="127.73" xlink:href="#Degradado_sin_nombre_31"/><linearGradient id="Degradado_sin_nombre_31-3" x1="1008.38" y1="170.41" x2="1008.38" y2="184.85" xlink:href="#Degradado_sin_nombre_31"/><linearGradient id="Degradado_sin_nombre_1263" x1="219.94" y1="183.45" x2="274.79" y2="183.45" gradientTransform="matrix(1, 0, 0, 1, 0, 0)" gradientUnits="userSpaceOnUse"><stop offset="0" stop-color="#d8a0ff"/><stop offset="1" stop-color="#fff"/></linearGradient><linearGradient id="Degradado_sin_nombre_1263-2" x1="224.98" y1="183.84" x2="271.84" y2="183.84" xlink:href="#Degradado_sin_nombre_1263"/><linearGradient id="Degradado_sin_nombre_1263-3" x1="265.69" y1="239.64" x2="314.37" y2="239.64" xlink:href="#Degradado_sin_nombre_1263"/><linearGradient id="Degradado_sin_nombre_1263-4" x1="269.49" y1="238.54" x2="312.86" y2="238.54" xlink:href="#Degradado_sin_nombre_1263"/><linearGradient id="linear-gradient-13" x1="437.67" y1="571.53" x2="437.67" y2="593.91" xlink:href="#linear-gradient-9"/><linearGradient id="linear-gradient-14" x1="437.69" y1="570.37" x2="437.69" y2="584.57" xlink:href="#linear-gradient-9"/><linearGradient id="linear-gradient-15" x1="437.7" y1="569.18" x2="437.7" y2="577.71" xlink:href="#linear-gradient-9"/><linearGradient id="linear-gradient-16" x1="419.15" y1="301.07" x2="445.25" y2="301.07" xlink:href="#linear-gradient-12"/><linearGradient id="Degradado_sin_nombre_31-4" x1="1180.17" y1="125.19" x2="1180.17" y2="130.45" xlink:href="#Degradado_sin_nombre_31"/><linearGradient id="Degradado_sin_nombre_31-5" x1="1180.38" y1="120.92" x2="1180.38" y2="123.85" xlink:href="#Degradado_sin_nombre_31"/><linearGradient id="Degradado_sin_nombre_31-6" x1="1179.93" y1="132.52" x2="1179.93" y2="135.45" xlink:href="#Degradado_sin_nombre_31"/><linearGradient id="Degradado_sin_nombre_1263-5" x1="414.46" y1="300.89" x2="425.67" y2="300.89" xlink:href="#Degradado_sin_nombre_1263"/><linearGradient id="Degradado_sin_nombre_1263-6" x1="415.5" y1="300.97" x2="425.07" y2="300.97" xlink:href="#Degradado_sin_nombre_1263"/><linearGradient id="Degradado_sin_nombre_1263-7" x1="423.81" y1="312.19" x2="433.76" y2="312.19" xlink:href="#Degradado_sin_nombre_1263"/><linearGradient id="Degradado_sin_nombre_1263-8" x1="424.59" y1="311.97" x2="433.45" y2="311.97" xlink:href="#Degradado_sin_nombre_1263"/><linearGradient id="linear-gradient-17" x1="100.21" y1="718.4" x2="100.21" y2="746.87" xlink:href="#linear-gradient-9"/><linearGradient id="linear-gradient-18" x1="100.22" y1="716.92" x2="100.22" y2="734.99" xlink:href="#linear-gradient-9"/><linearGradient id="linear-gradient-19" x1="100.24" y1="715.4" x2="100.24" y2="726.26" xlink:href="#linear-gradient-9"/><linearGradient id="linear-gradient-20" x1="56.15" y1="153.61" x2="89.36" y2="153.61" xlink:href="#linear-gradient-12"/><linearGradient id="Degradado_sin_nombre_31-7" x1="840.24" y1="312.44" x2="840.24" y2="319.14" xlink:href="#Degradado_sin_nombre_31"/><linearGradient id="Degradado_sin_nombre_31-8" x1="840.5" y1="307.01" x2="840.5" y2="310.74" xlink:href="#Degradado_sin_nombre_31"/><linearGradient id="Degradado_sin_nombre_31-9" x1="839.93" y1="321.77" x2="839.93" y2="325.51" xlink:href="#Degradado_sin_nombre_31"/><linearGradient id="Degradado_sin_nombre_1263-9" x1="50.18" y1="153.38" x2="64.44" y2="153.38" xlink:href="#Degradado_sin_nombre_1263"/><linearGradient id="Degradado_sin_nombre_1263-10" x1="51.5" y1="153.48" x2="63.68" y2="153.48" xlink:href="#Degradado_sin_nombre_1263"/><linearGradient id="Degradado_sin_nombre_1263-11" x1="62.08" y1="167.76" x2="74.73" y2="167.76" xlink:href="#Degradado_sin_nombre_1263"/><linearGradient id="Degradado_sin_nombre_1263-12" x1="63.07" y1="167.47" x2="74.34" y2="167.47" xlink:href="#Degradado_sin_nombre_1263"/></defs><g class="cls-44"><g id="Rocket"><path class="cls-1" d="M245.7,389.38c-39.89,0-77.39-15.53-105.59-43.74-28.17-28.17-43.68-65.67-43.68-105.59s15.51-77.42,43.68-105.59c28.2-28.2,65.7-43.74,105.59-43.74s77.39,15.53,105.59,43.74c28.17,28.17,43.68,65.67,43.68,105.59s-15.51,77.42-43.68,105.59c-28.2,28.2-65.7,43.74-105.59,43.74Z"/><path class="cls-27" d="M245.7,364.27c-33.18,0-64.37-12.92-87.83-36.38-48.43-48.43-48.43-127.23,0-175.67,23.46-23.46,54.65-36.38,87.83-36.38s64.37,12.92,87.83,36.38c48.43,48.43,48.43,127.23,0,175.67-23.46,23.46-54.65,36.38-87.83,36.38Z"/><circle class="cls-25" cx="245.7" cy="240.05" r="112.68"/><g><circle class="cls-26" cx="245.7" cy="240.05" r="102.88" transform="translate(-20.94 456.6) rotate(-83.42)"/><g><path class="cls-45" d="M282.54,262.5c-16.56-6.38-35.03-2.76-52.61-.43-17.59,2.33-37.24,2.72-51.02-8.46-14.29-11.6-18.05-32.3-30.71-45.49,3.69-11.31,9.28-21.75,16.4-30.95,.89,1.24,1.83,2.46,2.87,3.6,14.12,15.44,38.22,15.03,58.99,12.54,20.77-2.5,44.02-5.3,60.64,7.42,9.52,7.28,15.03,18.46,21.72,28.42,9.5,14.15,22.14,26.46,37.44,33.91-3.27,14.31-9.5,27.49-18.05,38.83-15.1-13.71-26.75-32.1-45.67-39.39Z"/><path class="cls-45" d="M156.8,291.3c18.05-6.06,38.14-12.61,55.24-4.37,9.94,4.79,17,13.84,24.88,21.56,11.58,11.35,25.81,20.35,41.61,24,3.11,.72,6.28,1.21,9.47,1.47-12.83,5.75-27.05,8.98-42.02,8.98-38.15,0-71.43-20.78-89.19-51.63Z"/><path class="cls-45" d="M243.67,172.11c-12.52-6.47-19.64-19.99-29.67-29.84,10.07-3.29,20.82-5.1,31.99-5.1,25.98,0,49.7,9.65,67.8,25.54-7.62,2.01-15.15,4.9-22.56,7.49-15.42,5.39-33.06,9.41-47.57,1.91Z"/></g></g><path class="cls-9" d="M256.77,54.34c0,1.17-.95,2.13-2.13,2.13s-2.13-.95-2.13-2.13,.95-2.13,2.13-2.13,2.13,.95,2.13,2.13Z"/><g class="cls-32"><path class="cls-30" d="M404.4,53.7l-66.86,47.27,62.41-53c1.53-1.3,3.82-1.11,5.12,.42,1.3,1.53,1.11,3.82-.42,5.12-.08,.07-.17,.14-.25,.2Z"/></g><g class="cls-32"><path class="cls-28" d="M194.42,343.12l-91.55,64.72,85.46-72.57c2.09-1.78,5.23-1.52,7.01,.57,1.78,2.09,1.52,5.23-.57,7.01-.11,.09-.23,.19-.35,.27Z"/></g><g class="cls-32"><path class="cls-29" d="M167.21,71.85l-66.86,47.27,62.41-53c1.53-1.3,3.82-1.11,5.12,.42,1.3,1.53,1.11,3.82-.42,5.12-.08,.07-.17,.14-.25,.2Z"/></g><g class="cls-32"><path class="cls-23" d="M426.9,249.8l-47.85,33.83,44.67-37.93c1.09-.93,2.74-.8,3.66,.3,.93,1.09,.8,2.74-.3,3.66-.06,.05-.12,.1-.18,.14Z"/></g><path class="cls-21" d="M320.78,321.92c0,.54-.02,1.09-.06,1.62-.13,2-.52,3.92-1.13,5.75h0s-.01,.05-.02,.07c-.28,.82-.6,1.62-.96,2.4-.7,1.5-1.55,2.91-2.54,4.22-.56,.74-1.16,1.44-1.8,2.11-2.07,2.15-4.55,3.9-7.31,5.13-1.68,.75-3.46,1.3-5.31,1.63-1.35,.24-2.73,.37-4.15,.37-5.16,0-9.94-1.69-13.8-4.53-2.89-2.13-5.26-4.9-6.92-8.11-.3-.58-.57-1.17-.81-1.78-1.13-2.73-1.75-5.73-1.75-8.87,0-.21,0-.41,0-.62,0-.16,0-.33,.01-.49,0-.08,0-.17,.01-.26,.02-.36,.05-.72,.09-1.07,.02-.2,.04-.41,.07-.61,.03-.19,.05-.39,.08-.58,.03-.2,.06-.39,.1-.59,.05-.33,.12-.64,.2-.96,.04-.2,.09-.4,.14-.6,.18-.69,.38-1.37,.62-2.04,.03-.1,.07-.19,.1-.29,.04-.12,.09-.25,.14-.37,.07-.18,.14-.36,.22-.54,.07-.18,.15-.35,.23-.52,.47-1.05,1.02-2.05,1.63-3,.07-.11,.14-.22,.21-.32,.09-.14,.19-.29,.29-.42,.48-.7,1-1.36,1.56-2,0,0,0,0,0,0,1.94-2.23,4.31-4.09,6.96-5.45,2.03-1.05,4.24-1.8,6.56-2.2,1.31-.23,2.66-.35,4.04-.35,3.62,0,7.04,.82,10.1,2.3,.46,.22,.91,.45,1.35,.7,.04,.02,.09,.05,.14,.07,.01,0,.03,.02,.05,.03,1.12,.65,2.18,1.39,3.18,2.21,1.5,1.24,2.84,2.66,3.99,4.23,.6,.81,1.14,1.67,1.63,2.56,.63,1.14,1.16,2.34,1.59,3.59,.02,.07,.05,.15,.08,.22,.02,.07,.05,.15,.07,.23,.47,1.46,.79,2.97,.97,4.54,.04,.42,.08,.85,.1,1.29,.02,.43,.04,.87,.04,1.32Z"/><path class="cls-61" d="M319.08,321.92c0,.5-.02,1.01-.05,1.5-.12,1.85-.48,3.64-1.05,5.33h0s-.01,.05-.02,.06c-.26,.76-.55,1.5-.89,2.22-.64,1.39-1.44,2.7-2.36,3.91-.52,.69-1.07,1.34-1.67,1.95-1.92,1.99-4.22,3.62-6.78,4.76-1.56,.7-3.21,1.21-4.93,1.51-1.25,.22-2.53,.34-3.85,.34-4.79,0-9.22-1.56-12.8-4.2-2.68-1.97-4.88-4.55-6.42-7.52-.27-.54-.53-1.08-.75-1.65-1.05-2.53-1.62-5.31-1.62-8.22,0-.19,0-.38,0-.57,0-.15,0-.31,.01-.46,0-.08,0-.16,.01-.24,.02-.33,.05-.66,.08-.99,.02-.19,.04-.38,.06-.57,.03-.18,.05-.36,.08-.54,.03-.18,.06-.37,.1-.55,.05-.3,.11-.59,.18-.89,.04-.19,.09-.37,.13-.56,.16-.64,.36-1.27,.58-1.89,.03-.09,.06-.18,.1-.27,.04-.11,.09-.23,.13-.34,.06-.17,.13-.33,.2-.5,.07-.16,.14-.32,.21-.48,.43-.97,.94-1.9,1.51-2.79,.06-.1,.13-.2,.2-.3,.09-.13,.17-.27,.27-.39,.45-.64,.93-1.26,1.45-1.85,0,0,0,0,0,0,1.8-2.07,3.99-3.79,6.45-5.05,1.88-.97,3.93-1.66,6.08-2.04,1.22-.21,2.47-.32,3.75-.32,3.36,0,6.53,.76,9.36,2.13,.43,.2,.84,.42,1.25,.65,.04,.02,.09,.05,.13,.07,.01,0,.03,.02,.05,.03,1.04,.6,2.03,1.29,2.95,2.05,1.39,1.15,2.63,2.47,3.7,3.92,.55,.75,1.06,1.55,1.51,2.38,.59,1.06,1.08,2.17,1.48,3.33,.02,.07,.05,.14,.07,.21,.02,.07,.05,.14,.07,.21,.43,1.35,.74,2.76,.9,4.21,.04,.39,.08,.79,.1,1.19,.02,.4,.04,.81,.04,1.22Z"/><path class="cls-11" d="M319.08,321.92c0,.5-.02,1.01-.05,1.5-.06,.24-.17,.47-.35,.64-.27,.28-.74,.44-1.11,.53-.59,.13-1.21,.19-1.82,.28-.74,.1-1.45,.26-2.16,.5-1.33,.45-2.63,.99-3.9,1.61-1.33,.65-2.7,1.25-4.11,1.71-.75,.25-1.54,.4-2.3,.64-.36,.11-.72,.19-1.08,.28-.5,.12-.98,.28-1.47,.39-.64,.15-1.26,.36-1.9,.49-.72,.15-1.43,.42-2.16,.53-.58,.09-1.15,.14-1.74,.1-.25-.02-.5-.05-.75-.07-.34-.02-.68-.02-1.02-.04-.49-.04-.98,0-1.46,.07-.56,.08-1.09,.11-1.66,.04-.53-.06-1.07-.24-1.58-.38-.54-.15-1.13-.25-1.68-.25-.22,0-.44,.04-.65,.06-.23,.02-.46,.03-.69,.05-.33,.04-.7,.03-1.03,0-.54-.04-1.05-.23-1.55-.43-.54-.21-1.12-.42-1.69-.51-.52-.08-1.03-.27-1.57-.16-.09,.02-.17,.01-.26,.02-.11,.01-.22,.06-.34,.07-.15,.02-.27,.02-.4,.1-.06,.04-.11,.1-.17,.14-.06,.05-.11,.11-.17,.14-.1,.05-.2,.07-.3,.11-.14,.05-.29,.07-.43,.05-1.05-2.53-1.62-5.31-1.62-8.22,0-.19,0-.38,0-.57,0-.15,0-.31,.01-.46,0-.08,0-.16,.01-.24,.02-.33,.05-.66,.08-.99,.02-.19,.04-.38,.06-.57,.03-.18,.05-.36,.08-.54,.03-.18,.06-.37,.1-.55,.05-.3,.11-.59,.18-.89,.04-.19,.09-.37,.13-.56,.16-.64,.36-1.27,.58-1.89,.03-.09,.06-.18,.1-.27,.04-.11,.09-.23,.13-.34,.06-.17,.13-.33,.2-.5,.07-.16,.14-.32,.21-.48,.43-.97,.94-1.9,1.51-2.79,.06-.1,.13-.2,.2-.3,.09-.13,.17-.27,.27-.39,.45-.64,.93-1.26,1.45-1.85-.19,.43-.42,.9-.31,1.38,.03,.14,.06,.26,.13,.39,0,.02,.02,.04,.02,.05,.18-.27,.35-.54,.54-.8,.24-.33,.47-.69,.73-1.01,.21-.27,.48-.52,.71-.78,.08-.09,.29-.36,.43-.34,.05,.15-.09,.35-.15,.47-.09,.19-.23,.35-.3,.54-.02,.07-.06,.2,.04,.19,.02,0,.1-.07,.12-.08,.12-.08,.22-.18,.34-.27,.16-.13,.35-.23,.52-.36,.22-.17,.46-.34,.69-.51,.63-.45,1.26-.91,1.93-1.31,.7-.42,1.42-.78,2.15-1.12,.39-.18,.77-.37,1.17-.54,.29-.12,.61-.2,.92-.28,.26-.06,.54-.06,.8-.09,.22-.02,.45-.05,.67-.05,.2,0,.39-.04,.59-.04,.12,0,.22,.03,.34,.05,.03,0,.15,.02,.17,.05,.11,.16-.37,.13-.43,.16-.28,.13-.48,.42-.71,.62-.2,.18-.41,.33-.6,.53-.18,.18-.42,.36-.52,.6-.03,.09-.09,.22-.03,.32,.07,.11,.21,.08,.31,.06,.3-.06,.59-.15,.88-.24,.37-.11,.74-.22,1.1-.36,.32-.12,.62-.21,.96-.26,.33-.04,.66-.11,.99-.15,.2-.02,.38-.05,.58-.05,.16,0,.32-.05,.48-.05,.3,0,.08,.32-.07,.41-.48,.28-.96,.59-1.51,.7-.62,.12-1.26,.22-1.86,.43-.43,.15-.86,.28-1.29,.44-.23,.09-.45,.19-.68,.28-.32,.14-.62,.31-.94,.45-.5,.22-.93,.54-1.39,.85-.42,.28-.81,.6-1.22,.91-.36,.27-.69,.56-1,.89-.28,.28-.54,.62-.7,.98-.16,.38-.37,.84-.38,1.26,0,.32,.18,.72,.45,.9,.32,.21,.71,.42,1.09,.41,.28,0,.54,0,.82-.05,.39-.07,.76-.23,1.17-.25,.43-.02,.86-.07,1.3-.02,.51,.05,.96,.16,1.43,.37,.44,.2,.84,.53,1.25,.8,.58,.38,1.07,.86,1.57,1.33,.27,.26,.52,.55,.81,.79,.23,.19,.47,.38,.71,.54,.55,.38,1.19,.62,1.83,.78,.51,.13,1.1,.22,1.61,.07,.38-.11,.73-.31,1.12-.41,.22-.06,.49-.06,.72-.01,.37,.08,.72,.11,1.11,.11,.19,0,.37-.03,.56-.04,.2-.02,.37,.03,.56,.07,.13,.03,.32,.11,.16,.25-.19,.16-.57,.11-.8,.11-.41,0-.81-.01-1.22,.05-.14,.02-.56,.08-.59,.27-.03,.25,.57,.24,.69,.22,.37-.05,.74-.08,1.11-.11,.46-.03,.91,.08,1.36,.13,.45,.05,.89,.18,1.35,.21,.2,.01,.38-.04,.58-.08,.32-.07,.61-.16,.91-.25,.5-.16,.99-.34,1.51-.45,.47-.1,.88-.09,1.35,0,.22,.04,.45,.07,.67,.11,.22,.03,.45,.02,.67,.05,.63,.07,1.29-.16,1.86-.39,.68-.29,1.32-.68,2.03-.9,.45-.14,.91-.21,1.38-.26,.11-.01,.23-.06,.34-.03,.06,.01,.11,.05,.16,.07,.15,.05,.17-.05,.22-.17,.05-.11,.13-.2,.16-.31,.03-.11,.06-.22,.1-.33,.04-.13,.04-.26,.08-.39,.03-.07,.23-.43,.31-.43h.01c.05,.02,.05,.13,.06,.21,0,.02,0,.04,0,.05,0,.05,.03,.11,.06,.16,.43,1.35,.74,2.76,.9,4.21-.16-.05-.33-.11-.49-.15-.24-.06-.49-.09-.74-.14-.23-.04-.45-.1-.68-.13-.48-.05-.99,.07-1.43,.24-.22,.09-.44,.16-.65,.28-.2,.11-.4,.21-.6,.3-.21,.09-.43,.18-.65,.26-.34,.11-.65,.29-.99,.41-.52,.18-1.03,.45-1.56,.58-.5,.12-.98,.24-1.5,.27-.44,.03-.88-.09-1.33-.03-.17,.02-.34,.08-.51,.11-.15,.02-.29,.09-.44,.1-.24,.01-.47,.02-.7,.05-.39,.04-.77,.08-1.16,.08-.29,0-.59,.03-.87,.07-.27,.04-.54,.05-.81,.09-.26,.04-.54,.11-.77,.22-.07,.03-.24,.11-.23,.21,0,.07,.11,.11,.16,.13,.19,.08,.39,.06,.59,.06,.17,0,.33-.02,.5-.04,.23-.02,.47,0,.7-.02,.75-.09,1.47,.02,2.21,.18,.45,.1,.91,.13,1.37,.06,.63-.09,1.23-.29,1.86-.39,1.1-.18,2.2-.38,3.29-.6,.53-.1,1.03-.28,1.56-.37,.23-.05,.47-.09,.7-.13,.32-.06,.65-.08,.97-.12,.48-.07,.95-.24,1.43-.3,.3-.04,.59-.07,.88-.09,.02,.4,.04,.81,.04,1.22Z"/><path class="cls-11" d="M314.71,334.95c-3.21,4.24-7.94,7.25-13.38,8.22,0,0-.01-.02-.02-.03-.29-.31-.61-.58-.93-.86-.35-.32-.7-.64-1.09-.92-.68-.49-1.42-.91-2.15-1.31-.78-.44-1.56-.89-2.41-1.16-.46-.15-.93-.32-1.41-.41-.59-.11-1.2-.14-1.8-.21-1.87-.21-3.86-.08-5.64,.56-.37,.13-.75,.27-1.1,.45-.03,.01-.05,.03-.08,.04-2.68-1.97-4.88-4.55-6.42-7.52,.19-.07,.43-.14,.59-.14s.32,0,.48,0c.28,0,.56,.14,.82,.23,.73,.26,1.45,.48,2.24,.39,.19-.02,.39-.05,.58-.1,.18-.05,.34-.14,.53-.17,.24-.04,.53-.02,.77-.01,.21,0,.4,.07,.61,.11,.19,.03,.38,.05,.56,.08,.2,.04,.38,.1,.59,.11,.22,0,.43-.02,.65-.05,.42-.05,.84-.16,1.24-.31,.32-.11,.61-.12,.95-.16,.83-.09,1.61,.2,2.4,.45,.45,.14,.9,.15,1.36,.19,.47,.04,.94,.05,1.41,.05,.72-.01,1.45-.09,2.17-.17,.29-.03,.58-.07,.86-.13,.53-.11,1.07-.18,1.6-.28,1.3-.26,2.62-.57,3.89-.97,.56-.18,1.1-.4,1.66-.58,.23-.07,.47-.13,.71-.17,.23-.05,.48-.11,.71,0,.14,.07,.22,.19,.15,.35-.07,.15-.31,.27-.44,.36-.21,.12-.42,.16-.64,.24-.41,.14-.81,.3-1.22,.44-.25,.08-.5,.12-.75,.18-.3,.07-.57,.18-.86,.29-.25,.1-.46,.25-.71,.35-.34,.13-.7,.22-1.04,.36-.88,.34-1.7,.85-2.63,1.05-.3,.06-.59,.16-.89,.26-.13,.04-.34,.12-.34,.3,0,.28,.4,.37,.6,.42,.31,.07,.6,.19,.91,.26,.21,.05,.39,.15,.58,.25,.29,.14,.55,.26,.86,.33,.67,.16,1.36,.27,2.05,.25,.96-.04,1.9-.23,2.86-.17,.42,.03,.8,.12,1.21,.23,.39,.1,.77,.16,1.17,.23,1.02,.17,2.08,.12,3.11,.06,.73-.04,1.46-.16,2.18-.3,.49-.1,1.02-.14,1.48-.34,.22-.09,.45-.14,.67-.24,.13-.06,.25-.12,.39-.17,.1-.04,.23-.11,.36-.15Z"/><path class="cls-11" d="M317.98,328.75c-.27,.78-.57,1.54-.91,2.28-.02,0-.03,.02-.05,.03-.26,.13-.5,.31-.7,.51-.16,.16-.36,.27-.55,.38-.13,.06-.25,.15-.38,.21-.15,.07-.28,.16-.42,.24-.23,.14-.43,.32-.63,.49-.07,.06-.13,.14-.21,.2-.06,.05-.12,.09-.18,.14-.11,.11-.22,.21-.35,.31-.25,.2-.55,.36-.83,.5-.19,.1-.39,.15-.59,.21-.22,.07-.44,.13-.67,.18-.22,.06-.44,.13-.66,.2-.24,.08-.48,.12-.74,.16-.39,.05-.78,.04-1.17,.13-.2,.04-.4,.11-.6,.15-.2,.04-.39,.11-.59,.14-.35,.05-.68,.05-1.03,0-.12-.02-.24-.01-.36-.02-.08,0-.16-.02-.23-.02-.05,0-.09,0-.14,0-.32-.05-.66,0-.98,.02-.33,.03-.66,.05-.99,.07-.16,.01-.32,0-.48-.01-.19-.02-.38,0-.57,.01-.41,.03-.83,0-1.23-.06,.01-.25,.11-.32,.17-.41,.03-.05,.04-.09,.09-.12,.06-.04,.13-.05,.2-.08,.05-.02,.09-.05,.15-.06,.11-.03,.23-.05,.35-.06,.12-.02,.25-.05,.38-.06,.15,0,.3,.01,.44,.02,.12,0,.25,.01,.38,.02,.24,.01,.48,.05,.71,.11,.22,.06,.45,.14,.68,.19,.71,.17,1.43,.44,2.17,.28,.09-.02,.18-.03,.27-.05,.16-.04,.31-.11,.48-.15,.42-.09,.85-.16,1.25-.3,.19-.06,.38-.13,.55-.22,.17-.09,.32-.2,.49-.28,.17-.08,.34-.17,.52-.25,.16-.07,.33-.15,.5-.22,.4-.17,.79-.37,1.17-.59,.36-.21,.69-.45,1.02-.7,.39-.29,.76-.62,1.16-.89,.29-.2,.59-.37,.9-.53,.18-.1,.43-.18,.57-.35,.16-.2,.27-.44,.41-.66,.15-.23,.33-.42,.55-.57,.11-.08,.22-.14,.32-.22,.12-.1,.25-.19,.37-.29Z"/><path class="cls-11" d="M310.95,304.38s.02,.07,.03,.11c-.04,.02-.05,0-.03-.11Z"/><path class="cls-11" d="M316.43,311.55c-.45,.45-1.04,.81-1.57,1.03-.81,.33-1.7,.25-2.55,.34-.16,.02-.28,.1-.43,.12s-.31-.03-.46,0c-.38,.04-.7,.12-1.1,.12-.52,0-.98,.12-1.5,.12-.48,0-1.22,.14-1.67-.02,.05-.22,.71-.33,.91-.41,.43-.18,.85-.24,1.31-.26,.27,0,.49-.1,.75-.12,.23-.02,.46,.03,.69-.02,.25-.05,.92-.19,.85-.56-.01-.07-.22-.31-.27-.35-.11-.1-.29-.16-.43-.2-.29-.06-.48-.04-.2-.34,.18-.2,.38-.53-.03-.62-.33-.07-.63,.08-.93,.13-.16,.03-.3-.02-.46,.02-.15,.04-.31,.14-.46,.18-.2,.05-.39,0-.59,.05-.22,.05-.37,.08-.6,.08-.78,.02-1.59,.51-2.37,.32-.32-.07-.63-.14-.95-.21-.47-.1-1.02,.06-1.48,.12-.59,.08-1.18,.14-1.77,.23-.34,.05-.77,.22-1.11,.09,.13-.14,.46-.16,.64-.21,.49-.13,1.01-.22,1.51-.32,.54-.11,1.1-.17,1.64-.23,.36-.05,.72,.02,1.07-.04,.97-.16,1.98-.33,2.91-.71,.89-.37,1.56-1.14,2.25-1.82,.35-.35,.77-.7,.97-1.17,.1-.24,.2-.55,.27-.8,.07-.25,.03-.55-.05-.86,2.11,1.74,3.89,3.88,5.21,6.3Z"/><path class="cls-11" d="M278.6,313.02c.22-.46,.4-1.08,.72-1.49,.08-.1,.21-.16,.3-.24,.15-.13,.36-.52,.59-.53,.3,0-.07,.46,.29,.44,.39-.03,.68-.43,.98-.62,.12-.08,.41-.21,.55-.17,.16,.04,.11,.1,.14,.26,.15-.01,.24-.09,.34-.2,.26-.25,.47-.49,.79-.67,.16-.08,.8-.51,1.01-.33,.21,.19-.39,.86-.47,.96-.35,.42-.6,1.01-.72,1.55-.19,.84,.46,1.82,1.18,2.18,.19,.09,.34,.22,.52,.33,.25,.16,.5,.21,.78,.28,.63,.15,1.23,.42,1.88,.5,.66,.07,1.38,.03,2.02-.11,.35-.07,.84-.15,1.18,.02,.26,.13,.42,.39,.59,.61,.18,.23,.52,.4,.76,.56,.32,.22,.7,.37,1.04,.56,.22,.12,.41,.29,.63,.41,.22,.13,.41,.19,.59,.36,.27,.26,.54,.56,.52,.96-.01,.24-.2,.26-.32,.45,.29,.22,.67,.25,.96,.46,.09,.06,.34,.17,.3,.31-.06,.22-.7,.17-.81,.17-1.25,0-2.51-.04-3.76,0-.43,.01-.88,.07-1.31,.16-.15,.03-.33,.07-.41,.22,.21,.18,.49,.22,.75,.25,.64,.08,1.27,.24,1.91,.33,.62,.09,1.15,.36,1.75,.5,.24,.06,.47,.14,.72,.2,.32,.07,.63,.06,.95,.09,1.3,.12,2.61-.19,3.92-.18,.5,0,.97-.02,1.46-.08,.46-.05,.83-.17,1.26-.32,.25-.09,.51-.12,.76-.2,.26-.08,.5-.19,.76-.25,.47-.11,.93-.19,1.41-.19,.42,0,.82,.11,1.24,.08,.66-.05,1.25-.32,1.9-.41,1.2-.16,2.33-.48,3.46-.93,.42-.17,.91-.24,1.36-.3,.13-.02,.24-.08,.37-.09,.12-.01,.22,.02,.34-.01,.25-.06,.46-.2,.67-.33,.29-.18,.6-.46,.92-.59,.34-.15,.73-.22,1.08-.34,.14-.05,.28-.11,.41-.15,.1-.03,.24-.02,.31-.09-.23,.22-.6,.27-.88,.39-.27,.11-.63,.27-.85,.46-.17,.15-.27,.29-.47,.41-.41,.24-.72,.55-1.2,.68-.72,.19-1.41,.5-2.14,.69-.74,.19-1.49,.31-2.22,.47-1.55,.34-3.16,.62-4.74,.77-.63,.06-1.27,.17-1.89,.32-.24,.06-.43,.21-.68,.26-.3,.07-.59,.18-.89,.28-.6,.2-1.21,.38-1.8,.61-.31,.12-.85,.12-.97,.5,.22,.16,.5,.11,.77,.11,.19,0,.42,.03,.6,0,.22-.04,.5-.16,.71-.25,.22-.1,.42-.18,.65-.26,.24-.09,.32-.18,.56-.18,.14,0,.28,.02,.42-.02,.12-.03,.19-.11,.34-.05-.06,.12-.33,.23-.45,.29-.17,.09-.33,.09-.48,.23-.16,.15-.24,.23,0,.35,.26,.13,.66,.07,.95,.07,.94-.03,1.83-.42,2.78-.22,.53,.11,1.04,.24,1.58,.33,.61,.1,1.33,.12,1.95,.05,.64-.08,1.27-.27,1.92-.33,.35-.03,.71-.13,1.05-.19,.45-.08,.9-.16,1.35-.24,.56-.1,1.13-.24,1.69-.33,.43-.07,.87-.1,1.3-.17,.14-.02,.27-.03,.41-.02,.15,.01,.1,.04,.21,.07,.16,.04,.26,.07,.41,.13,.13,.05,.4,.03,.43,.22-.96,.67-2.31,.75-3.41,1.06-.74,.21-1.47,.47-2.21,.7-.87,.27-1.75,.52-2.63,.8-.82,.26-1.63,.58-2.45,.85-.67,.22-1.33,.49-2.01,.69-.35,.1-.66,.27-1.01,.37-.34,.11-.67,.2-1.01,.32-.28,.1-.57,.18-.86,.26-.38,.1-.72,.26-1.09,.38-.38,.13-.77,.18-1.14,.33-.3,.12-.58,.25-.89,.33-.49,.13-.98,.25-1.47,.36-.35,.08-.68,.24-1.03,.31-.41,.08-.79,.09-1.2,.1-.38,.01-.74,.09-1.13,.09-.32,0-.65-.03-.97,.02-.53,.08-1.05,.07-1.58,.07-.2,0-.4,0-.6,0-.2,0-.48,.05-.67-.02,.03-.07,.38-.11,.5-.13,.22-.04,.47-.02,.69-.02,.24,0,.49,.02,.73-.02,.28-.04,.57-.03,.84-.08,.39-.08,.82-.12,1.2-.23,.23-.07,.41-.22,.63-.3,.19-.07,.38-.07,.57-.12,.31-.07,.6-.13,.92-.17,.17-.03,.35-.01,.52-.04,.29-.04,.53-.15,.8-.25,.46-.16,.89-.33,1.33-.52,.23-.1,.47-.22,.62-.43,.31-.44-.43-.36-.66-.3-.64,.16-1.28,.42-1.94,.47-.29,.02-.57,.07-.86,.08-.37,.02-.71,.09-1.08,.09-.35,0-.67,.08-1.02,.09-.48,.02-.97,.06-1.45,.1-.54,.05-1.07,.16-1.61,.22-.4,.05-.8,.06-1.21,.11-.59,.08-1.16,.24-1.75,.36-.33,.06-.65,.16-.97,.22-.35,.07-.7,0-1.05-.06-.59-.1-1.17-.14-1.75-.29-.8-.2-1.55-.65-2.15-1.2-.6-.55-1.27-.89-2.07-1.02-.63-.11-1.23,.03-1.82,.22-.47,.15-.9,.22-1.39,.19-.56-.03-.27-.51-.26-.89,.02-.98,0-1.95,.1-2.92,.03-.33,.34-3.27,.83-3.03,.05,.25,.08,.46,.1,.71,.02,.2,.18,.3,.2,.49,.14-.01,.28-.58,.31-.71,.11-.45,.23-.9,.32-1.36,.12-.58,.18-1.16,.12-1.75-.02-.2-.04-.47-.16-.64-.11-.15-.18-.12-.35-.12-.3,0-.43-.34-.43-.6,0-.46,.11-.88,.28-1.3,.16-.39,.36-.77,.49-1.17,.04-.14,.2-.54,.27-.47Z"/><path class="cls-11" d="M313.04,336.9c-1.92,1.99-4.22,3.62-6.78,4.76-.4-.11-.82-.29-1.23-.31-.25,0-.76-.02-.96-.23-.2-.21,.33-.26,.5-.29,.19-.03,.57,0,.64-.25,.15-.55-1.76-.73-2.08-.81-.55-.14-1.17-.12-1.73-.14-.34-.01-.7-.07-1.02-.18-.32-.11-.64-.16-.96-.26-.62-.19-1.29-.34-1.93-.42-.11,0-.83-.06-.86-.17,.34-.12,.73-.21,1.08-.27,.15-.02,.2,.03,.32,.06,.15,.04,.3,.04,.46,.08,1.51,.39,3.06,.4,4.61,.38,.21,0,.38-.08,.58-.09,.16-.01,.32,0,.48,0,.51,0,1.03-.07,1.52-.21,.44-.12,.91-.18,1.34-.31,.13-.04,.58-.09,.6-.25-.22-.08-.54-.01-.78-.01-.39,0-.77,0-1.16-.05-.45-.06-.91-.05-1.36-.11-.29-.04-.59-.02-.84-.21,.13-.17,.49-.21,.68-.24,.41-.07,.83-.11,1.24-.17,1.04-.14,2.09-.2,3.13-.25,.57-.03,1.14-.13,1.71-.11,.44,.02,.86,.1,1.3,.1,.33,0,.67-.02,1.01,0,.16,0,.32,0,.48-.03Z"/><g class="cls-22"><path class="cls-5" d="M286.92,316.01c-.06,.34-.23,.75-.05,1.09,.1,.18,.24,.24,.41,.32,.47,.24,1,.41,1.53,.33,.4-.06,.87-.14,1.23-.34,.27-.14,.41-.48,.48-.76,.07-.29,.06-.61-.22-.77-.07-.04-.14-.1-.22-.13-.11-.04-.28-.05-.39-.06-.29-.04-.58-.03-.87-.03-.2,0-.4,0-.6,0-.18,0-.35,.06-.53,.1-.28,.07-.62,.06-.78,.25Z"/><path class="cls-5" d="M290.73,317.18c.14-.14,.29-.27,.46-.37,.1,.08,.26,.09,.32,.23,.05,.13,.06,.21-.04,.32-.08,.1-.22,.15-.35,.12-.13-.03-.32-.09-.35-.25l-.04-.04Z"/><path class="cls-5" d="M289.3,318.04c.25-.12,.4-.21,.63-.27,.11-.03,.21-.09,.32-.12,.11-.02,.21-.05,.33-.05,.15,0,.22-.02,.32,.09,.08,.08,.14,.17,.21,.26,.08,.11,.12,.2,.09,.33-.04,.17-.14,.31-.26,.44-.17,.19-.46,.33-.69,.42-.24,.09-.64,.26-.9,.22-.14-.02-.3-.09-.43-.13-.22-.06-.45-.06-.68-.1-.24-.04-.53-.18-.44-.47,.09-.3,.52-.52,.8-.57,.13-.03,.26-.04,.39-.07,.11-.02,.17,0,.31,0Z"/><path class="cls-5" d="M291.9,317.57c-.13,.15-.21,.31-.24,.5,.06,0,.08,.03,.14,.03,.04,0,.07-.02,.11-.04,.1-.04,.17-.05,.2-.16,.02-.06,.02-.17-.02-.21-.03-.04-.19-.11-.24-.11h.04Z"/><path class="cls-5" d="M294.29,322.2c-.75-.07-1.49-.23-2.24-.22-.82,.01-1.69,.33-2.31,.86-.27,.23-.57,.45-.56,.84,0,.28,.17,.46,.38,.62,.35,.26,.75,.36,1.16,.47,.4,.11,.8,.21,1.22,.25,.38,.04,.76,.06,1.15,.01,.39-.05,.79-.18,1.17-.29,.29-.09,.65-.22,.82-.49,.11-.18,.18-.36,.18-.57,0-.42,.03-.82-.28-1.15-.19-.2-.39-.33-.68-.33Z"/><path class="cls-5" d="M296.19,322.24c.06,.19,.15,.36,.27,.51,.09-.09,.34-.04,.46-.04,.12,0,.21-.03,.32-.04,.18-.03,.42-.05,.42-.28,0-.28-.32-.33-.54-.33-.3,0-.62-.06-.85,.17h-.09Z"/><path class="cls-5" d="M289.61,325.28c.29,.04,.57,.07,.86,.1,.29,.02,.57,.04,.85,.12,.18,.05,.3,.08,.4,.24,.05,.09,.09,.14,.04,.24-.07,.15-.23,.21-.37,.26-.22,.09-.43,.19-.67,.24-.48,.1-.96,.26-1.46,.24-.23,0-.53-.12-.65-.34-.12-.22-.15-.44-.04-.67,.13-.27,.38-.43,.67-.43,.11,0,.2,0,.31,.04,.07,.02,.19,.03,.06-.04Z"/><path class="cls-5" d="M277.39,324.28c-.06,.44-.1,.86-.09,1.3,0,.17,.07,.37,.22,.46,.17,.1,.49,.09,.66,.03,.26-.08,.52-.27,.76-.41,.18-.11,.26-.26,.39-.42,.21-.25,.29-.57,.35-.88,.07-.35,.06-.74,.03-1.1-.03-.34-.18-.69-.31-1-.13-.31-.35-.5-.7-.46-.26,.03-.54,.19-.76,.31-.17,.09-.27,.25-.38,.41-.09,.14-.12,.33-.17,.49-.05,.14-.06,.29-.09,.43-.06,.29-.02,.67,.08,.82Z"/><path class="cls-5" d="M278.6,320.9c-.04-.2-.16-.49-.07-.68,.02-.04,.05-.08,.07-.12,.04-.07,.1-.13,.18-.15,.21-.03,.39,.18,.43,.36,.04,.17,.06,.41-.05,.57-.07,.1-.34,.23-.44,.11l-.13-.09Z"/><path class="cls-5" d="M279.08,319.17c-.04-.56-.24-1.23,.13-1.73,.13-.17,.33-.43,.57-.4,.15,.02,.29,.19,.38,.29,.15,.16,.24,.37,.3,.57,.06,.18,.13,.37,.13,.55,0,.2-.04,.46-.11,.65-.1,.26-.32,.52-.6,.6-.19,.06-.38,0-.55-.11-.12-.08-.27-.27-.26-.42Z"/><path class="cls-5" d="M278.69,316.44c.04,.19,.12,.36,.23,.51,.05-.05,.13-.04,.2-.07,.08-.03,.16-.09,.2-.16,.06-.09,.09-.22,.06-.33-.03-.11-.21-.23-.3-.29-.18-.14-.29,.03-.43,.16l.04,.17Z"/><path class="cls-5" d="M298.58,325.02c.21-.1,.48-.27,.73-.32,.15-.04,.3-.1,.45-.14,.37-.11,.77-.14,1.15-.17,.21-.02,.42-.01,.64-.05,.16-.03,.31-.06,.47-.08,.47-.06,.92-.2,1.39-.26,.22-.03,.46-.08,.68-.1,.14,0,.28-.04,.43-.04,.27,0,.54-.04,.81-.05,1.03-.01,1.95,.38,2.92,.66,.22,.06,.44,.11,.67,.16,.29,.05,.65,.16,.94,.09,.32-.08,.21-.4,0-.55-.24-.17-.54-.22-.83-.22-.16,0-.35-.02-.5,0-.25,.04-.66,.13-.71,.43-.02,.1,.01,.21,.02,.32,0,.07,0,.14,0,.21-.03,.23-.31,.47-.5,.59-.11,.07-.22,.1-.32,.18-.13,.09-.25,.15-.39,.22-.21,.11-.42,.19-.62,.3-.14,.08-.28,.11-.43,.17-.4,.16-.79,.34-1.21,.45-.33,.09-.64,.23-.97,.3-.19,.05-.36,.14-.55,.21-.09,.03-.18,.06-.27,.08-.15,.03-.27,.09-.42,.13-.53,.13-1.02,.36-1.56,.36-.23,0-.37,0-.49-.21-.13-.2-.22-.4-.3-.62-.09-.23-.2-.47-.43-.59-.25-.14-.53-.17-.77-.34-.22-.15-.3-.38-.3-.65,0-.1,0-.19,.05-.27,.05-.07,.14-.11,.25-.17Z"/><path class="cls-5" d="M309.84,323.76c.18-.03,.36-.08,.54-.15,.03-.01,.06-.02,.09-.03,.07-.01,.17,0,.24,0,.09,0,.25-.03,.33,.04,.13,.12,.02,.25-.1,.34-.05,.04-.17,.08-.24,.09-.04,0-.07,0-.11,0-.05,0-.08,.05-.13,.05-.03,0-.13-.04-.16-.05-.05-.01-.12-.02-.16-.05-.09-.06-.07-.19-.15-.25h-.13Z"/><path class="cls-5" d="M292.95,334.24c-.58,.08-1.13,.07-1.61,.41-.17,.12-.37,.29-.5,.46-.33,.41,.42,.47,.7,.51,.57,.07,1.11,.21,1.63,.44,.46,.2,.96,.33,1.45,.16,.32-.11,.59-.18,.74-.51,.13-.31-.01-.63-.26-.82-.32-.25-.64-.5-1.01-.66-.43-.18-.77-.18-1.22-.06l.08,.08Z"/><path class="cls-5" d="M292.04,333.47s-.29,.17-.32,.23c-.02,.05-.01,.08,.03,.12,.12,.1,.32,.11,.47,.12,.11,0,.21-.02,.32-.03,.07,0,.12,0,.19-.02,.13-.03,.22-.07,.33-.14,.08-.05,.07-.15,.06-.24-.01-.11-.06-.19-.16-.23-.3-.13-.67,.02-.93,.17l.03,.03Z"/><path class="cls-5" d="M289.32,335.77c.08,0,.34-.05,.47-.02,.08,.02,.16,.05,.24,.06,.23,.05,.46,.08,.69,.14,.17,.04,.26,.07,.36,.21,.07,.09,.12,.14,.1,.26-.07,.47-.62,.59-1.01,.63-.31,.04-.63,.02-.94-.03-.34-.05-.68-.08-1.02-.15-.24-.05-.48-.1-.72-.17-.16-.04-.31-.08-.41-.23-.16-.25-.05-.52,.19-.65,.36-.2,.83-.19,1.22-.16,.15,.01,.29,.04,.44,.05,.13,0,.25,.07,.38,.06Z"/></g><path class="cls-11" d="M299.27,311.5c-.23,.1-.47,.25-.73,.22-.13-.01-.27-.03-.4-.06-.2-.04-.41-.08-.61-.12-.21-.05-.42-.04-.64-.04-.38,0-.76,.04-1.14,.04-.34,0-.66-.01-1-.06-.31-.05-.6-.14-.9-.21-.12-.03-.24-.08-.36-.1-.15-.03-.3-.02-.45-.04-.29-.04-.58-.04-.87-.13-.09-.03-.2-.07-.25-.16-.02-.04-.07-.16-.04-.2,.06-.1,.31-.05,.39-.03,.26,.09,.5,.18,.74,.32,.41,.25,.96,.09,1.42,.16,.19,.03,.39-.02,.59,0,.13,.02,.23,.11,.35,.16,.13,.05,.32,.03,.45,.02,.35-.04,.71-.16,1.03-.3,.37-.17,.76-.34,1.17-.35,.34,0,.68,0,1.01,.1,.2,.06,.36,.18,.42,.38,.05,.18-.1,.25-.16,.39Z"/><path class="cls-11" d="M297.92,304.78c.16,0,.31,.02,.46,.04-.12,.01-.25,.03-.37,.05-.09,.02-.16,.03-.25,.03-.07,0-.45,.04-.31-.09,.1-.08,.36-.04,.47-.04Z"/><path class="cls-11" d="M308.28,303.18s0,.01-.01,.02c-.23,.35-.4,.65-.69,.94-.27,.27-.51,.45-.86,.63-.39,.2-.79,.39-1.23,.49-.43,.1-.89,.21-1.33,.21-.33,0-.67-.05-1-.08-.42-.04-.84-.09-1.25-.15-.32-.05-.65-.09-.97-.13-.32-.05-.64-.13-.97-.16-.23-.02-.47-.04-.7-.05-.14,0-.27-.05-.41-.05-.1,0-.19,0-.28,0-.07-.01-.14-.02-.21-.04,.1,0,.19-.02,.29-.03,.26-.04,.53-.02,.79-.05,.25-.02,.5-.01,.75-.05,.43-.05,.86-.09,1.29-.09,.4,0,.8,.03,1.2,0,.1,0,.26-.04,.32-.13,.06-.11,.09-.21-.02-.29-.12-.09-.64-.22-.57-.44,.02-.06,.16-.07,.23-.09,.24-.04,.49-.05,.74-.09,.15-.03,.28-.09,.43-.12,.12-.04,.25-.05,.38-.09,.17-.05,.38-.08,.55-.09,.4-.02,.84,.15,1.23,0,.21-.08,.33-.17,.46-.34,.05-.07,.12-.12,.18-.19,.07-.1,.13-.19,.21-.28,.43,.2,.84,.42,1.25,.65-.05,.02-.08,.06,.13,.07,.02,0,.04,0,.06,0Z"/><path class="cls-11" d="M308.07,304.31c-.32,.32-.61,.61-.98,.86-.32,.21-.7,.35-1.05,.5-.27,.12-.54,.19-.83,.25-.14,.03-.27,.06-.41,.11-.05,.02-.16,.03-.2,.07-.09,.09-.03,.18,.06,.21,.25,.08,.51,.02,.76-.01,.5-.06,1.02-.1,1.5-.23,.32-.08,.62-.19,.9-.37,.33-.21,.75-.44,.92-.81,.11-.24,.18-.49-.06-.66-.12-.08-.2-.14-.35-.14-.07,0-.37,0-.26,.22Z"/><path class="cls-4" d="M314.92,309.17c-.47-.05-.92-.19-1.35-.37-.12-.05-.79-.47-.31-.48,0-.11-.27-.33-.34-.42-.1-.13-.2-.26-.31-.38-.15-.16-.28-.16-.47-.24-.23-.1-.42-.28-.65-.38-.52-.22-.98-.48-1.56-.38-.39,.07-.79,.4-1.13,.6-.46,.27-1.01,.4-1.51,.54-.9,.25-1.84,.47-2.77,.61-.55,.09-1.11,.11-1.66,.21-.23,.05-.45,.11-.68,.11-.32,.02-.64-.03-.95,.02-.62,.09-1.23,.07-1.86,.06-.17,0-.94,.12-1.01-.15,.26-.15,.66-.15,.95-.18,.45-.05,.9-.08,1.35-.11,1.25-.07,2.49-.48,3.71-.73,.59-.12,1.17-.28,1.75-.43,.28-.07,.57-.12,.84-.23,.29-.11,.55-.27,.85-.38,.44-.16,.75-.31,1.09-.6,.1-.08,.2-.13,.26-.26,.16-.36-.38-.56-.63-.7-.22-.12-.47-.29-.71-.37-.38-.13-.77-.23-1.15-.38-.46-.2-.94-.27-1.42-.42-.36-.11-.72-.22-1.08-.33-.26-.07-.52-.14-.78-.19-.11-.02-.32,0-.33-.15,.08-.03,.16,0,.25-.04-.04-.17-1.05-.25-1.23-.24-.37,0-.72-.09-1.09-.09-.39,0-.76,.08-1.14,.09-.72,.03-1.44,0-2.16,0-.28,0-.58,.02-.86,0-.16,0-.28-.08-.44-.11,.02-.18,.69-.3,.86-.35-.11-.27-1.04-.24-1.27-.24-.44,0-.86,.02-1.31,.07-.41,.05-.83,0-1.24,.03-.31,.02-.64,.14-.94,.06-.03,0-.33-.07-.34-.08-.12-.15,.18-.37,.25-.43,.38-.36,1.02-.5,1.47-.69-.06-.15-.1-.29-.11-.41,1.22-.21,2.47-.32,3.75-.32,3.36,0,6.53,.76,9.36,2.13,.43,.2,.84,.42,1.25,.65,.04,.02,.09,.05,.13,.07,.01,0,.03,.02,.05,.03,1.04,.6,2.03,1.29,2.95,2.05,1.39,1.15,2.63,2.47,3.7,3.92Z"/><path class="cls-58" d="M319.08,321.92c0,.5-.02,1.01-.05,1.5-.12,1.85-.48,3.64-1.05,5.33h0s-.01,.05-.02,.06c.05-.21,.06-.41,.07-.63,0-.14,.07-.22,.1-.35,.02-.12,0-.3,0-.42v-1.84c0-.36,.09-.7,.09-1.05,0-.19,0-.37,0-.56,0-.2,.07-.35,.09-.54,.05-.54-.16-1.05-.18-1.57-.01-.25,0-.49,0-.74,0-.13-.04-.18-.07-.3-.03-.14,0-.27-.01-.41,0-.15-.07-.24-.1-.39-.02-.11,0-.25,0-.37,0-.24,0-.43-.07-.65-.03-.11,0-.23-.04-.35-.02-.1-.08-.2-.11-.3-.07-.22-.17-.43-.24-.65-.13-.43-.33-.84-.32-1.3,0-.46-.19-.86-.32-1.3-.14-.46-.45-.77-.7-1.15-.15-.22-.05-.39-.11-.62-.04-.13-.16-.29-.27-.38-.15-.11-.46-.18-.64-.2-.23-.02-.4,.15-.64,.07,.03-.13,.42-.29,.56-.32,.18-.04,.5,0,.55-.27,.03-.19-.2-.34-.31-.46-.07-.08-.11-.16-.17-.24-.08-.11-.19-.11-.29-.19-.1-.09-.15-.18-.26-.26-.08-.07-.12-.15-.19-.22-.15-.15-.32-.33-.5-.45-.4-.27-.75-.4-1.22-.5-.19-.04-.38-.05-.54-.17-.13-.1-.22-.24-.3-.37-.14-.21-.14-.26,.05-.43,.14-.14,.22-.32,.17-.52-.08-.31-.26-.81-.52-1.02-.31-.25-.57-.35-.95-.43-.17-.04-.35,0-.53-.04-.12-.03-.21-.06-.34-.07-.27,0-.48-.09-.74-.08h-.87c-.2,0-.51,.05-.7-.02,.04-.16,.38-.24,.52-.31,.26-.11,.56-.27,.78-.44,.21-.15,.33-.26,.49-.46,.1-.12,.21-.24,.33-.34-.27-.23-.5-.39-.83-.54-.33-.16-.7-.28-1.04-.41-.31-.11-.65-.16-.97-.24-.43-.11-.71-.32-1.02-.63-.27-.27-.49-.44-.83-.6-.28-.13-.57-.15-.88-.2-.15-.03-.28-.06-.43-.07-.16,0-.33,.03-.48,0-.21-.03-.37-.1-.59-.09-.17,0-.35,.02-.52-.02s-.34-.05-.52-.09c-.5-.12-.77-.61-1.1-.96-.21-.21-.36-.2-.63-.26-.33-.08-.69-.16-1.04-.16-.4,0-.81,0-1.21,0-.25,0-.43,.02-.67,.07-.21,.04-.4,0-.6,.01-.36,.04-.7,.16-1.07,.18-.18,0-.27-.06-.43-.09-.12-.02-.33,.06-.44,0-.23-.1,.27-.51-.27-.44-.59,.07-1.15,.25-1.74,.38-.59,.12-1.2,.29-1.77,.49-.35,.12-.73,.27-1.06,.43-.57,.29-1.07,.48-1.69,.68,1.88-.97,3.93-1.66,6.08-2.04,1.22-.21,2.47-.32,3.75-.32,3.36,0,6.53,.76,9.36,2.13,.43,.2,.84,.42,1.25,.65,.04,.02,.09,.05,.13,.07,.01,0,.03,.02,.05,.03,1.04,.6,2.03,1.29,2.95,2.05,1.39,1.15,2.63,2.47,3.7,3.92,.55,.75,1.06,1.55,1.51,2.38,.59,1.06,1.08,2.17,1.48,3.33,.02,.07,.05,.14,.07,.21,.02,.07,.05,.14,.07,.21,.43,1.35,.74,2.76,.9,4.21,.04,.39,.08,.79,.1,1.19,.02,.4,.04,.81,.04,1.22Z"/><path class="cls-59" d="M319.05,320.7c-.02-.4-.05-.8-.1-1.19-.16-1.45-.47-2.86-.9-4.21-.02-.07-.05-.14-.07-.21-.03-.07-.05-.14-.07-.21-.4-1.16-.89-2.27-1.48-3.33-.45-.83-.96-1.62-1.51-2.38-1.06-1.45-2.31-2.77-3.7-3.92-.92-.76-1.91-1.45-2.95-2.05-.01,0-.03-.02-.05-.03-.04-.02-.09-.05-.13-.07-.41-.23-.82-.45-1.25-.65-2.83-1.37-6.01-2.13-9.36-2.13-1.28,0-2.53,.11-3.75,.32-2.15,.38-4.2,1.07-6.08,2.04-2.46,1.26-4.65,2.98-6.45,5.05,0,0,0,0,0,0-.14,.16-.27,.33-.41,.49,1.77-1.99,3.91-3.66,6.31-4.89,1.88-.97,3.93-1.66,6.08-2.04,1.22-.21,2.47-.32,3.75-.32,3.36,0,6.53,.76,9.36,2.13,.43,.2,.84,.42,1.25,.65,.04,.02,.09,.05,.13,.07,.01,0,.03,.02,.05,.03,1.04,.6,2.03,1.29,2.95,2.05,1.39,1.15,2.63,2.47,3.7,3.92,.55,.75,1.06,1.55,1.51,2.38,.59,1.06,1.08,2.17,1.48,3.33,.02,.07,.05,.14,.07,.21,.02,.07,.05,.14,.07,.21,.43,1.35,.74,2.76,.9,4.21,.04,.39,.08,.79,.1,1.19,.02,.4,.04,.81,.04,1.22,0,.5-.02,1.01-.05,1.5-.12,1.85-.48,3.64-1.05,5.33h0s-.01,.05-.02,.06c-.26,.76-.55,1.5-.89,2.22-.64,1.39-1.44,2.7-2.36,3.91-.15,.2-.31,.39-.47,.59,.36-.4,.71-.82,1.03-1.25,.91-1.21,1.71-2.52,2.36-3.91,.34-.72,.64-1.46,.89-2.22,0-.02,.02-.04,.02-.06h0c.56-1.7,.92-3.49,1.05-5.34,.04-.49,.05-1,.05-1.5,0-.41-.01-.82-.04-1.22Z"/><path class="cls-3" d="M304.95,316.86c.28,.04,.56,.06,.85,.05-.02-.09,.14-.1,.13-.21-.14-.09-.23-.14-.4-.13-.1,0-.38,.06-.4,.17l-.17,.12Z"/><path class="cls-3" d="M298.96,306.92c.28,.04,.56,.06,.85,.05-.02-.09,.14-.1,.13-.21-.14-.09-.23-.14-.4-.13-.1,0-.38,.06-.4,.17l-.17,.12Z"/><path class="cls-3" d="M295.63,337.09c.28,.04,.56,.06,.85,.05-.02-.09,.14-.1,.13-.21-.14-.09-.23-.14-.4-.13-.1,0-.38,.06-.4,.17l-.17,.12Z"/><path class="cls-3" d="M280.77,320.72c.28,.04,.56,.06,.85,.05-.02-.09,.14-.1,.13-.21-.14-.09-.23-.14-.4-.13-.1,0-.38,.06-.4,.17l-.17,.12Z"/><path class="cls-2" d="M310.32,329.39c.13-.22,.3-.4,.49-.56,.04,.14,.21,.16,.28,.27,.08,.13,.05,.37,0,.51-.19,.5-.74,.73-1.22,.83-.16,.03-.33,.11-.47-.02-.12-.11-.16-.27-.06-.39,.09-.11,.29-.23,.41-.3,.08-.05,.27-.13,.29-.22l.29-.12Z"/><path class="cls-3" d="M312.46,329.22c-.2,.18-.39,.36-.58,.54,.07,.12,.32-.09,.4-.13,.07-.03,.16-.02,.22-.08,.05-.05,.13-.21,.01-.22l-.06-.12Z"/><path class="cls-3" d="M308.75,321.63c-.2,.18-.39,.36-.58,.54,.07,.12,.32-.09,.4-.13,.07-.03,.16-.02,.22-.08,.05-.05,.13-.21,.01-.22l-.06-.12Z"/><path class="cls-3" d="M290.99,302.17c-.2,.18-.39,.36-.58,.54,.07,.12,.32-.09,.4-.13,.07-.03,.16-.02,.22-.08,.05-.05,.13-.21,.01-.22l-.06-.12Z"/><path class="cls-2" d="M282.07,323.44c-.05,.26-.04,.5,.03,.74-.01,.08,.01,.13,.08,.13,.06,.06,.17,.11,.25,.17,.09,.06,.28,.19,.39,.16,.08-.02,.24-.18,.28-.25,.06-.12,.08-.31,.04-.43-.07-.23-.17-.57-.41-.67-.09-.04-.2-.07-.29-.09-.15-.02-.17,0-.26,.12l-.12,.12Z"/><path class="cls-2" d="M290.99,310.28s-.08,.08-.1,.12c-.01,.01-.02,.02,0,.03,0,.02,.01,.04,.01,.06,0,.02,.02,.07,.04,.08,.01,0,.07,0,.08,0,.03-.01,.06-.04,.07-.06,.02-.05,.06-.12,.03-.17,0-.02-.02-.04-.03-.06-.02-.03-.03-.02-.06-.02h-.04Z"/><path class="cls-2" d="M291.02,311.24c-.05,.26-.04,.5,.03,.74-.01,.08,.01,.13,.08,.13,.06,.06,.17,.11,.25,.17,.09,.06,.28,.19,.39,.16,.08-.02,.24-.18,.28-.25,.06-.12,.08-.31,.04-.43-.07-.23-.17-.57-.41-.67-.09-.04-.2-.07-.29-.09-.15-.02-.17,0-.26,.12l-.12,.12Z"/><path class="cls-3" d="M283.74,308.36c.25,.04,.63,.17,.88,.06,.1-.04,.24-.18,.33-.24,.14-.1,.35-.19,.45-.34,.12-.18,.08-.37-.12-.45-.39-.16-1.45-.03-1.43,.56l-.12,.4Z"/><path class="cls-2" d="M305.06,315.06c.25,.04,.63,.17,.88,.06,.1-.04,.24-.18,.33-.24,.14-.1,.35-.19,.45-.34,.12-.18,.08-.37-.12-.45-.39-.16-1.45-.03-1.43,.56l-.12,.4Z"/><path class="cls-6" d="M282.46,322.22c.03,.06,.18,.5,.34,.32,.1-.1,.09-.31,.02-.43-.04-.06-.14-.21-.23-.17-.05,.02-.05,.06-.07,.1-.03,.09-.02,.15,.02,.24l-.09-.06Z"/><path class="cls-6" d="M283.04,323.11c0-.09,.02-.18,.07-.26,.03,.03,.07,.02,.1,.04,.03,.02,.05,.06,.07,.09,.04,.05,.09,.13,.06,.21-.02,.05-.08,.08-.13,.09-.05,.01-.15-.03-.15-.1l-.02-.07Z"/><path class="cls-3" d="M284.06,335.55c.17,.24,.3,.49,.51,.68,.15,.13,.27,.29,.42,.43,.21,.19,.45,.4,.72,.51,.14,.06,.15,0,.1-.14-.09-.23-.28-.29-.47-.43-.24-.17-.53-.33-.71-.57-.14-.18-.26-.48-.56-.48Z"/><path class="cls-3" d="M284.19,335.16c.04,.11-.21-.5-.18-.57,0-.02,.04-.06,.06-.07,.07-.04,.15,0,.17,.08,.04,.14,0,.37,0,.52l-.04,.04Z"/><path class="cls-3" d="M311.36,328.15c.07-.07,.15-.13,.23-.19,.02,.02,.05,0,.07,.02,.04,.02,.07,.07,.09,.11,.04,.09-.02,.16-.09,.21-.09,.07-.37,.07-.35-.1l.04-.04Z"/><path class="cls-3" d="M284.32,317.25c.07-.07,.15-.13,.23-.19,.02,.02,.05,0,.07,.02,.04,.02,.07,.07,.09,.11,.04,.09-.02,.16-.09,.21-.09,.07-.37,.07-.35-.1l.04-.04Z"/><path class="cls-6" d="M284.59,323.92c.14-.14,.29-.27,.46-.37,.04,.04,.1,.01,.15,.03,.08,.03,.14,.14,.18,.21,.08,.17-.04,.32-.18,.42-.18,.13-.74,.14-.69-.21l.09-.09Z"/><path class="cls-8" d="M289.78,310.58c.14-.14,.29-.27,.46-.37,.04,.04,.1,.01,.15,.03,.08,.03,.14,.14,.18,.21,.08,.17-.04,.32-.18,.42-.18,.13-.74,.14-.69-.21l.09-.09Z"/><path class="cls-3" d="M306.59,340.18c.11-.11,.3-.36,.46-.47,.09-.07,.22-.12,.32-.17,.07-.04,.17-.08,.25-.04,.13,.07,.12,.25,.05,.36-.1,.18-.34,.33-.52,.4-.08,.03-.44,.11-.43-.08h-.13Z"/><g><path class="cls-57" d="M126.74,186.89c0,6.42-3.51,12.02-8.72,14.98-2.51,1.45-5.42,2.26-8.52,2.26-9.52,0-17.24-7.72-17.24-17.24,0-.41,.01-.81,.05-1.21,.62-8.95,8.08-16.03,17.19-16.03s17.24,7.72,17.24,17.24Z"/><path class="cls-56" d="M125.89,187.27c0,6.28-3.42,11.76-8.5,14.65-2.45,1.41-5.29,2.21-8.31,2.21-9.29,0-16.82-7.55-16.82-16.87,0-.4,.01-.8,.05-1.19,.6-8.76,7.88-15.68,16.77-15.68s16.82,7.56,16.82,16.87Z"/><path class="cls-55" d="M92.3,186.61c-.03,.38-.05,.76-.05,1.15,0,9.04,7.24,16.37,16.17,16.37,2.91,0,5.64-.77,7.99-2.15,4.88-2.81,8.17-8.13,8.17-14.23,0-.32-.22-.81-.23-1.17,0-.19,.01-.38,0-.57-.01-.41-.09-.8-.09-1.21,0-.21,.02-.42,0-.63-.01-.18-.09-.35-.1-.54-.02-.39-.15-.77-.07-1.17,.05-.26,.17-.51-.1-.69-.18-.12-.24-.07-.37-.29-.1-.17-.2-.29-.33-.43-.19-.2-.45-.41-.58-.65-.03-.05-.15-.18-.15-.23-.01-.11,.11-.19,.06-.29-.22-.05-.46,.03-.69-.02-.27-.06-.32-.32-.35-.57-.02-.17,.02-.25,.06-.41,.04-.14,.02-.28,.02-.42v.22c0-.25,.07-.61-.01-.85-.06-.17-.3-.44-.43-.56-.23-.22-.42-.21-.7-.29-.36-.1-.3-.5-.46-.79-.08-.13-.16-.2-.27-.31-.25-.25-.46-.57-.67-.85-.39-.52-.69-.51-1.3-.54-.54-.03-1.23-.24-1.71-.47-.72-.34-1.43-.79-2.25-.64-.48,.09-.93,.37-1.42,.4-.45,.02-.78-.18-1.16-.38-.79-.43-1.5-.97-2.42-1.12-.76-.13-1.62-.21-2.4-.09-.86,.13-1.63,.45-2.44,.74-.92,.33-1.62,1.03-2.41,1.57-.67,.46-1.51,.56-2.16,1.05-.24,.18-.56,.47-.72,.74-.07,.13-.1,.28-.17,.41-.11,.22-.29,.4-.45,.58-1.38,1.54-3.74,2.09-4.75,3.89-.17,.3-.59,1.91-.69,2.23-.19,.63,1.21,1.08,1.04,1.71-.05,.19-.19,.35-.28,.52-.09,.17-.17,.39-.31,.52-.19,.17-.67,.22-.85,.45Z"/><path class="cls-10" d="M123.02,192.36c-.13-.73-.59-1.32-.99-1.93-.3-.45-.65-.88-.96-1.33-.23-.33-.46-.71-.74-1.01-.31-.33-.79-.81-.55-1.32,.13-.28,.45-.43,.67-.62,.23-.22,.43-.48,.62-.74,.23-.29,.24-.55,.35-.89,.12-.38,.2-.63,.11-1.02-.08-.32,.02-.58-.19-.86-.16-.22-.4-.4-.64-.52-.47-.26-.84-.47-1.16-.9-.18-.23-.26-.5-.53-.63-.27-.13-.57-.06-.86-.1-.38-.04-1.09-.11-1.37-.43-.49-.55,0-1.46-.69-1.85-.43-.24-.91-.48-1.42-.49-.78-.01-1.61,.24-2.35,.43-.7,.18-1.38,.62-1.53,1.37-.05,.23,.03,.45,.07,.67,.06,.28,.1,.52,.23,.79,.55,1.12,1.88,1.57,2.92,2.11,.84,.44,1.06,1.34,.74,2.2-.19,.52-.74,.9-1.11,1.29-.25,.27-.52,.52-.77,.79-.22,.25-.38,.56-.56,.84-.4,.62-.62,1.32-1.08,1.91-.44,.55-.86,1.09-1.53,1.36-.6,.25-1.25,.15-1.88,.24-.56,.08-1.15,.1-1.72,.07-.31-.01-.6-.1-.92-.09-.34,0-.64-.02-.97-.09-.67-.15-1.39-.4-1.98-.76-.39-.23-.72-.59-.84-1.03-.11-.43-.06-1.14,.15-1.52,.4-.75,1.44-1.11,2.25-.94,.78,.16,1.5,.73,2.2,1.08,.71,.35,1.36,.47,2.01-.02,.26-.2,.35-.38,.53-.64,.11-.16,.29-.26,.45-.37,.55-.41,1.07-.82,1.53-1.34,.43-.49,.83-.94,.8-1.63-.02-.57-.26-.98-.61-1.42-.32-.4-.58-.8-.81-1.28-.2-.43-.59-.68-1.06-.79-.42-.09-.94-.13-1.33,.09-.13,.07-.21,.18-.3,.3-.06,.1-.09,.16-.19,.26-.19,.2-.36,.47-.54,.68-.24,.3-.52,.53-.82,.77-.45,.37-1.03,.54-1.61,.33-.43-.16-.91-.3-1.23-.63-.49-.49-.36-1.4-.43-2.02-.09-.77-.13-1.57-.43-2.3-.11-.28-.32-.69-.58-.86-.21-.13-.48-.13-.73-.08-.43,.07-.81,.36-1.15,.6-.48,.33-.64,.76-.89,1.26-.52,1.05-.89,2.14-1.37,3.21-.27,.6-.43,1.23-.31,1.9,.13,.74,.04,2.1-1.01,2.13-1.16,.03-1.32-1.33-1.7-2.14-.06-.12-.3-.77-.53-.49-.04,.05-.02,.38-.05,.46-.05,.18-.11,.34-.14,.52-.09,.44-.52,.78-.99,.77-.07,0-.13-.01-.19-.04-.04,.4-.05,.8-.05,1.21,0,9.52,7.72,17.24,17.24,17.24,3.1,0,6.02-.81,8.52-2.26-.27-.28-.59-.5-.89-.67-.51-.27-1.11-.35-1.64-.55-.45-.18-.95-.24-1.41-.39-.38-.13-.81-.27-1.14-.5-.18-.13-.25-.38-.38-.55-.1-.13-.16-.28-.26-.42-.29-.39-.74-.84-.74-1.37s.45-.88,.93-.9c.57-.03,1.16,.16,1.7,.3,.42,.1,.83,.28,1.23,.43,.3,.11,.62,.21,.89,.38,.42,.26,.86,.5,1.36,.52,.53,.02,.86-.12,1.32-.35,.62-.32,.94-1,1.35-1.54,.19-.25,.33-.55,.55-.77,.13-.13,.3-.24,.43-.37,.26-.24,.49-.45,.79-.64,.14-.09,.35-.14,.47-.26,.11-.1,.18-.3,.24-.43,.21-.43,.27-.96,.19-1.42Zm-15.27-8.69c.21,.04,.46,.16,.6,.31,.17,.18,.36,.63,.33,.87-.03,.2-.09,.52-.27,.65-.23,.17-.62,.2-.9,.25-.17,.04-.33,.07-.5,.04-.1-.02-.3-.03-.39-.06-.5-.2-.39-.95-.41-1.33l-.13-.06c.46-.43,1.03-.78,1.68-.66Zm-8.79,4.57c-.26-.03-.45-.07-.58-.3-.17-.27-.18-.57-.17-.87,0-.6,.18-1.22,.4-1.78,.25-.63,.56-1.13,.94-1.71-.4,.24,.04-.23,.47-.4,.28-.11,.57-.23,.88-.18,.65,.08,1.35,.78,1.62,1.36,.23,.49,.13,1.02,.06,1.53,0,.01,0,.02,0,.04,.2-.21,.45-.45,.74-.43,.37,.02,.65,.41,.67,.76,.01,.39-.28,.64-.65,.65-.26,0-.59-.05-.72-.29-.11-.21-.08-.47-.05-.69l-.06,.06c-.61,.6-1.28,1.12-1.89,1.71-.43,.41-1.08,.6-1.66,.54Zm9.29,10.21c-.14,.43-.41,.87-.81,1.11-.54,.3-1.33,.33-1.92,.26-.69-.09-1.37-.23-2.05-.4-.79-.19-1.47-.55-2.01-1.17-.79-.94-1.17-2.42-1.11-3.63,.02-.34,.11-.71,.35-.98,.13-.13,.27-.26,.4-.39,.07-.07,.16-.23-.14-.06,.15-.29,.3-.57,.47-.85,.11-.06,.21-.11,.33-.14,.33-.1,.67-.16,1.01-.22,.35-.06,.69-.06,1.03-.06,.39,0,.79-.04,1.18,.06,.34,.09,.64,.26,.95,.4,.3,.16,.62,.23,.91,.4,.14,.09,.25,.22,.37,.34,.16,.16,.31,.3,.43,.5,.23,.42,.38,.84,.5,1.3,.33,1.14,.48,2.39,.11,3.54Zm10.19-6.72c-.21,.34-.58,.59-.96,.68-.32,.08-.7-.02-1.01-.11-.23-.06-.43-.19-.64-.26-.24-.08-.43-.13-.64-.25-.4-.23-.84-.38-1.13-.76-.28-.38-.35-.95-.47-1.4-.11-.42-.2-.79-.07-1.22,.13-.43,.38-.79,.62-1.16,.13-.21,.31-.38,.45-.58,.23-.31,.41-.69,.61-1.01,.36-.23,.74-.48,1.36-.47,.31,0,.58,.07,.83,.27,.4,.32,.75,.62,.91,1.12,.07,.23,.13,.47,.2,.71,.07,.24,.06,.47,.08,.72,.02,.23,.08,.45,.11,.67,.04,.25-.03,.47-.05,.73-.01,.21-.02,.45,0,.66,0,.18,.08,.36,.08,.55,0,.33-.08,.81-.26,1.1Z"/><path class="cls-10" d="M106.94,178.48c-.35-.75-.79-1.46-.74-2.32,.03-.49,.21-1.05,.74-1.17,.43-.09,.91,.15,1.28,.34,.19,.1,.39,.23,.54,.38,.17,.18,.22,.42,.29,.65,.18,.58,.52,1.72-.2,2.1-.7,.37-1.45,.22-1.92,.01Z"/><path class="cls-10" d="M104.92,175.19c.26,.12,.53,.2,.81,.24-.03-.12,.08-.14,.12-.24,.02-.06,.03-.21,.01-.27-.04-.12-.16-.19-.27-.2-.09-.01-.19,.02-.27,0-.06-.01-.06-.07-.13-.06-.19,.02-.29,.31-.27,.46v.07Z"/><path class="cls-10" d="M115.19,175.73c.38-.19,1.2-.72,1.69-.46,.38,.2,.7,.56,.98,.88,.21,.24,.43,.71,.31,1.02-.13,.33-.54,.58-.9,.58-.23,0-.46-.09-.67-.14-.27-.07-.55-.11-.8-.21-.23-.1-.38-.25-.57-.41-.1-.09-.23-.15-.3-.26-.12-.19-.07-.41,0-.6,.07-.19,.27-.59,.25-.39Z"/><path class="cls-10" d="M108.15,192.57c.14,.61,.16,1.83,1.08,1.82,.47,0,.66-.29,.59-.73-.08-.47-.28-.98-.78-1.15-.09-.03-.32-.1-.42-.09-.17,.02-.32,.26-.47,.34v-.2Z"/></g><path class="cls-62" d="M280.39,88.89c0,13.97-7.63,26.16-18.97,32.61-5.46,3.15-11.8,4.92-18.56,4.92-20.73,0-37.53-16.8-37.53-37.53,0-.89,.03-1.77,.11-2.64,1.34-19.48,17.58-34.89,37.42-34.89s37.53,16.81,37.53,37.53Z"/><path class="cls-63" d="M278.55,89.7c0,13.67-7.45,25.59-18.51,31.9-5.33,3.08-11.51,4.81-18.1,4.81-20.22,0-36.61-16.43-36.61-36.71,0-.88,.03-1.74,.11-2.58,1.31-19.06,17.15-34.13,36.5-34.13s36.61,16.45,36.61,36.71Z"/><path class="cls-60" d="M205.44,88.27c-.07,.82-.1,1.66-.1,2.51,0,19.69,15.75,35.64,35.19,35.64,6.34,0,12.28-1.68,17.4-4.67,10.63-6.12,17.79-17.7,17.79-30.97,0-.7-.47-1.76-.49-2.55-.01-.41,.03-.82,.01-1.23-.02-.89-.2-1.74-.2-2.64,0-.45,.04-.92,0-1.36-.02-.4-.19-.77-.21-1.17-.04-.86-.32-1.69-.15-2.55,.12-.57,.37-1.11-.22-1.49-.39-.25-.52-.15-.8-.62-.22-.37-.44-.62-.73-.93-.42-.45-.97-.9-1.27-1.42-.06-.1-.32-.4-.33-.5-.03-.23,.25-.42,.13-.64-.49-.12-1,.07-1.49-.04-.59-.13-.69-.7-.77-1.25-.05-.36,.05-.55,.14-.89,.08-.3,.04-.61,.04-.92v.47c0-.54,.15-1.34-.03-1.84-.13-.38-.65-.95-.94-1.22-.51-.48-.92-.46-1.53-.62-.79-.21-.66-1.09-1-1.71-.16-.29-.35-.44-.58-.67-.55-.54-.99-1.24-1.45-1.85-.85-1.14-1.51-1.11-2.83-1.18-1.18-.06-2.67-.53-3.72-1.03-1.57-.74-3.12-1.71-4.9-1.39-1.05,.19-2.02,.81-3.09,.87-.97,.05-1.7-.39-2.52-.84-1.73-.94-3.27-2.12-5.26-2.45-1.66-.27-3.54-.45-5.21-.2-1.86,.28-3.56,.97-5.31,1.61-2,.73-3.52,2.23-5.25,3.42-1.46,1-3.3,1.22-4.69,2.28-.53,.4-1.23,1.02-1.56,1.6-.16,.28-.22,.61-.37,.89-.24,.47-.63,.86-.98,1.26-3.01,3.35-8.14,4.54-10.35,8.46-.37,.66-1.28,4.16-1.49,4.86-.42,1.36,2.64,2.35,2.27,3.72-.11,.41-.41,.76-.61,1.13-.2,.36-.37,.86-.68,1.14-.42,.37-1.47,.48-1.85,.98Z"/><path class="cls-12" d="M268.54,109.13c-.26-1.07-1.13-1.95-1.91-2.83-.59-.67-1.26-1.29-1.86-1.95-.45-.49-.89-1.04-1.43-1.48-.6-.49-1.53-1.19-1.06-1.94,.25-.41,.87-.62,1.3-.92,.45-.32,.82-.71,1.2-1.08,.44-.43,.46-.81,.68-1.31,.23-.55,.38-.93,.22-1.5-.15-.47,.04-.85-.37-1.27-.3-.32-.78-.58-1.23-.76-.9-.37-1.61-.7-2.24-1.32-.34-.33-.49-.73-1.02-.93-.52-.19-1.09-.09-1.65-.15-.74-.06-2.1-.17-2.63-.62-.94-.8-.01-2.14-1.34-2.72-.83-.35-1.76-.71-2.74-.72-1.5-.02-3.1,.35-4.53,.63-1.35,.27-2.66,.91-2.95,2.02-.1,.33,.05,.66,.14,.99,.12,.42,.19,.77,.44,1.16,1.06,1.64,3.63,2.3,5.62,3.1,1.61,.65,2.05,1.97,1.43,3.23-.37,.76-1.43,1.32-2.14,1.89-.48,.4-1.01,.76-1.47,1.16-.42,.36-.72,.82-1.08,1.23-.78,.91-1.2,1.94-2.09,2.8-.85,.81-1.67,1.6-2.95,2-1.16,.36-2.4,.22-3.62,.35-1.08,.11-2.21,.15-3.32,.1-.6-.02-1.16-.15-1.77-.14-.66,0-1.23-.03-1.87-.12-1.3-.22-2.68-.59-3.81-1.11-.75-.34-1.38-.86-1.61-1.52-.22-.62-.11-1.68,.29-2.24,.78-1.1,2.77-1.62,4.33-1.38,1.5,.23,2.89,1.07,4.24,1.58,1.37,.52,2.62,.69,3.88-.03,.51-.29,.68-.55,1.02-.94,.22-.24,.56-.37,.86-.54,1.05-.6,2.06-1.21,2.95-1.97,.83-.72,1.6-1.37,1.54-2.39-.04-.84-.5-1.45-1.17-2.09-.61-.59-1.12-1.18-1.56-1.87-.38-.63-1.13-1-2.03-1.16-.81-.14-1.82-.2-2.57,.14-.25,.1-.41,.26-.57,.44-.12,.15-.18,.23-.37,.37-.37,.29-.7,.69-1.04,1-.46,.44-1.01,.78-1.58,1.13-.86,.54-1.99,.79-3.1,.48-.82-.23-1.75-.44-2.38-.93-.94-.72-.7-2.05-.83-2.97-.18-1.12-.26-2.31-.82-3.38-.2-.42-.61-1.01-1.12-1.26-.41-.2-.93-.19-1.41-.12-.83,.1-1.56,.53-2.22,.88-.93,.48-1.24,1.11-1.72,1.85-1,1.54-1.72,3.14-2.63,4.71-.52,.88-.83,1.81-.6,2.79,.26,1.08,.08,3.09-1.94,3.13-2.24,.04-2.55-1.96-3.28-3.14-.11-.18-.59-1.13-1.02-.72-.08,.07-.04,.55-.1,.68-.1,.27-.2,.5-.27,.77-.18,.65-1,1.14-1.9,1.13-.14,0-.26-.02-.37-.05-.07,.58-.1,1.18-.1,1.78,0,13.99,14.86,25.32,33.21,25.32,5.98,0,11.59-1.2,16.42-3.32-.52-.41-1.13-.74-1.72-.98-.98-.4-2.14-.51-3.17-.81-.86-.26-1.83-.35-2.72-.57-.74-.19-1.57-.4-2.2-.73-.35-.19-.48-.55-.74-.81-.19-.19-.3-.42-.49-.61-.56-.57-1.42-1.24-1.42-2.01s.87-1.29,1.79-1.32c1.09-.04,2.24,.24,3.28,.44,.81,.15,1.6,.42,2.38,.62,.59,.16,1.2,.3,1.72,.55,.81,.39,1.65,.74,2.62,.76,1.02,.03,1.67-.18,2.54-.52,1.2-.47,1.8-1.47,2.61-2.27,.37-.36,.64-.8,1.06-1.13,.26-.2,.57-.35,.83-.54,.49-.35,.94-.67,1.51-.94,.27-.12,.68-.21,.9-.37,.2-.15,.35-.45,.46-.63,.4-.62,.52-1.41,.37-2.09Zm-29.41-12.77c.4,.05,.89,.24,1.16,.46,.33,.26,.7,.93,.63,1.28-.05,.29-.18,.77-.52,.96-.45,.25-1.2,.29-1.73,.36-.33,.05-.63,.1-.97,.05-.19-.03-.57-.04-.75-.09-.97-.29-.75-1.39-.79-1.96l-.26-.09c.89-.63,1.98-1.14,3.23-.97Zm-16.93,6.71c-.49-.04-.86-.1-1.12-.44-.33-.4-.34-.83-.33-1.28,.01-.88,.35-1.79,.78-2.61,.48-.93,1.08-1.67,1.82-2.51-.76,.35,.08-.34,.9-.59,.55-.17,1.09-.33,1.69-.27,1.26,.12,2.61,1.14,3.11,2,.44,.72,.26,1.5,.12,2.25,0,.02,0,.03-.01,.05,.38-.3,.87-.66,1.43-.63,.71,.03,1.26,.6,1.3,1.11,.03,.57-.55,.94-1.26,.96-.49,.01-1.13-.07-1.38-.43-.22-.3-.15-.69-.1-1.01l-.12,.09c-1.17,.88-2.47,1.64-3.64,2.52-.82,.6-2.07,.88-3.19,.79Zm17.89,15c-.27,.63-.79,1.28-1.57,1.62-1.04,.45-2.57,.49-3.7,.39-1.34-.12-2.63-.34-3.94-.59-1.53-.28-2.84-.8-3.86-1.72-1.53-1.37-2.25-3.55-2.13-5.33,.04-.5,.22-1.04,.67-1.44,.25-.2,.52-.39,.78-.57,.14-.1,.31-.34-.27-.09,.29-.43,.59-.84,.91-1.25,.2-.08,.41-.16,.63-.21,.63-.15,1.3-.24,1.94-.32,.67-.09,1.32-.09,1.99-.09,.75,0,1.53-.05,2.27,.09,.66,.12,1.24,.37,1.83,.59,.57,.23,1.19,.34,1.75,.59,.27,.12,.48,.32,.71,.5,.31,.24,.6,.44,.83,.73,.45,.61,.72,1.23,.97,1.9,.64,1.68,.93,3.51,.2,5.19Zm19.63-9.87c-.4,.5-1.12,.86-1.86,1-.61,.11-1.35-.03-1.95-.16-.44-.09-.82-.28-1.24-.39-.46-.11-.82-.19-1.23-.36-.78-.33-1.62-.55-2.17-1.11-.53-.56-.68-1.39-.9-2.05-.2-.61-.38-1.17-.14-1.79,.25-.63,.74-1.16,1.2-1.71,.25-.3,.6-.55,.86-.85,.44-.46,.79-1.01,1.17-1.49,.7-.33,1.43-.71,2.62-.69,.6,0,1.12,.1,1.6,.4,.76,.47,1.45,.91,1.75,1.64,.14,.34,.26,.7,.38,1.04,.14,.35,.11,.7,.15,1.06,.04,.33,.15,.66,.2,.99,.07,.36-.05,.7-.1,1.07-.03,.31-.04,.66-.01,.97,.01,.27,.15,.53,.15,.81,0,.48-.15,1.2-.49,1.61Z"/><path class="cls-12" d="M234.42,86.39c-1.99-4.3-4.57-8.41-4.29-13.35,.17-2.83,1.21-6.06,4.27-6.72,2.45-.53,5.27,.87,7.39,1.97,1.1,.57,2.26,1.3,3.12,2.22,.99,1.05,1.29,2.4,1.69,3.74,1.02,3.37,2.98,9.92-1.13,12.09-4.05,2.14-8.33,1.25-11.06,.06Z"/><path class="cls-12" d="M232.91,63.41c.56,.27,1.15,.44,1.76,.53-.06-.26,.18-.32,.26-.53,.05-.13,.07-.46,.03-.59-.08-.27-.34-.4-.59-.43-.19-.02-.41,.05-.6,.01-.13-.03-.13-.15-.28-.14-.42,.04-.64,.67-.59,1v.15Z"/><path class="cls-12" d="M223.7,80.64c1.42,.68,2.9,1.12,4.44,1.33-.15-.66,.47-.8,.66-1.33,.12-.33,.19-1.15,.08-1.49-.21-.67-.86-1.02-1.49-1.1-.48-.06-1.03,.12-1.5,.03-.34-.07-.32-.38-.7-.34-1.06,.09-1.61,1.7-1.5,2.54v.37Z"/><path class="cls-12" d="M255.27,64.58c.82-.4,2.61-1.56,3.69-1.01,.84,.43,1.52,1.22,2.13,1.92,.46,.52,.94,1.54,.67,2.23-.28,.72-1.19,1.26-1.95,1.27-.5,0-.99-.19-1.46-.31-.58-.15-1.19-.24-1.75-.47-.51-.21-.84-.54-1.23-.9-.21-.19-.5-.32-.66-.56-.27-.41-.15-.89,0-1.31,.16-.41,.58-1.29,.55-.85Z"/><path class="cls-12" d="M252.08,78.9c.53,.41,1.86,1.22,1.84,2.11-.01,.69-.32,1.39-.59,2.02-.2,.47-.71,1.11-1.26,1.15-.56,.05-1.21-.38-1.46-.88-.16-.33-.19-.71-.26-1.06-.08-.43-.22-.86-.25-1.3-.02-.4,.09-.72,.2-1.1,.06-.2,.05-.43,.16-.61,.19-.31,.54-.39,.87-.41,.32-.03,1.04-.03,.74,.1Z"/><path class="cls-12" d="M239.93,101.26c.3,1.33,.35,3.99,2.34,3.96,1.02-.01,1.44-.64,1.28-1.58-.17-1.02-.62-2.14-1.69-2.5-.2-.07-.69-.22-.91-.19-.36,.05-.7,.57-1.02,.74v-.44Z"/><path class="cls-24" d="M249.56,257.74c-13.99,10.91-120,63.33-120,63.33,0,0,76.64-90.07,90.63-100.98,13.99-10.91,31.91-11.33,40.01-.94,8.11,10.4,3.34,27.67-10.65,38.59Z"/><path class="cls-42" d="M252.48,248.33c-8.88,6.93-78.08,37.76-78.08,37.76,0,0,46.75-59.62,55.63-66.54s21.11-6.1,27.31,1.85c6.2,7.95,4.03,20.01-4.85,26.94Z"/><path class="cls-43" d="M254.42,237.58c-5.34,4.16-46.91,22.69-46.91,22.69,0,0,28.09-35.82,33.42-39.98,5.34-4.16,12.68-3.67,16.41,1.11,3.73,4.78,2.42,12.02-2.92,16.19Z"/><g><path class="cls-41" d="M370.63,130.88h0l-.58,.48,.57-.49h0c-51.11-2.37-99.06,24.71-123.41,69.71l-4.34,8.01c.39,3.18,1.75,10.7,7.55,17.99,5.81,7.3,12.84,10.31,15.85,11.4,2.93-.81,5.85-1.62,8.78-2.43,49.31-13.65,86.45-54.32,95.59-104.66Z"/><path class="cls-7" d="M248.26,198.69c-.35,.63-.72,1.25-1.06,1.89l-4.34,8.01c.39,3.18,1.75,10.7,7.55,17.99,5.81,7.29,12.84,10.3,15.85,11.4,2.93-.81,5.85-1.62,8.78-2.43,.7-.19,1.38-.41,2.08-.61-4.23-1.64-12.45-5.57-19.34-14.22-6.88-8.64-8.86-17.53-9.51-22.01Z"/><g class="cls-16"><path class="cls-7" d="M349.01,148.08c4.3,5.4,9.3,8.73,13.31,10.73,3.73-8.87,6.55-18.21,8.31-27.93l-.58,.48,.57-.49h0c-9.86-.46-19.6,.19-29.08,1.84,1.05,4.33,3.16,9.89,7.38,15.24,.03,.04,.06,.08,.1,.12Z"/></g><g><path class="cls-15" d="M370.63,130.88l-.58,.48,.57-.49h0c-.15,0-.3-.01-.45-.02l-119.93,95.49c.06,.08,.12,.16,.18,.23,5.81,7.3,12.84,10.31,15.85,11.4,2.93-.81,5.85-1.62,8.78-2.43,49.31-13.65,86.45-54.32,95.59-104.66Z"/><g class="cls-16"><path class="cls-14" d="M370.66,130.78l-.58,.48,.57-.49h0c-.15,0-.3-.01-.45-.02-5.91,15.11-17.85,39.99-41.26,64.09-23.32,24.01-47.75,36.66-62.65,43.03,2.93-.81,5.85-1.62,8.78-2.43,49.31-13.65,86.45-54.32,95.59-104.66Z"/></g></g><path class="cls-13" d="M298.52,188.9c-4.41-5.54-3.5-13.65,2.05-18.06,5.54-4.41,13.65-3.5,18.06,2.05,4.41,5.54,3.5,13.65-2.05,18.06-5.54,4.41-13.65,3.5-18.06-2.05Z"/><path class="cls-31" d="M303.42,174.52c3.51-2.81,8.64-2.25,11.46,1.27,2.81,3.51,2.25,8.64-1.27,11.46-3.51,2.81-8.64,2.25-11.46-1.27-2.81-3.51-2.25-8.64,1.27-11.46Z"/><path class="cls-13" d="M325.49,168.33c-2.46-3.09-1.95-7.6,1.14-10.06,3.09-2.46,7.6-1.95,10.06,1.14,2.46,3.09,1.95,7.6-1.14,10.06-3.09,2.46-7.6,1.95-10.06-1.14Z"/><path class="cls-52" d="M328.22,160.32c1.96-1.57,4.81-1.25,6.38,.71,1.57,1.96,1.25,4.81-.71,6.38-1.96,1.57-4.81,1.25-6.38-.71-1.57-1.96-1.25-4.81,.71-6.38Z"/><path class="cls-13" d="M279.8,202.65c-2.46-3.09-1.95-7.6,1.14-10.06,3.09-2.46,7.6-1.95,10.06,1.14,2.46,3.09,1.95,7.6-1.14,10.06-3.09,2.46-7.6,1.95-10.06-1.14Z"/><path class="cls-47" d="M282.53,194.64c1.96-1.57,4.81-1.25,6.38,.71,1.57,1.96,1.25,4.81-.71,6.38-1.96,1.57-4.81,1.25-6.38-.71-1.57-1.96-1.25-4.81,.71-6.38Z"/><path class="cls-54" d="M249.83,195.9c2.95-4.67,6.46-9.71,10.63-14.91,4.9-6.11,9.79-11.3,14.33-15.65-4.53,.82-9.06,1.63-13.59,2.45-10.87,1.96-20.66,7.81-27.53,16.47l-13.73,17.31,29.9-5.66Z"/><path class="cls-66" d="M250.52,194.47c2.52-3.99,5.51-8.29,9.08-12.73,4.18-5.22,8.36-9.65,12.24-13.37-3.87,.7-7.74,1.39-11.61,2.09-9.29,1.67-17.65,6.67-23.52,14.07l-11.73,14.78,25.54-4.84Z"/><path class="cls-69" d="M278.58,234.17c5.25-1.7,11-3.85,17.07-6.6,7.13-3.23,13.37-6.68,18.71-10.01-1.91,4.19-3.82,8.37-5.74,12.56-4.59,10.05-12.69,18.08-22.77,22.59l-20.17,9.02,12.89-27.56Z"/><path class="cls-68" d="M280.98,233.66c4.68-1.51,9.8-3.43,15.21-5.88,6.35-2.88,11.91-5.95,16.67-8.92-1.7,3.73-3.41,7.46-5.11,11.19-4.09,8.95-11.3,16.11-20.29,20.13l-17.97,8.03,11.49-24.55Z"/></g><g class="cls-17"><path class="cls-40" d="M420.52,315.83c-2.86,2.19-24.52,12.74-24.52,12.74,0,0,15.66-18.11,18.52-20.31s6.52-2.28,8.18-.19,.68,5.57-2.18,7.76Z"/><path class="cls-33" d="M421.11,313.94c-1.81,1.39-15.95,7.59-15.95,7.59,0,0,9.55-11.99,11.37-13.38s4.31-1.23,5.58,.37,.82,4.02-.99,5.42Z"/><path class="cls-36" d="M421.51,311.78c-1.09,.84-9.59,4.56-9.59,4.56,0,0,5.74-7.2,6.83-8.04s2.59-.74,3.35,.22,.49,2.42-.6,3.26Z"/><g><path class="cls-38" d="M445.25,290.32h0l-.12,.1,.12-.1h0c-10.44-.48-20.24,4.97-25.22,14.02l-.89,1.61c.08,.64,.36,2.15,1.54,3.62,1.19,1.47,2.62,2.07,3.24,2.29,.6-.16,1.2-.33,1.79-.49,10.07-2.75,17.66-10.92,19.53-21.05Z"/><path class="cls-7" d="M420.25,303.96c-.07,.13-.15,.25-.22,.38l-.89,1.61c.08,.64,.36,2.15,1.54,3.62,1.19,1.47,2.62,2.07,3.24,2.29,.6-.16,1.2-.33,1.79-.49,.14-.04,.28-.08,.42-.12-.86-.33-2.54-1.12-3.95-2.86-1.4-1.74-1.81-3.53-1.94-4.43Z"/><g class="cls-16"><path class="cls-7" d="M440.84,293.78c.88,1.09,1.9,1.76,2.72,2.16,.76-1.78,1.34-3.66,1.7-5.62l-.12,.1,.12-.1h0c-2.01-.09-4.01,.04-5.94,.37,.21,.87,.64,1.99,1.51,3.07l.02,.02Z"/></g><g><path class="cls-15" d="M445.25,290.32l-.12,.1,.12-.1h0s-.06,0-.09,0l-24.51,19.2s.02,.03,.04,.05c1.19,1.47,2.62,2.07,3.24,2.29,.6-.16,1.2-.33,1.79-.49,10.07-2.75,17.66-10.92,19.53-21.05Z"/><g class="cls-16"><path class="cls-14" d="M445.26,290.3l-.12,.1,.12-.1h0s-.06,0-.09,0c-1.21,3.04-3.65,8.04-8.43,12.89-4.76,4.83-9.76,7.37-12.8,8.65,.6-.16,1.2-.33,1.79-.49,10.07-2.75,17.66-10.92,19.53-21.05Z"/></g></g><path class="cls-13" d="M430.52,301.99c-.9-1.12-.71-2.74,.42-3.63,1.13-.89,2.79-.7,3.69,.41,.9,1.12,.71,2.74-.42,3.63-1.13,.89-2.79,.7-3.69-.41Z"/><path class="cls-46" d="M431.52,299.1c.72-.57,1.77-.45,2.34,.25,.58,.71,.46,1.74-.26,2.3-.72,.57-1.77,.45-2.34-.25-.58-.71-.46-1.74,.26-2.3Z"/><path class="cls-13" d="M436.03,297.85c-.5-.62-.4-1.53,.23-2.02,.63-.49,1.55-.39,2.06,.23,.5,.62,.4,1.53-.23,2.02-.63,.49-1.55,.39-2.06-.23Z"/><path class="cls-48" d="M436.59,296.24c.4-.32,.98-.25,1.3,.14,.32,.39,.26,.97-.14,1.28-.4,.32-.98,.25-1.3-.14-.32-.39-.26-.97,.14-1.28Z"/><path class="cls-13" d="M426.7,304.75c-.5-.62-.4-1.53,.23-2.02,.63-.49,1.55-.39,2.06,.23,.5,.62,.4,1.53-.23,2.02-.63,.49-1.55,.39-2.06-.23Z"/><path class="cls-49" d="M427.26,303.14c.4-.32,.98-.25,1.3,.14,.32,.39,.26,.97-.14,1.28-.4,.32-.98,.25-1.3-.14-.32-.39-.26-.97,.14-1.28Z"/><path class="cls-71" d="M420.57,303.4c.6-.94,1.32-1.95,2.17-3,1-1.23,2-2.27,2.93-3.15l-2.78,.49c-2.22,.39-4.22,1.57-5.62,3.31l-2.81,3.48,6.11-1.14Z"/><path class="cls-70" d="M420.71,303.11c.51-.8,1.13-1.67,1.85-2.56,.85-1.05,1.71-1.94,2.5-2.69-.79,.14-1.58,.28-2.37,.42-1.9,.34-3.61,1.34-4.81,2.83l-2.4,2.97,5.22-.97Z"/><path class="cls-64" d="M426.45,311.09c1.07-.34,2.25-.77,3.49-1.33,1.46-.65,2.73-1.34,3.82-2.01-.39,.84-.78,1.68-1.17,2.53-.94,2.02-2.59,3.64-4.65,4.54l-4.12,1.81,2.63-5.54Z"/><path class="cls-67" d="M426.94,310.99c.96-.3,2-.69,3.11-1.18,1.3-.58,2.43-1.2,3.41-1.79-.35,.75-.7,1.5-1.04,2.25-.84,1.8-2.31,3.24-4.15,4.05l-3.67,1.62,2.35-4.94Z"/></g></g><g><path class="cls-39" d="M57.88,172.39c-3.64,2.79-31.2,16.21-31.2,16.21,0,0,19.92-23.05,23.56-25.84,3.64-2.79,8.29-2.9,10.4-.24s.87,7.08-2.77,9.87Z"/><path class="cls-34" d="M58.64,169.98c-2.31,1.77-20.3,9.66-20.3,9.66,0,0,12.15-15.25,14.46-17.03s5.49-1.56,7.1,.47,1.05,5.12-1.26,6.89Z"/><path class="cls-37" d="M59.15,167.23c-1.39,1.07-12.2,5.81-12.2,5.81,0,0,7.3-9.17,8.69-10.23s3.3-.94,4.27,.28,.63,3.08-.76,4.14Z"/><g><path class="cls-35" d="M89.36,139.93h0l-.15,.12,.15-.13h0c-13.29-.61-25.75,6.32-32.08,17.84l-1.13,2.05c.1,.81,.45,2.74,1.96,4.6,1.51,1.87,3.34,2.64,4.12,2.92,.76-.21,1.52-.41,2.28-.62,12.82-3.49,22.47-13.9,24.85-26.78Z"/><path class="cls-7" d="M57.55,157.28c-.09,.16-.19,.32-.28,.48l-1.13,2.05c.1,.81,.45,2.74,1.96,4.6,1.51,1.87,3.34,2.64,4.12,2.92,.76-.21,1.52-.41,2.28-.62,.18-.05,.36-.11,.54-.16-1.1-.42-3.24-1.43-5.03-3.64-1.79-2.21-2.3-4.49-2.47-5.63Z"/><g class="cls-16"><path class="cls-7" d="M83.74,144.33c1.12,1.38,2.42,2.23,3.46,2.75,.97-2.27,1.7-4.66,2.16-7.15l-.15,.12,.15-.13h0c-2.56-.12-5.1,.05-7.56,.47,.27,1.11,.82,2.53,1.92,3.9l.03,.03Z"/></g><g><path class="cls-15" d="M89.36,139.93l-.15,.12,.15-.13h0s-.08,0-.12,0l-31.18,24.43s.03,.04,.05,.06c1.51,1.87,3.34,2.64,4.12,2.92,.76-.21,1.52-.41,2.28-.62,12.82-3.49,22.47-13.9,24.85-26.78Z"/><g class="cls-16"><path class="cls-14" d="M89.37,139.9l-.15,.12,.15-.13h0s-.08,0-.12,0c-1.54,3.87-4.64,10.23-10.73,16.4-6.06,6.14-12.41,9.38-16.29,11.01,.76-.21,1.52-.41,2.28-.62,12.82-3.49,22.48-13.9,24.85-26.78Z"/></g></g><path class="cls-13" d="M70.61,154.77c-1.15-1.42-.91-3.49,.53-4.62,1.44-1.13,3.55-.89,4.7,.52,1.15,1.42,.91,3.49-.53,4.62-1.44,1.13-3.55,.89-4.7-.52Z"/><path class="cls-51" d="M71.89,151.09c.91-.72,2.25-.57,2.98,.32,.73,.9,.58,2.21-.33,2.93-.91,.72-2.25,.58-2.98-.32-.73-.9-.58-2.21,.33-2.93Z"/><path class="cls-13" d="M77.63,149.51c-.64-.79-.51-1.94,.3-2.57,.8-.63,1.98-.5,2.62,.29,.64,.79,.51,1.94-.3,2.57-.8,.63-1.98,.5-2.62-.29Z"/><path class="cls-50" d="M78.34,147.46c.51-.4,1.25-.32,1.66,.18,.41,.5,.33,1.23-.18,1.63-.51,.4-1.25,.32-1.66-.18-.41-.5-.33-1.23,.18-1.63Z"/><path class="cls-13" d="M65.75,158.29c-.64-.79-.51-1.94,.3-2.57,.8-.63,1.98-.5,2.62,.29,.64,.79,.51,1.94-.3,2.57-.8,.63-1.98,.5-2.62-.29Z"/><path class="cls-53" d="M66.46,156.24c.51-.4,1.25-.32,1.66,.18,.41,.5,.33,1.23-.18,1.63-.51,.4-1.25,.32-1.66-.18-.41-.5-.33-1.23,.18-1.63Z"/><path class="cls-65" d="M57.96,156.56c.77-1.19,1.68-2.48,2.76-3.81,1.27-1.56,2.54-2.89,3.73-4l-3.53,.63c-2.83,.5-5.37,2-7.16,4.21l-3.57,4.43,7.77-1.45Z"/><path class="cls-19" d="M58.14,156.2c.65-1.02,1.43-2.12,2.36-3.26,1.09-1.34,2.17-2.47,3.18-3.42-1.01,.18-2.01,.36-3.02,.53-2.42,.43-4.59,1.71-6.11,3.6l-3.05,3.78,6.64-1.24Z"/><path class="cls-20" d="M65.43,166.35c1.37-.43,2.86-.99,4.44-1.69,1.85-.83,3.48-1.71,4.86-2.56-.5,1.07-.99,2.14-1.49,3.21-1.19,2.57-3.3,4.63-5.92,5.78l-5.24,2.31,3.35-7.05Z"/><path class="cls-18" d="M66.05,166.23c1.22-.39,2.55-.88,3.95-1.51,1.65-.74,3.1-1.52,4.33-2.28-.44,.95-.89,1.91-1.33,2.86-1.06,2.29-2.94,4.12-5.27,5.15l-4.67,2.06,2.99-6.28Z"/></g></g></g></g></svg>