<?xml version="1.0" encoding="UTF-8"?><svg xmlns="http://www.w3.org/2000/svg" xmlns:xlink="http://www.w3.org/1999/xlink" viewBox="0 0 623.4 409.94"><defs><style>.cls-1{stroke:url(#linear-gradient-9);}.cls-1,.cls-2,.cls-3{fill:none;stroke-miterlimit:10;stroke-width:.8px;}.cls-4{fill:url(#linear-gradient);}.cls-2{stroke:url(#linear-gradient-10);}.cls-3{stroke:url(#linear-gradient-11);}.cls-5,.cls-6{fill:#fff;}.cls-7{fill:#061b46;}.cls-8,.cls-9{fill:#3a66eb;}.cls-6{opacity:.45;}.cls-6,.cls-10{mix-blend-mode:soft-light;}.cls-11{fill:#c19be0;}.cls-11,.cls-12,.cls-9{mix-blend-mode:multiply;}.cls-13{filter:url(#drop-shadow-1);}.cls-9{opacity:.5;}.cls-10{fill:#8989ce;}.cls-14{fill:url(#Degradado_sin_nombre_1263-7);}.cls-14,.cls-15,.cls-16,.cls-17,.cls-18,.cls-19{opacity:.3;}.cls-15{fill:url(#Degradado_sin_nombre_1263-8);}.cls-16{fill:url(#Degradado_sin_nombre_1263-4);}.cls-17{fill:url(#Degradado_sin_nombre_1263-3);}.cls-18{fill:url(#Degradado_sin_nombre_1263-5);}.cls-19{fill:url(#Degradado_sin_nombre_1263-6);}.cls-20{fill:url(#linear-gradient-8);}.cls-21{fill:url(#linear-gradient-3);}.cls-22{fill:url(#linear-gradient-4);}.cls-23{fill:url(#linear-gradient-2);}.cls-24{fill:url(#linear-gradient-6);}.cls-25{fill:url(#linear-gradient-7);}.cls-26{fill:url(#linear-gradient-5);}.cls-27{isolation:isolate;}.cls-28{fill:#fcf;mix-blend-mode:overlay;opacity:.15;}.cls-29{fill:url(#Degradado_sin_nombre_1263-2);filter:url(#drop-shadow-2);}.cls-30{fill:url(#Degradado_sin_nombre_1204);}.cls-31{fill:url(#Degradado_sin_nombre_1287);}.cls-32{fill:url(#Degradado_sin_nombre_1263);}.cls-33{fill:url(#Degradado_sin_nombre_1262);}.cls-34{fill:url(#Degradado_sin_nombre_1204-2);}.cls-35{fill:url(#Degradado_sin_nombre_1204-3);}</style><linearGradient id="linear-gradient" x1="1275.93" y1="4390.83" x2="1574.6" y2="4390.83" gradientTransform="translate(2374.04 -3903.62) rotate(45)" gradientUnits="userSpaceOnUse"><stop offset="0" stop-color="#5b03f6"/><stop offset=".02" stop-color="#5b03f6" stop-opacity=".89"/><stop offset=".06" stop-color="#5b03f6" stop-opacity=".72"/><stop offset=".1" stop-color="#5b03f6" stop-opacity=".56"/><stop offset=".14" stop-color="#5b03f6" stop-opacity=".44"/><stop offset=".19" stop-color="#5b03f6" stop-opacity=".33"/><stop offset=".24" stop-color="#5b03f6" stop-opacity=".25"/><stop offset=".3" stop-color="#5b03f6" stop-opacity=".19"/><stop offset=".37" stop-color="#5b03f6" stop-opacity=".16"/><stop offset=".5" stop-color="#5b03f6" stop-opacity=".15"/></linearGradient><linearGradient id="linear-gradient-2" x1="1301.05" y1="4390.83" x2="1549.48" y2="4390.83" gradientTransform="translate(2374.04 -3903.62) rotate(45)" gradientUnits="userSpaceOnUse"><stop offset="0" stop-color="#5b03f6"/><stop offset=".02" stop-color="#5b03f6" stop-opacity=".89"/><stop offset=".06" stop-color="#5b03f6" stop-opacity=".72"/><stop offset=".1" stop-color="#5b03f6" stop-opacity=".56"/><stop offset=".14" stop-color="#5b03f6" stop-opacity=".44"/><stop offset=".19" stop-color="#5b03f6" stop-opacity=".33"/><stop offset=".24" stop-color="#5b03f6" stop-opacity=".25"/><stop offset=".3" stop-color="#5b03f6" stop-opacity=".19"/><stop offset=".37" stop-color="#5b03f6" stop-opacity=".16"/><stop offset=".5" stop-color="#5b03f6" stop-opacity=".15"/></linearGradient><linearGradient id="linear-gradient-3" x1="1312.58" y1="4390.83" x2="1537.94" y2="4390.83" gradientTransform="translate(2374.04 -3903.62) rotate(45)" gradientUnits="userSpaceOnUse"><stop offset="0" stop-color="#5b03f6"/><stop offset=".02" stop-color="#5b03f6" stop-opacity=".89"/><stop offset=".06" stop-color="#5b03f6" stop-opacity=".72"/><stop offset=".1" stop-color="#5b03f6" stop-opacity=".56"/><stop offset=".14" stop-color="#5b03f6" stop-opacity=".44"/><stop offset=".19" stop-color="#5b03f6" stop-opacity=".33"/><stop offset=".24" stop-color="#5b03f6" stop-opacity=".25"/><stop offset=".3" stop-color="#5b03f6" stop-opacity=".19"/><stop offset=".37" stop-color="#5b03f6" stop-opacity=".16"/><stop offset=".5" stop-color="#5b03f6" stop-opacity=".15"/></linearGradient><linearGradient id="linear-gradient-4" x1="174.21" y1="208.94" x2="379.96" y2="208.94" gradientTransform="translate(452.88 -90.27) rotate(83.42)" gradientUnits="userSpaceOnUse"><stop offset="0" stop-color="#5b03f6"/><stop offset=".15" stop-color="#4608cc"/><stop offset=".36" stop-color="#2f0f9c"/><stop offset=".55" stop-color="#1d1476"/><stop offset=".72" stop-color="#10175c"/><stop offset=".88" stop-color="#081a4b"/><stop offset="1" stop-color="#061b46"/></linearGradient><linearGradient id="Degradado_sin_nombre_1287" x1="121.87" y1="322.13" x2="279.32" y2="164.68" gradientTransform="matrix(1, 0, 0, 1, 0, 0)" gradientUnits="userSpaceOnUse"><stop offset="0" stop-color="#fff"/><stop offset=".19" stop-color="#fff"/><stop offset=".25" stop-color="#fffcf9"/><stop offset=".31" stop-color="#fff6e8"/><stop offset=".39" stop-color="#ffeccc"/><stop offset=".48" stop-color="#ffdda5"/><stop offset=".57" stop-color="#ffcb73"/><stop offset=".63" stop-color="#ffbf53"/><stop offset="1" stop-color="#ff7d30"/></linearGradient><linearGradient id="Degradado_sin_nombre_1262" x1="85.7" y1="288.4" x2="172.03" y2="202.07" gradientTransform="matrix(1, 0, 0, 1, 0, 0)" gradientUnits="userSpaceOnUse"><stop offset=".24" stop-color="#fff"/><stop offset=".9" stop-color="#fff" stop-opacity="0"/></linearGradient><filter id="drop-shadow-1" filterUnits="userSpaceOnUse"><feOffset dx="0" dy="0"/><feGaussianBlur result="blur" stdDeviation="6.43"/><feFlood flood-color="#ce3b2c" flood-opacity=".25"/><feComposite in2="blur" operator="in"/><feComposite in="SourceGraphic"/></filter><linearGradient id="Degradado_sin_nombre_1204" x1="1531.15" y1="4411.35" x2="1563.23" y2="4411.35" gradientTransform="translate(2650.08 -3859.58) rotate(49.05)" gradientUnits="userSpaceOnUse"><stop offset="0" stop-color="#fff"/><stop offset="1" stop-color="#d8a0ff"/></linearGradient><linearGradient id="Degradado_sin_nombre_1263" x1="9135.55" y1="4411.34" x2="9167.63" y2="4411.34" gradientTransform="translate(9610.4 4160.63) rotate(-130.95) scale(1 -1)" gradientUnits="userSpaceOnUse"><stop offset="0" stop-color="#d8a0ff"/><stop offset="1" stop-color="#fff"/></linearGradient><linearGradient id="linear-gradient-5" x1="1469.64" y1="4372.09" x2="1545.93" y2="4372.09" gradientTransform="translate(2650.08 -3859.58) rotate(49.05)" gradientUnits="userSpaceOnUse"><stop offset="0" stop-color="#fff"/><stop offset="1" stop-color="#d8a0ff"/></linearGradient><linearGradient id="Degradado_sin_nombre_1263-2" x1="1507.79" y1="4450.61" x2="1507.79" y2="4379.22" gradientTransform="translate(2650.08 -3859.58) rotate(49.05)" xlink:href="#Degradado_sin_nombre_1263"/><filter id="drop-shadow-2" filterUnits="userSpaceOnUse"><feOffset dx="0" dy="0"/><feGaussianBlur result="blur-2" stdDeviation="3.88"/><feFlood flood-color="#8c4dad" flood-opacity=".2"/><feComposite in2="blur-2" operator="in"/><feComposite in="SourceGraphic"/></filter><linearGradient id="Degradado_sin_nombre_1204-2" x1="4139.49" y1="5808.5" x2="4169.96" y2="5813.2" gradientTransform="translate(5807.42 -4494.97) rotate(85.27)" xlink:href="#Degradado_sin_nombre_1204"/><linearGradient id="Degradado_sin_nombre_1204-3" x1="326.8" y1="260.16" x2="371.34" y2="304.7" gradientTransform="translate(275.77 -160.56) rotate(41.63)" xlink:href="#Degradado_sin_nombre_1204"/><linearGradient id="Degradado_sin_nombre_1263-3" x1="328.01" y1="267.9" x2="338.56" y2="278.45" gradientTransform="matrix(1, 0, 0, 1, 0, 0)" xlink:href="#Degradado_sin_nombre_1263"/><linearGradient id="Degradado_sin_nombre_1263-4" x1="343.15" y1="259.72" x2="347.21" y2="263.78" gradientTransform="matrix(1, 0, 0, 1, 0, 0)" xlink:href="#Degradado_sin_nombre_1263"/><linearGradient id="Degradado_sin_nombre_1263-5" x1="365.98" y1="262.59" x2="370.04" y2="266.65" gradientTransform="matrix(1, 0, 0, 1, 0, 0)" xlink:href="#Degradado_sin_nombre_1263"/><linearGradient id="Degradado_sin_nombre_1263-6" x1="332.74" y1="299.07" x2="336.8" y2="303.13" gradientTransform="matrix(1, 0, 0, 1, 0, 0)" xlink:href="#Degradado_sin_nombre_1263"/><linearGradient id="Degradado_sin_nombre_1263-7" x1="352.54" y1="266.29" x2="360.62" y2="274.37" gradientTransform="matrix(1, 0, 0, 1, 0, 0)" xlink:href="#Degradado_sin_nombre_1263"/><linearGradient id="Degradado_sin_nombre_1263-8" x1="362.93" y1="295.98" x2="371.52" y2="304.57" gradientTransform="matrix(1, 0, 0, 1, 0, 0)" xlink:href="#Degradado_sin_nombre_1263"/><linearGradient id="linear-gradient-6" x1="2494.95" y1="-3058.56" x2="2609.24" y2="-3058.56" gradientTransform="translate(891.88 4200.91) rotate(-45)" gradientUnits="userSpaceOnUse"><stop offset="0" stop-color="#f3af2d"/><stop offset=".16" stop-color="#e7833c"/><stop offset=".36" stop-color="#dc554c"/><stop offset=".54" stop-color="#d23158"/><stop offset=".72" stop-color="#cc1761"/><stop offset=".88" stop-color="#c80767"/><stop offset="1" stop-color="#c70269"/></linearGradient><linearGradient id="linear-gradient-7" x1="2192.67" y1="-3442.58" x2="2236.29" y2="-3442.58" gradientTransform="translate(891.88 4200.91) rotate(-45)" gradientUnits="userSpaceOnUse"><stop offset="0" stop-color="#f3af2d"/><stop offset=".16" stop-color="#e7833c"/><stop offset=".36" stop-color="#dc554c"/><stop offset=".54" stop-color="#d23158"/><stop offset=".72" stop-color="#cc1761"/><stop offset=".88" stop-color="#c80767"/><stop offset="1" stop-color="#c70269"/></linearGradient><linearGradient id="linear-gradient-8" x1="2362.78" y1="-3508.53" x2="2406.4" y2="-3508.53" gradientTransform="translate(891.88 4200.91) rotate(-45)" gradientUnits="userSpaceOnUse"><stop offset="0" stop-color="#f3af2d"/><stop offset=".16" stop-color="#e7833c"/><stop offset=".36" stop-color="#dc554c"/><stop offset=".54" stop-color="#d23158"/><stop offset=".72" stop-color="#cc1761"/><stop offset=".88" stop-color="#c80767"/><stop offset="1" stop-color="#c70269"/></linearGradient><linearGradient id="linear-gradient-9" x1="62.04" y1="359.29" x2="72.07" y2="359.29" gradientTransform="matrix(1, 0, 0, 1, 0, 0)" gradientUnits="userSpaceOnUse"><stop offset="0" stop-color="#f3af2d"/><stop offset=".16" stop-color="#e7833c"/><stop offset=".36" stop-color="#dc554c"/><stop offset=".55" stop-color="#d23158"/><stop offset=".72" stop-color="#cc1761"/><stop offset=".88" stop-color="#c80767"/><stop offset="1" stop-color="#c70269"/></linearGradient><linearGradient id="linear-gradient-10" x1="452.43" y1="242.81" x2="462.46" y2="242.81" xlink:href="#linear-gradient-9"/><linearGradient id="linear-gradient-11" x1="360.39" y1="27.57" x2="370.42" y2="27.57" xlink:href="#linear-gradient-9"/></defs><g class="cls-27"><g id="Layer_1"><g><path class="cls-4" d="M277.08,358.28c-39.89,0-77.39-15.53-105.59-43.74-28.17-28.17-43.68-65.67-43.68-105.59s15.51-77.42,43.68-105.59c28.2-28.2,65.7-43.74,105.59-43.74s77.39,15.53,105.59,43.74c28.17,28.17,43.68,65.67,43.68,105.59s-15.51,77.42-43.68,105.59c-28.2,28.2-65.7,43.74-105.59,43.74Z"/><path class="cls-23" d="M277.08,333.16c-33.18,0-64.37-12.92-87.83-36.38-48.43-48.43-48.43-127.23,0-175.67,23.46-23.46,54.65-36.38,87.83-36.38s64.37,12.92,87.83,36.38c48.43,48.43,48.43,127.23,0,175.67-23.46,23.46-54.65,36.38-87.83,36.38Z"/><circle class="cls-21" cx="277.08" cy="208.94" r="112.68"/><circle class="cls-22" cx="277.08" cy="208.94" r="102.88" transform="translate(37.74 460.24) rotate(-83.42)"/><g><path class="cls-28" d="M313.92,231.39c-16.56-6.38-35.03-2.76-52.61-.43-17.59,2.33-37.24,2.72-51.02-8.46-14.29-11.6-18.05-32.3-30.71-45.49,3.69-11.31,9.28-21.75,16.4-30.95,.89,1.24,1.83,2.46,2.87,3.6,14.12,15.44,38.22,15.03,58.99,12.54,20.77-2.5,44.02-5.3,60.64,7.42,9.52,7.28,15.03,18.46,21.72,28.42,9.5,14.15,22.14,26.46,37.44,33.91-3.27,14.31-9.5,27.49-18.05,38.83-15.1-13.71-26.75-32.1-45.67-39.39Z"/><path class="cls-28" d="M188.19,260.19c18.05-6.06,38.14-12.61,55.24-4.37,9.94,4.79,17,13.84,24.88,21.56,11.58,11.35,25.81,20.35,41.61,24,3.11,.72,6.28,1.21,9.47,1.47-12.83,5.75-27.05,8.98-42.02,8.98-38.15,0-71.43-20.78-89.19-51.63Z"/><path class="cls-28" d="M275.05,141c-12.52-6.47-19.64-19.99-29.67-29.84,10.07-3.29,20.82-5.1,31.99-5.1,25.98,0,49.7,9.65,67.8,25.54-7.62,2.01-15.15,4.9-22.56,7.49-15.42,5.39-33.06,9.41-47.57,1.91Z"/></g><g><path class="cls-31" d="M283.93,169.28c-5.17,5.32-10.61,10.76-16,16.09-5.41,5.35-10.85,10.68-16.34,15.97-26.18,25.31-51.42,50.74-82.27,71-15.08,9.91-56.84,34.16-69.22,16.12l2.7,14.59c26.75,11.49,69.43-9.86,91.16-24.8,25.95-17.83,52.01-36.34,76.29-55.65,6.05-4.81,12.07-9.67,18.07-14.56,6.02-4.92,11.93-9.79,17.98-14.92l-22.37-23.85Z"/><path class="cls-33" d="M123.65,218.83c-5.31,5.61-10.37,11.5-15.06,17.72-4.68,6.22-9.01,12.77-12.62,19.86-1.8,3.54-3.4,7.24-4.68,11.12-1.26,3.89-2.21,8-2.39,12.39-.16,4.35,.51,9.18,2.97,13.54,1.23,2.15,2.84,4.13,4.73,5.76,1.9,1.62,4.02,2.91,6.2,3.84l-2.7-14.59c-1.53-2.23-2.33-5.23-2.45-8.51-.12-3.28,.37-6.79,1.21-10.26,.86-3.48,2.05-6.95,3.47-10.36,2.84-6.83,6.51-13.43,10.57-19.8,4.08-6.36,8.58-12.5,13.38-18.41,9.6-11.83,20.33-22.83,31.8-33.01-12.21,9.29-23.8,19.48-34.43,30.71Z"/></g><g class="cls-13"><g><path class="cls-30" d="M358.02,169.39l-7.89,33.23c-.95,3.99-3.58,7.36-7.22,9.25l-34.69,17.99c-1.13,.59-2.47-.26-2.43-1.53l.88-26.96,51.35-31.98Z"/><path class="cls-32" d="M314.94,119.75l-34.01,3.13c-4.08,.38-7.79,2.51-10.17,5.84l-22.69,31.81c-.74,1.04-.09,2.48,1.17,2.62l26.81,2.93,38.89-46.33Z"/></g><path class="cls-26" d="M381.6,105.42c-40.15-10.03-96.53,14.46-105.16,58.45-.27,1.36,.09,2.77,1,3.82l27.84,32.08c.91,1.05,2.26,1.6,3.64,1.53,44.76-2.35,76.95-54.72,72.67-95.88Z"/><path class="cls-8" d="M270.22,182.29h35.99v5.7c0,1.45-1.17,2.62-2.62,2.62h-30.75c-1.45,0-2.62-1.17-2.62-2.62v-5.7h0Z" transform="translate(240.13 -153.43) rotate(49.05)"/><path class="cls-29" d="M280.78,200.18l-7.2-8.29,28.62-25.92c3.48-3.15,7.27-5.93,11.32-8.3l16.51-9.64,2.12,2.44-11.87,14.99c-2.91,3.68-6.2,7.04-9.81,10.04l-29.69,24.68Z"/><path class="cls-11" d="M363.03,168.76c8.89-12.31,15.06-26.83,17.61-41.29-1.58,.82-2.99,2.01-4.07,3.58-3.45,5.07-6.84,10.2-10.17,15.37-1.87,2.93-6.11,3.23-8.9,.54-7.49-7.21-14.34-15.1-20.43-23.54-2.27-3.15-1.38-7.31,1.79-8.74,5.59-2.57,11.14-5.2,16.65-7.91,1.71-.84,3.08-2.08,4.12-3.52-14.67,.48-29.92,4.55-43.36,11.62,11.94,20.69,27.96,39.14,46.76,53.88Z"/><path class="cls-34" d="M359.95,139.8c-8.48,.7-15.93-5.61-16.63-14.09-.7-8.48,5.61-15.93,14.09-16.63,8.48-.7,15.93,5.61,16.63,14.09,.7,8.48-5.61,15.93-14.09,16.63Z"/><path class="cls-8" d="M368.2,132.51c-4.46,5.26-12.33,5.91-17.59,1.46-5.26-4.46-5.91-12.33-1.46-17.59,4.46-5.26,12.33-5.91,17.59-1.46,5.26,4.46,5.91,12.33,1.46,17.59Z"/><g><path class="cls-5" d="M366.55,117.65c-.18-.2-.36-.39-.56-.58-.2-.19-.46-.3-.74-.29-.28,0-.54,.12-.73,.32-.38,.39-.39,.99-.04,1.4l.07,.07c.15,.15,.3,.3,.44,.46,.18,.21,.44,.33,.72,.35,.28,.02,.54-.08,.75-.26,.42-.38,.47-1.03,.09-1.47Zm-1.79,.61h0Z"/><path class="cls-5" d="M364,115.89c-.09-.26-.27-.48-.52-.6-2.55-1.29-5.55-1.48-8.24-.5-.54,.2-.82,.79-.62,1.34,.04,.12,.11,.23,.19,.32,.28,.32,.74,.44,1.14,.3,2.18-.79,4.52-.65,6.59,.4,.25,.13,.53,.15,.79,.06,.26-.09,.48-.27,.6-.52,.13-.25,.15-.53,.06-.8Z"/></g><path class="cls-9" d="M368.2,132.51c1.88-2.22,2.84-4.91,2.94-7.62-.25,.23-.48,.48-.71,.72-1.03,1.15-2.01,2.44-3.42,3.09-1.3,.6-2.88,.54-4.14-.16-1.79-.99-2.8-3.1-4.67-3.95-2.27-1.03-5.08,.14-7.38-.84-1.09-.46-1.94-1.36-2.57-2.36-.45-.7-.8-1.49-.85-2.32-2.38,4.99-1.23,11.14,3.19,14.88,5.26,4.46,13.14,3.8,17.59-1.46Z"/></g><g><circle class="cls-35" cx="349.07" cy="282.43" r="31.5" transform="translate(-99.47 303.21) rotate(-41.63)"/><g class="cls-12"><path class="cls-17" d="M340.74,273.17c0,4.12-3.34,7.46-7.46,7.46s-7.46-3.34-7.46-7.46,3.34-7.46,7.46-7.46,7.46,3.34,7.46,7.46Z"/><path class="cls-16" d="M348.05,261.75c0,1.59-1.29,2.87-2.87,2.87s-2.87-1.29-2.87-2.87,1.29-2.87,2.87-2.87,2.87,1.29,2.87,2.87Z"/><circle class="cls-18" cx="368.01" cy="264.62" r="2.87"/><path class="cls-19" d="M337.64,301.1c0,1.59-1.29,2.87-2.87,2.87s-2.87-1.29-2.87-2.87,1.29-2.87,2.87-2.87,2.87,1.29,2.87,2.87Z"/><path class="cls-14" d="M362.29,270.33c0,3.15-2.56,5.71-5.71,5.71s-5.71-2.56-5.71-5.71,2.56-5.71,5.71-5.71,5.71,2.56,5.71,5.71Z"/><path class="cls-15" d="M377.96,295.1c-1.93-1.53-4.37-2.45-7.02-2.45-6.25,0-11.32,5.07-11.32,11.32,0,2.7,.95,5.18,2.53,7.13,7.04-3.2,12.69-8.92,15.81-16Z"/></g></g><g><path class="cls-10" d="M623.38,144.85c1.99,1.99-112.92,128.29-117.17,132.53-4.24,4.24-11.12,4.24-15.37,0-4.24-4.24-4.24-11.12,0-15.37,4.24-4.24,130.54-119.16,132.53-117.17Z"/><path class="cls-24" d="M574.17,193.21c1.21,1.21-68.85,78.22-71.44,80.81-2.59,2.59-6.78,2.59-9.37,0-2.59-2.59-2.59-6.78,0-9.37,2.59-2.59,79.6-72.65,80.81-71.44Z"/></g><g><path class="cls-10" d="M57.7,166.92c.76,.76-43.1,48.96-44.72,50.58s-4.25,1.62-5.87,0c-1.62-1.62-1.62-4.25,0-5.87,1.62-1.62,49.82-45.48,50.58-44.72Z"/><path class="cls-25" d="M38.91,185.38c.46,.46-26.28,29.85-27.27,30.84-.99,.99-2.59,.99-3.58,0-.99-.99-.99-2.59,0-3.58,.99-.99,30.38-27.73,30.84-27.27Z"/></g><g><path class="cls-10" d="M131.34,0c.76,.76-43.1,48.96-44.72,50.58-1.62,1.62-4.25,1.62-5.87,0s-1.62-4.25,0-5.87C82.38,43.11,130.58-.75,131.34,0Z"/><path class="cls-20" d="M112.56,18.47c.46,.46-26.28,29.85-27.27,30.84s-2.59,.99-3.58,0c-.99-.99-.99-2.59,0-3.58,.99-.99,30.38-27.73,30.84-27.27Z"/></g><path class="cls-7" d="M161.94,39.64h-2.48v-2.48c0-.86-.7-1.56-1.56-1.56h0c-.86,0-1.56,.7-1.56,1.56v2.48h-2.48c-.86,0-1.56,.7-1.56,1.56h0c0,.86,.7,1.56,1.56,1.56h2.48v2.48c0,.86,.7,1.56,1.56,1.56h0c.86,0,1.56-.7,1.56-1.56v-2.48h2.48c.86,0,1.56-.7,1.56-1.56h0c0-.86-.7-1.56-1.56-1.56Z"/><path class="cls-7" d="M9.64,144.51h-2.48v-2.48c0-.86-.7-1.56-1.56-1.56h0c-.86,0-1.56,.7-1.56,1.56v2.48H1.56c-.86,0-1.56,.7-1.56,1.56H0c0,.86,.7,1.56,1.56,1.56h2.48v2.48c0,.86,.7,1.56,1.56,1.56h0c.86,0,1.56-.7,1.56-1.56v-2.48h2.48c.86,0,1.56-.7,1.56-1.56h0c0-.86-.7-1.56-1.56-1.56Z"/><path class="cls-7" d="M446.45,121.5h-2.48v-2.48c0-.86-.7-1.56-1.56-1.56h0c-.86,0-1.56,.7-1.56,1.56v2.48h-2.48c-.86,0-1.56,.7-1.56,1.56h0c0,.86,.7,1.56,1.56,1.56h2.48v2.48c0,.86,.7,1.56,1.56,1.56h0c.86,0,1.56-.7,1.56-1.56v-2.48h2.48c.86,0,1.56-.7,1.56-1.56h0c0-.86-.7-1.56-1.56-1.56Z"/><path class="cls-7" d="M156.97,402.18h-2.48v-2.48c0-.86-.7-1.56-1.56-1.56h0c-.86,0-1.56,.7-1.56,1.56v2.48h-2.48c-.86,0-1.56,.7-1.56,1.56h0c0,.86,.7,1.56,1.56,1.56h2.48v2.48c0,.86,.7,1.56,1.56,1.56h0c.86,0,1.56-.7,1.56-1.56v-2.48h2.48c.86,0,1.56-.7,1.56-1.56h0c0-.86-.7-1.56-1.56-1.56Z"/><path class="cls-7" d="M446.45,358.54h-2.48v-2.48c0-.86-.7-1.56-1.56-1.56h0c-.86,0-1.56,.7-1.56,1.56v2.48h-2.48c-.86,0-1.56,.7-1.56,1.56h0c0,.86,.7,1.56,1.56,1.56h2.48v2.48c0,.86,.7,1.56,1.56,1.56h0c.86,0,1.56-.7,1.56-1.56v-2.48h2.48c.86,0,1.56-.7,1.56-1.56h0c0-.86-.7-1.56-1.56-1.56Z"/><circle class="cls-6" cx="334.95" cy="404.04" r="5.91"/><path class="cls-6" d="M92.41,176.96c0,1.96-1.59,3.54-3.54,3.54s-3.54-1.59-3.54-3.54,1.59-3.54,3.54-3.54,3.54,1.59,3.54,3.54Z"/><circle class="cls-6" cx="187.36" cy="360.98" r="3.54"/><circle class="cls-6" cx="499.5" cy="189.28" r="3.54"/><path class="cls-6" d="M131.35,84.73c0,1.96-1.59,3.54-3.54,3.54s-3.54-1.59-3.54-3.54,1.59-3.54,3.54-3.54,3.54,1.59,3.54,3.54Z"/><circle class="cls-6" cx="534.69" cy="100.08" r="5.91"/><path class="cls-6" d="M288.15,23.24c0,1.17-.95,2.13-2.13,2.13s-2.13-.95-2.13-2.13,.95-2.13,2.13-2.13,2.13,.95,2.13,2.13Z"/><circle class="cls-6" cx="453.9" cy="209.16" r="3.54"/><circle class="cls-1" cx="67.05" cy="359.29" r="4.61"/><circle class="cls-2" cx="457.44" cy="242.81" r="4.61"/><path class="cls-3" d="M370.02,27.57c0,2.55-2.07,4.61-4.61,4.61s-4.61-2.07-4.61-4.61,2.07-4.61,4.61-4.61,4.61,2.07,4.61,4.61Z"/></g></g></g></svg>